<?xml version="1.0" standalone="no"?>
<!DOCTYPE svg PUBLIC "-//W3C//DTD SVG 1.1//EN" "http://www.w3.org/Graphics/SVG/1.1/DTD/svg11.dtd" >
<svg>
<metadata>
Created by FontForge 20090622 at Tue Jun 26 04:51:49 2018
 By ffonts
Font data copyright Google 2014, Design modifications and new weights 2015, Cannot Into Space Fonts
</metadata>
<defs>
<font id="AsimovPrintC" horiz-adv-x="672" >
  <font-face 
    font-family="Asimov Print"
    font-weight="500"
    font-stretch="normal"
    units-per-em="1000"
    panose-1="0 0 0 0 0 0 0 0 0 0"
    ascent="750"
    descent="-250"
    x-height="520"
    cap-height="707"
    bbox="-721 -247 1500 1020"
    underline-thickness="48"
    underline-position="-145"
    stemh="113"
    stemv="140"
    unicode-range="U+0002-U+FFFD"
  />
<missing-glyph horiz-adv-x="249" 
 />
    <glyph glyph-name=".notdef" horiz-adv-x="249" 
 />
    <glyph glyph-name="uni0009" horiz-adv-x="0" 
 />
    <glyph glyph-name="uni0009" horiz-adv-x="0" 
 />
    <glyph glyph-name="uni0002" horiz-adv-x="0" 
 />
    <glyph glyph-name="CR" unicode="&#xd;" horiz-adv-x="249" 
 />
    <glyph glyph-name="space" unicode=" " horiz-adv-x="249" 
 />
    <glyph glyph-name="exclam" unicode="!" horiz-adv-x="271" 
d="M60 63c0 44 36 71 77 71c43 0 70 -29 70 -71c0 -45 -30 -70 -75 -70c-40 0 -72 29 -72 70zM66 613c0 11 1 63 1 74c6 9 15 16 26 20h40c29 0 62 5 74 -27v-43c0 -128 -9 -280 -14 -390c-1 -6 -13 -27 -20 -27h-73l-20 20c-1 1 -5 75 -7 107c-1 34 -6 170 -6 193
c0 4 -1 55 -1 73z" />
    <glyph glyph-name="quotedbl" unicode="&#x22;" horiz-adv-x="361" 
d="M73 720c0 3 10 20 14 20h60c10 0 13 -23 13 -29c0 -61 -7 -126 -27 -184c-4 -15 -3 -14 -15 -14c-20 0 -45 19 -45 40v167zM233 727l14 13h60c8 0 13 -20 13 -26c0 -35 -11 -201 -46 -201c-18 0 -41 20 -41 40v174z" />
    <glyph glyph-name="numbersign" unicode="#" horiz-adv-x="595" 
d="M106 36c0 41 15 80 15 121c0 3 -1 20 -1 23c-29 43 -94 -8 -94 61c0 50 66 44 101 46c31 21 34 64 34 98c0 12 2 24 -14 28c-27 2 -88 4 -88 46c0 18 6 30 21 41c210 5 68 207 183 207c22 0 38 -13 38 -35c0 -43 -15 -83 -15 -125c0 -4 0 -23 1 -27c8 -13 22 -14 36 -14
c106 0 22 201 124 201c20 0 40 -11 40 -33v-7c-2 -12 -19 -108 -20 -120c0 -1 -1 -6 -1 -7c0 -61 95 -11 95 -81c0 -50 -66 -44 -101 -46c-28 -20 -34 -69 -34 -100c0 -10 6 -21 14 -26c32 -2 87 -5 87 -50c0 -50 -70 -43 -100 -44c-8 -6 -24 -20 -27 -33l-27 -133
c-4 -24 -28 -28 -48 -28c-18 0 -38 9 -38 31v3l20 120v7c0 24 -18 34 -39 34c-110 0 -22 -195 -125 -195c-27 0 -37 10 -37 37zM246 318c0 -8 -3 -31 14 -31h53c1 0 11 9 14 13c13 18 19 78 20 80v3c0 31 -20 31 -44 31c-54 0 -57 -49 -57 -96z" />
    <glyph glyph-name="dollar" unicode="$" horiz-adv-x="573" 
d="M46 180c0 13 3 33 21 33h93l13 -6c26 -65 47 -101 117 -101c6 0 31 0 37 1c30 7 53 46 53 76c0 152 -307 109 -307 340c0 165 114 127 180 210c14 18 1 67 34 67c36 0 58 -57 66 -80c82 -38 167 -95 167 -197c0 -7 -12 -30 -20 -30h-93c-37 0 -33 107 -117 107
c-47 0 -77 -35 -77 -80c0 -39 12 -53 47 -80c117 -56 261 -104 261 -253c0 -138 -81 -131 -168 -200c-20 -17 -20 -74 -46 -74c-37 0 -47 47 -67 67c-69 69 -194 56 -194 200z" />
    <glyph glyph-name="percent" unicode="%" horiz-adv-x="738" 
d="M386 156c0 97 57 158 154 158c70 0 129 -35 147 -107c0 -8 1 -46 1 -54c0 -97 -42 -160 -145 -160c-105 0 -157 61 -157 163zM173 100c0 19 25 52 34 67l266 426c12 18 21 34 44 34c19 0 37 -12 37 -33c0 -10 1 -19 -7 -27l-274 -440c-11 -19 -30 -61 -58 -61
c-21 0 -42 11 -42 34zM479 151c0 -37 12 -78 57 -78c25 0 50 14 57 40c1 6 1 31 1 37c0 49 -9 78 -60 78c-47 0 -55 -39 -55 -77zM46 553c0 96 51 161 153 161s148 -69 148 -164v-50c-19 -75 -80 -107 -150 -107c-100 0 -151 63 -151 160zM139 553c0 -42 13 -80 61 -80
c47 0 54 45 54 83c0 33 -10 78 -54 78c-47 0 -61 -40 -61 -81z" />
    <glyph glyph-name="ampersand" unicode="&#x26;" horiz-adv-x="656" 
d="M614 16c-2 -5 -12 -16 -14 -16h-107c-15 8 -40 22 -60 27c-72 -26 -96 -34 -170 -34c-118 0 -230 62 -230 194c0 79 55 126 107 180c0 2 1 14 1 16c0 55 -42 94 -42 153c0 109 79 178 184 178c102 0 178 -62 178 -167c0 -87 -49 -119 -114 -180c0 -2 -1 -9 -1 -10
c0 -42 70 -95 94 -117c1 0 8 -1 10 -1c42 0 51 68 107 68c19 0 60 0 56 -34c0 -4 -9 -32 -13 -40c-7 -16 -45 -91 -53 -106c0 -1 -1 -3 -1 -4c0 -43 68 -65 68 -107zM179 197c0 -58 35 -91 92 -91c24 0 76 -2 76 34c0 40 -92 113 -114 133c-1 1 -8 1 -10 1
c-36 0 -44 -52 -44 -77zM226 534c0 -31 6 -75 44 -75c39 0 77 41 77 80c0 34 -31 61 -64 61c-41 0 -57 -32 -57 -66z" />
    <glyph glyph-name="quotesingle" unicode="'" horiz-adv-x="161" 
d="M107 740l13 -13c0 -1 1 -16 1 -22c0 -27 2 -192 -45 -192c-21 0 -43 34 -43 54v146c0 6 15 27 20 27h54z" />
    <glyph glyph-name="parenleft" unicode="(" horiz-adv-x="351" 
d="M60 280c0 105 78 487 224 487c23 0 30 -19 30 -38c0 -54 -73 -129 -94 -176c-37 -84 -41 -183 -41 -273c0 -107 12 -207 54 -307c21 -49 81 -87 81 -142c0 -19 -7 -38 -30 -38c-146 0 -224 373 -224 487z" />
    <glyph glyph-name="parenright" unicode=")" horiz-adv-x="352" 
d="M26 -167c0 41 48 72 67 107c35 63 67 147 67 220v240c0 127 -134 280 -134 327c0 22 13 40 34 40c150 0 233 -374 233 -487c0 -103 -79 -487 -233 -487c-21 0 -34 18 -34 40z" />
    <glyph glyph-name="asterisk" unicode="*" horiz-adv-x="453" 
d="M300 300c-8 13 -38 82 -73 93c-1 0 -3 1 -4 1c-48 0 -46 -95 -95 -95c-20 0 -55 17 -55 41c0 3 5 17 7 20l60 80c0 1 1 7 1 9c0 57 -121 24 -121 84c0 17 18 56 40 54c35 -5 65 -34 100 -34c11 0 27 6 27 20v107c0 21 29 27 44 27c20 0 42 -10 42 -34v-106
c0 -15 19 -15 27 -15c33 0 61 28 94 28c25 0 39 -31 39 -53c0 -58 -120 -24 -120 -80c0 -45 61 -67 61 -110c0 -21 -32 -44 -50 -44c-10 0 -16 0 -24 7z" />
    <glyph glyph-name="plus" unicode="+" horiz-adv-x="545" 
d="M337 100c0 -4 -22 -27 -24 -27h-86c-7 0 -24 13 -24 20v140c0 5 -21 26 -23 27c-3 3 -13 10 -13 10h-120c-22 0 -21 58 -21 63c0 21 0 64 34 64h120c3 3 20 25 23 30v133c0 7 17 20 24 20h86c3 0 24 -23 24 -27v-133c0 -4 19 -23 23 -23h120c4 0 27 -22 27 -24v-80
c0 -10 -11 -18 -20 -20c-17 0 -97 -5 -114 -6c-8 -1 -36 -13 -36 -27v-140z" />
    <glyph glyph-name="comma" unicode="," horiz-adv-x="244" 
d="M33 -126c0 68 32 140 34 213c11 31 37 27 66 27c7 0 26 0 27 -1l20 -20c0 -1 1 -30 1 -42c0 -59 -18 -218 -105 -218c-29 0 -43 14 -43 41z" />
    <glyph glyph-name="hyphen" unicode="-" horiz-adv-x="387" 
d="M53 300c0 8 -1 53 20 53h227c26 0 21 -41 21 -53c0 -5 -1 -28 -1 -33c-4 -5 -18 -20 -27 -20h-213c-26 0 -27 38 -27 53z" />
    <glyph glyph-name="period" unicode="." horiz-adv-x="290" 
d="M66 67c0 47 25 67 71 67c41 0 77 -20 77 -67c0 -39 -35 -74 -74 -74c-47 0 -74 30 -74 74z" />
    <glyph glyph-name="slash" unicode="/" horiz-adv-x="373" 
d="M6 -33c0 3 0 12 1 13l220 653c12 38 23 74 69 74c27 0 45 -2 45 -32c0 -3 -1 -14 -1 -15l-233 -687c-10 -29 -33 -34 -60 -34c-4 0 -23 1 -27 1c-14 5 -14 15 -14 27z" />
    <glyph glyph-name="zero" unicode="0" horiz-adv-x="573" 
d="M283 714c134 0 237 -104 237 -241v-246c0 -139 -105 -234 -237 -234c-129 0 -236 99 -236 234v253c0 135 107 234 236 234zM283 600c-63 0 -96 -63 -96 -120v-253c0 -60 33 -121 96 -121c62 0 97 55 97 114v260c0 57 -33 120 -97 120z" />
    <glyph glyph-name="one" unicode="1" horiz-adv-x="573" 
d="M221 521c-40 0 -69 -35 -108 -35c-17 0 -20 8 -20 24c0 106 132 197 231 197c18 0 63 -2 63 -34v-640c0 -11 -12 -33 -27 -33h-87c-6 0 -23 13 -23 20v467c0 22 -11 34 -29 34z" />
    <glyph glyph-name="two" unicode="2" horiz-adv-x="573" 
d="M46 50c0 158 315 268 315 456c0 56 -30 95 -88 95c-90 0 -87 -114 -126 -114h-87c-5 0 -17 8 -20 13c0 3 -1 20 -1 23c0 127 132 191 241 191c123 0 227 -64 227 -198c0 -144 -141 -254 -227 -349c-15 -17 -21 -20 -21 -37c0 -8 1 -20 14 -20h234c26 0 21 -57 21 -63
c0 -7 -1 -26 -1 -27l-20 -20h-434c-24 0 -27 34 -27 50z" />
    <glyph glyph-name="three" unicode="3" horiz-adv-x="573" 
d="M33 157c0 12 4 30 20 30h94c34 0 51 -81 124 -81c63 0 103 27 103 94c0 140 -181 87 -181 127v66c0 36 174 -3 174 117c0 53 -42 91 -94 91c-56 0 -77 -74 -120 -74h-86c-21 0 -21 21 -21 34c0 110 141 153 227 153c120 0 234 -60 234 -194c0 -61 -29 -105 -74 -147v-6
c0 -45 87 -87 87 -174c0 -141 -127 -200 -250 -200c-94 0 -237 43 -237 164z" />
    <glyph glyph-name="four" unicode="4" horiz-adv-x="573" 
d="M323 20v100c-2 3 -12 16 -16 20c-4 3 -13 10 -14 10h-233c-28 0 -27 51 -27 63c0 40 5 53 27 87l200 313c40 63 53 94 127 94c11 0 76 4 76 -27v-393c0 -25 78 -8 78 -80c0 -75 -78 -48 -78 -80v-100c0 -1 -7 -10 -10 -14c-4 -5 -13 -13 -20 -13h-86zM186 290
c0 -11 7 -23 21 -23h86c10 0 27 17 27 26v160c0 15 -2 21 -13 21c-35 0 -121 -163 -121 -184z" />
    <glyph glyph-name="five" unicode="5" horiz-adv-x="573" 
d="M53 164c0 14 15 25 27 29c5 1 31 1 37 1c82 0 89 -88 168 -88c71 0 102 58 102 124c0 72 -42 124 -114 124c-40 0 -71 -28 -109 -28c-47 0 -91 13 -91 64c0 58 -9 264 40 303c5 4 24 14 27 14h333c6 0 27 -15 27 -20v-74c0 -6 -13 -23 -20 -23h-233
c-34 0 -34 -83 -34 -101c0 -16 2 -36 23 -36c28 0 53 8 81 8c134 0 210 -106 210 -235c0 -143 -99 -233 -237 -233c-95 0 -237 52 -237 171z" />
    <glyph glyph-name="six" unicode="6" horiz-adv-x="573" 
d="M46 300c0 205 110 414 341 414c31 0 40 -33 40 -57c0 -106 -221 -59 -221 -197c0 -9 5 -14 14 -14c38 0 73 21 113 21c134 0 201 -115 201 -237c0 -114 -71 -207 -181 -237h-56c-180 0 -251 142 -251 307zM284 354c-30 0 -91 -20 -91 -61v-100c0 -49 55 -87 99 -87
c66 0 102 61 102 124c0 69 -39 124 -110 124z" />
    <glyph glyph-name="seven" unicode="7" horiz-adv-x="573" 
d="M125 20c0 25 3 27 15 53l220 480c0 2 1 12 1 14c0 14 -8 30 -28 30h-286l-14 16v74c0 5 21 20 27 20h433c24 0 34 -32 34 -50c0 -28 -9 -51 -20 -77l-220 -507c-3 -5 -27 -73 -54 -73h-93l-13 7c-1 0 -2 10 -2 13z" />
    <glyph glyph-name="eight" unicode="8" horiz-adv-x="573" 
d="M46 192c0 72 33 111 81 161v20c-36 43 -67 89 -67 147c0 130 106 194 223 194c118 0 224 -65 224 -194c0 -64 -67 -104 -67 -157v-10c48 -51 81 -91 81 -163c0 -139 -112 -197 -238 -197c-125 0 -237 60 -237 199zM186 200c0 -57 42 -94 97 -94c58 0 97 39 97 97
c0 60 -43 97 -100 97s-94 -44 -94 -100zM206 511c0 -46 26 -91 77 -91c26 0 77 23 77 53v74c0 34 -48 53 -77 53c-54 0 -77 -40 -77 -89z" />
    <glyph glyph-name="nine" unicode="9" horiz-adv-x="573" 
d="M146 50c0 111 215 41 215 180c0 15 -6 17 -21 17c-33 0 -59 -14 -94 -14c-134 0 -206 108 -206 234c0 139 101 247 240 247c179 0 234 -164 234 -317c0 -198 -93 -404 -322 -404c-39 0 -46 20 -46 57zM277 601c-38 0 -90 -40 -90 -81v-100c0 -49 51 -81 94 -81
s78 20 92 61c1 7 1 40 1 47c0 61 -16 154 -97 154z" />
    <glyph glyph-name="colon" unicode=":" horiz-adv-x="282" 
d="M66 67c0 47 25 67 71 67c41 0 77 -20 77 -67c0 -39 -35 -74 -74 -74c-47 0 -74 30 -74 74zM66 467c0 47 25 67 71 67c41 0 77 -20 77 -67c0 -39 -35 -74 -74 -74c-47 0 -74 30 -74 74z" />
    <glyph glyph-name="semicolon" unicode=";" horiz-adv-x="262" 
d="M40 -127c0 54 38 148 40 220l20 20c1 1 20 1 27 1c29 0 55 4 66 -27c0 -6 1 -34 1 -40c0 -55 -23 -215 -102 -215c-24 0 -52 13 -52 41zM53 467c0 47 35 67 77 67c46 0 71 -20 71 -67c0 -44 -28 -74 -74 -74c-40 0 -74 35 -74 74z" />
    <glyph glyph-name="less" unicode="&#x3c;" horiz-adv-x="508" 
d="M417 520c10 0 23 -8 23 -20v-80c0 -66 -234 -57 -234 -124c2 -5 10 -12 14 -16c28 -10 159 -56 187 -67c12 -4 33 -18 33 -33v-80c0 -14 -16 -20 -27 -20h-6l-347 147c-8 3 -33 19 -33 33v80c0 16 42 35 53 40l313 133c3 2 17 6 20 7h4z" />
    <glyph glyph-name="equal" unicode="=" horiz-adv-x="572" 
d="M473 260c5 0 17 -10 20 -13v-74c0 -9 -11 -20 -20 -20h-386l-20 20v67l20 20h386zM66 420c0 5 0 28 1 33c3 5 18 20 26 20h374c5 0 26 -15 26 -20v-73l-13 -13h-393c-26 0 -21 41 -21 53z" />
    <glyph glyph-name="greater" unicode="&#x3e;" horiz-adv-x="516" 
d="M280 280c11 6 14 10 14 20c0 51 -234 56 -234 120v80l7 13c0 1 9 1 13 1c19 0 22 0 40 -7l320 -134c34 -14 41 -39 41 -73c0 -43 -14 -63 -54 -80l-267 -113c-24 -10 -49 -28 -77 -28c-8 0 -23 1 -23 14v87c0 27 57 41 73 47z" />
    <glyph glyph-name="question" unicode="?" horiz-adv-x="497" 
d="M159 68c0 46 29 66 73 66c42 0 75 -25 75 -71c0 -41 -37 -70 -77 -70c-45 0 -71 34 -71 75zM172 255c0 118 142 157 142 269c0 40 -27 76 -71 76c-70 0 -77 -81 -153 -81c-6 0 -31 1 -37 1c-18 5 -27 17 -27 36c0 112 121 158 214 158c119 0 214 -58 214 -184
c0 -100 -74 -161 -141 -230c-12 -21 -13 -80 -46 -80h-80l-14 13c0 1 -1 16 -1 22z" />
    <glyph glyph-name="at" unicode="@" horiz-adv-x="895" 
d="M39 197c0 251 154 490 428 490c241 0 380 -174 380 -404c0 -131 -49 -290 -205 -290c-49 0 -84 41 -124 41c-46 0 -79 -42 -131 -42c-105 0 -134 95 -134 181c0 140 70 301 230 301c59 0 137 -14 137 -86c0 -78 -14 -156 -14 -235c0 -7 1 -39 1 -46c6 -25 24 -35 47 -35
c97 0 107 145 107 215c0 183 -104 320 -295 320c-226 0 -333 -216 -333 -417c0 -187 102 -324 296 -324c49 0 94 14 141 14c28 0 31 -18 31 -42c0 -64 -132 -59 -171 -59c-255 0 -391 174 -391 418zM360 183c0 -41 9 -103 63 -103c107 0 97 230 97 271c0 15 -8 26 -20 36
h-23c-95 0 -117 -132 -117 -204z" />
    <glyph glyph-name="A" unicode="A" 
d="M13 27v6l227 607c8 22 20 67 53 67h80c22 0 42 -38 47 -54l220 -586c4 -10 13 -38 13 -40c1 -6 -16 -27 -20 -27h-100c-60 0 -33 140 -93 140h-213c-60 0 -34 -140 -94 -140h-100c-14 0 -20 15 -20 27zM259 293c0 -8 0 -26 14 -26h120c13 0 15 15 15 23c0 2 -1 9 -1 10
c-8 24 -45 136 -54 160c-3 10 -8 21 -20 21c-9 0 -16 -3 -20 -14l-53 -160c0 -1 -1 -11 -1 -14z" />
    <glyph glyph-name="B" unicode="B" horiz-adv-x="638" 
d="M93 707h120c141 0 354 3 354 -190c0 -74 -61 -107 -61 -154c0 -1 1 -8 1 -10c49 -41 80 -84 80 -149c0 -113 -94 -204 -207 -204h-293c-15 0 -27 22 -27 33v634c0 18 17 35 33 40zM440 210c0 35 -25 90 -67 90h-146c-11 0 -20 -28 -20 -33v-114c0 -5 9 -33 20 -33h140
c43 0 73 52 73 90zM240 587c-17 -5 -33 -22 -33 -40v-100c0 -12 11 -34 26 -34h114c47 0 74 47 74 87c0 79 -70 87 -134 87h-47z" />
    <glyph glyph-name="C" unicode="C" horiz-adv-x="654" 
d="M40 354c0 187 91 360 297 360c122 0 271 -74 271 -215c0 -5 -1 -18 -1 -19l-14 -7h-100l-13 7c-28 76 -67 114 -147 114c-131 0 -147 -140 -147 -244c0 -111 16 -237 151 -237c115 0 103 121 209 121c21 0 43 4 61 -14v-23c0 -94 -109 -204 -207 -204h-133
c-174 0 -227 232 -227 361z" />
    <glyph glyph-name="D" unicode="D" horiz-adv-x="649" 
d="M93 707h100c247 0 408 -88 408 -353c0 -161 -90 -354 -281 -354h-233c-15 0 -27 22 -27 33v634c0 18 17 35 33 40zM269 587c-26 0 -62 -4 -62 -40v-394c0 -12 9 -27 20 -33c7 0 39 -1 46 -1c138 0 181 111 181 234c0 127 -46 234 -185 234z" />
    <glyph glyph-name="E" unicode="E" horiz-adv-x="562" 
d="M534 650c0 -6 0 -60 -21 -60h-273c-37 0 -34 -71 -34 -87c0 -24 -3 -86 41 -86h220c18 0 20 -47 20 -55c0 -21 -4 -59 -34 -59h-220c-13 0 -26 -28 -26 -36v-114c0 -5 11 -36 20 -36h273c33 0 34 -40 34 -60c0 -16 1 -57 -27 -57h-420c-15 0 -27 22 -27 33v634
c0 14 17 40 33 40h407c36 0 34 -34 34 -57z" />
    <glyph glyph-name="F" unicode="F" horiz-adv-x="547" 
d="M521 650c0 -6 0 -60 -21 -60h-260c-14 0 -33 -32 -33 -43v-100c0 -12 19 -44 33 -44h227c19 0 20 -49 20 -56c0 -8 -1 -57 -20 -57h-227c-12 0 -37 -33 -37 -43v-227c0 -7 -16 -20 -23 -20h-93c-15 0 -27 22 -27 33v634c0 14 17 40 33 40h394c33 0 34 -33 34 -57z" />
    <glyph glyph-name="G" unicode="G" horiz-adv-x="681" 
d="M46 350c0 193 81 364 297 364c111 0 271 -59 271 -197c0 -12 -5 -30 -21 -30h-93c-34 0 -56 107 -153 107c-135 0 -154 -131 -154 -241c0 -117 29 -247 170 -247c70 0 111 18 111 91c0 5 0 31 -1 36c-14 42 -73 33 -106 34l-20 20v60l20 20h233c5 0 20 -21 20 -27v-240
c0 -86 -213 -107 -265 -107c-217 0 -309 155 -309 357z" />
    <glyph glyph-name="H" unicode="H" horiz-adv-x="706" 
d="M173 707c8 0 27 -17 30 -20v-227c0 -18 27 -40 44 -40h206c5 0 37 11 37 20v233c0 12 27 31 37 34h36c7 0 70 4 70 -20v-667l-20 -20h-93c-13 0 -30 23 -30 33v247c0 2 -25 20 -30 20h-220c-14 0 -37 -27 -37 -40v-240c0 -7 -16 -20 -23 -20h-93c-15 0 -27 22 -27 33v634
c0 14 17 40 33 40h80z" />
    <glyph glyph-name="I" unicode="I" horiz-adv-x="291" 
d="M146 707c16 0 67 3 67 -27v-653c0 -10 -17 -27 -26 -27h-87c-6 0 -27 15 -27 20v660c0 32 58 27 73 27z" />
    <glyph glyph-name="J" unicode="J" horiz-adv-x="558" 
d="M20 170c0 7 12 30 20 30h107c18 0 35 -94 103 -94c36 0 93 31 93 74v487c0 12 23 40 37 40h80c17 0 33 -26 33 -40v-440c0 -146 -99 -234 -240 -234c-104 0 -233 52 -233 177z" />
    <glyph glyph-name="K" unicode="K" horiz-adv-x="634" 
d="M173 707c8 0 27 -17 30 -20v-220l10 -34c1 0 7 -2 9 -2c18 0 26 14 38 29l167 213c10 14 33 34 53 34h100c8 0 29 -7 27 -20c-1 -5 -10 -24 -14 -27l-180 -227c-10 -12 -20 -27 -20 -43c0 -118 221 -250 221 -370c0 -11 2 -20 -14 -20h-120c-8 0 -23 15 -27 20l-140 213
c-3 5 -21 24 -26 27c-1 0 -5 1 -6 1c-40 0 -72 -59 -74 -94c-2 -22 -7 -125 -7 -147c-1 -9 -10 -20 -20 -20h-93c-15 0 -27 22 -27 33v634c0 14 17 40 33 40h80z" />
    <glyph glyph-name="L" unicode="L" horiz-adv-x="541" 
d="M173 707c8 0 27 -17 30 -20v-534c0 -2 18 -36 24 -36h260c29 0 27 -60 27 -70c0 -7 0 -26 -1 -27l-20 -20h-406c-15 0 -27 22 -27 33v634c0 14 17 40 33 40h80z" />
    <glyph glyph-name="M" unicode="M" horiz-adv-x="875" 
d="M667 427c0 2 -7 6 -10 7c-19 0 -34 -53 -37 -61l-127 -346c-19 -25 -29 -28 -60 -28c-36 0 -54 11 -66 48l-120 326c-3 9 -18 61 -37 61c-1 0 -3 0 -3 -1c-2 -2 -7 -11 -7 -13v-400c0 -9 -11 -20 -20 -20h-93c-15 0 -27 22 -27 33v634c0 14 17 40 33 40h127
c14 0 36 -15 40 -27l153 -427c4 -11 10 -20 24 -20c12 0 22 32 23 34l140 393c7 20 21 47 47 47h126c12 0 34 -22 34 -34v-646c0 -10 -17 -27 -27 -27h-93l-20 20v407z" />
    <glyph glyph-name="N" unicode="N" horiz-adv-x="706" 
d="M476 286c5 0 13 6 14 7v380c0 12 27 31 37 34h36c7 0 70 4 70 -20v-667l-20 -20h-106c-66 0 -187 382 -280 413c-1 0 -3 1 -4 1c-15 0 -20 -40 -20 -41v-353c0 -7 -16 -20 -23 -20h-93c-15 0 -27 22 -27 33v634c0 18 17 35 33 40h44c42 0 63 3 90 -34l200 -326
c1 -3 34 -61 49 -61z" />
    <glyph glyph-name="O" unicode="O" horiz-adv-x="690" 
d="M40 353c0 185 96 361 300 361c209 0 301 -176 301 -364c0 -193 -91 -357 -301 -357c-206 0 -300 172 -300 360zM186 353c0 -108 27 -240 157 -240c131 0 151 136 151 241c0 101 -23 240 -151 240s-157 -138 -157 -241z" />
    <glyph glyph-name="P" unicode="P" horiz-adv-x="645" 
d="M601 474c0 -134 -85 -180 -194 -224h-160c-16 0 -44 -28 -44 -43v-187c0 -7 -16 -20 -23 -20h-93c-15 0 -27 22 -27 33v634c0 14 17 40 33 40h260c136 0 248 -96 248 -233zM240 587c-17 -5 -33 -22 -33 -40v-140c0 -19 16 -35 33 -40c8 -1 45 -1 53 -1
c78 0 161 12 161 107c0 93 -80 114 -157 114h-57z" />
    <glyph glyph-name="Q" unicode="Q" horiz-adv-x="690" 
d="M387 -13c-227 5 -348 140 -348 366c0 188 95 361 301 361s301 -173 301 -361c0 -86 -13 -157 -54 -233c-13 -24 -42 -45 -47 -73c0 -2 4 -11 7 -14l73 -73s1 -4 1 -6c0 -30 -44 -68 -74 -68c-59 0 -105 77 -160 101zM186 350c0 -107 27 -237 157 -237
c128 0 151 138 151 240c0 99 -21 241 -149 241c-134 0 -159 -136 -159 -244z" />
    <glyph glyph-name="R" unicode="R" horiz-adv-x="638" 
d="M93 707h127c158 0 361 -5 361 -210c0 -125 -108 -180 -108 -220v-4c36 -73 122 -171 122 -253c0 -3 -1 -13 -2 -13l-13 -7h-107c-7 0 -24 15 -26 20l-114 213c-2 5 -19 20 -26 20h-74c-13 0 -30 -26 -30 -33v-200c0 -7 -16 -20 -23 -20h-93c-15 0 -27 22 -27 33v634
c0 18 17 35 33 40zM240 587c-17 -5 -33 -22 -33 -40v-134c0 -17 11 -28 26 -33c9 0 51 -1 60 -1c78 0 141 14 141 104c0 6 0 32 -1 37c-25 63 -82 67 -143 67h-50z" />
    <glyph glyph-name="S" unicode="S" horiz-adv-x="614" 
d="M39 182c0 20 7 32 28 38c5 0 31 1 36 1c100 0 102 -115 214 -115c47 0 110 16 110 77c0 149 -368 95 -368 337c0 138 132 194 254 194c102 0 254 -50 254 -178c0 -12 -1 -36 -20 -36h-87c-41 0 -52 94 -150 94c-48 0 -104 -10 -104 -69c0 -147 368 -102 368 -338
c0 -149 -136 -194 -262 -194c-109 0 -273 54 -273 189z" />
    <glyph glyph-name="T" unicode="T" horiz-adv-x="618" 
d="M230 567c-3 2 -26 20 -30 23h-160l-20 23c0 1 -1 20 -1 27c0 25 -3 67 34 67h507c36 0 34 -34 34 -57c0 -6 0 -60 -21 -60h-166c-4 0 -16 -13 -20 -17c-3 -3 -10 -13 -10 -13v-540l-24 -20h-93c-7 0 -16 8 -20 13c-3 4 -10 13 -10 14v540z" />
    <glyph glyph-name="U" unicode="U" horiz-adv-x="658" 
d="M167 707c7 0 27 -18 30 -20v-447c0 -78 53 -134 130 -134c49 0 123 35 123 94v473c0 12 27 31 37 34h36c7 0 70 4 70 -20v-500c0 -104 -111 -176 -200 -194h-66c-106 0 -267 52 -267 187v507c0 5 21 20 27 20h80z" />
    <glyph glyph-name="V" unicode="V" horiz-adv-x="653" 
d="M13 673v7c0 11 16 27 27 27h93c91 0 122 -481 192 -481c14 0 21 4 22 27c15 53 90 301 106 354c7 21 20 100 60 100h94c12 0 27 -19 27 -30c0 -1 -1 -3 -1 -4l-220 -633c-3 -10 -16 -40 -33 -40h-113c-31 0 -50 82 -54 93z" />
    <glyph glyph-name="W" unicode="W" horiz-adv-x="874" 
d="M26 672c0 18 9 29 27 35h37c44 0 60 1 77 -40c9 -52 56 -295 66 -347c2 -8 7 -47 24 -47h3c4 3 13 12 13 14l94 386c8 34 43 34 70 34c35 0 61 -8 70 -47l86 -367c3 -10 10 -20 21 -20c13 0 17 25 19 34l67 346c5 24 14 47 40 54h37c20 0 70 4 70 -30v-4
c-1 -4 -6 -27 -7 -33l-133 -600c-2 -14 -16 -40 -34 -40h-100c-20 0 -29 33 -33 47l-87 346c-2 6 -8 21 -16 21c-15 0 -21 -24 -24 -34c-13 -52 -74 -295 -86 -347c-4 -12 -19 -33 -34 -33h-100c-30 0 -38 70 -40 80l-120 540c-6 28 -7 28 -7 52z" />
    <glyph glyph-name="X" unicode="X" horiz-adv-x="635" 
d="M32 20c0 121 175 213 175 335c0 123 -174 213 -174 328c0 34 58 24 74 24c43 0 66 4 93 -34l80 -146c6 -11 18 -34 33 -34c8 0 13 1 20 7c14 25 79 142 94 167c8 15 25 40 46 40h100c14 0 21 -13 21 -24c0 -117 -174 -209 -174 -326c0 -12 0 -18 7 -30l153 -260l20 -40
c0 -1 1 -6 1 -7c0 -8 -3 -20 -14 -20h-114c-84 0 -77 214 -157 214c-15 0 -19 -3 -29 -21l-94 -166c-1 -3 -23 -27 -33 -27h-113c-16 0 -15 9 -15 20z" />
    <glyph glyph-name="Y" unicode="Y" horiz-adv-x="618" 
d="M230 254l-210 413s-1 9 -1 12c0 17 4 22 21 28h43c166 0 149 -287 224 -287c2 0 12 5 13 7c39 75 74 245 160 280h43c23 0 71 9 71 -28c0 -1 -1 -5 -1 -6l-200 -393c-4 -15 -10 -32 -16 -47v-213c0 -7 -17 -20 -24 -20h-93c-7 0 -16 8 -20 13c-3 4 -10 13 -10 14v227z
" />
    <glyph glyph-name="Z" unicode="Z" horiz-adv-x="605" 
d="M33 46c0 46 28 77 54 114l240 347c11 16 26 39 33 53v3c0 8 -10 27 -20 27h-280c-25 0 -27 47 -27 60c0 19 6 57 34 57h466c9 0 23 -15 27 -20c0 -5 1 -26 1 -30c0 -33 0 -39 -21 -70l-300 -440c0 -1 -1 -5 -1 -7c0 -8 4 -23 14 -23h287c27 0 34 -46 34 -64
c0 -16 -2 -53 -27 -53h-487c-22 0 -27 31 -27 46z" />
    <glyph glyph-name="bracketleft" unicode="[" horiz-adv-x="277" 
d="M60 800l20 20h160c26 0 21 -41 21 -53c0 -5 -1 -29 -1 -34c-12 -20 -60 -17 -60 -46v-720c0 -32 60 -21 60 -47v-67l-20 -20h-153c-6 0 -27 15 -27 20v947z" />
    <glyph glyph-name="backslash" unicode="\" horiz-adv-x="421" 
d="M13 676c0 37 38 31 66 31c30 0 62 0 74 -34l267 -693c0 -1 1 -10 1 -13c0 -8 0 -27 -14 -27h-94c-20 0 -35 34 -40 47l-260 680v9z" />
    <glyph glyph-name="bracketright" unicode="]" horiz-adv-x="277" 
d="M7 -147c-1 5 -1 26 -1 30c0 67 61 52 61 77v733c0 26 -61 10 -61 83c0 6 0 23 1 24l20 20h160c15 0 26 -22 26 -33v-920c0 -9 -12 -34 -26 -34h-154c-8 0 -23 15 -26 20z" />
    <glyph glyph-name="asciicircum" unicode="^" horiz-adv-x="437" 
d="M33 379c0 11 2 15 7 28c20 49 85 208 93 226c22 51 31 74 85 74c25 0 53 -6 62 -34l107 -260c7 -17 7 -17 7 -33c0 -26 -22 -27 -44 -27c-85 0 -90 123 -123 180c-2 1 -9 1 -10 1c-63 0 -31 -181 -137 -181c-16 0 -47 3 -47 26z" />
    <glyph glyph-name="underscore" unicode="_" horiz-adv-x="446" 
d="M-1 -60c0 15 1 53 28 53h386c25 0 28 -34 28 -50c0 -9 -1 -50 -21 -50h-400c-24 0 -21 34 -21 47z" />
    <glyph glyph-name="grave" unicode="`" horiz-adv-x="330" 
d="M53 713v10c0 4 -1 17 7 17h107c26 0 81 -97 81 -120c0 -27 -27 -21 -48 -21c-69 0 -107 63 -147 114z" />
    <glyph glyph-name="a" unicode="a" horiz-adv-x="536" 
d="M33 145c0 223 301 133 301 211c0 42 -32 71 -73 71c-44 0 -60 -17 -94 -54h-100c-15 0 -15 19 -15 27c0 96 141 134 215 134c89 0 195 -46 206 -147c1 -118 14 -243 14 -362c0 -15 -5 -20 -20 -25c-7 0 -37 -1 -44 -1c-38 0 -62 22 -96 22c-38 0 -75 -28 -118 -28
c-90 0 -176 53 -176 152zM173 160c0 -39 36 -61 70 -61c57 0 91 33 91 90c0 7 0 24 -1 24l-20 20c0 1 -17 1 -24 1c-46 0 -116 -13 -116 -74z" />
    <glyph glyph-name="b" unicode="b" horiz-adv-x="562" 
d="M173 740c4 0 16 -19 17 -20v-193c0 -10 19 -21 27 -21c34 0 69 28 106 28c156 0 198 -147 198 -274c0 -135 -44 -267 -200 -267c-45 0 -81 28 -121 28c-20 0 -30 -21 -47 -21h-73c-10 0 -27 17 -27 27v693l20 20h100zM285 414c-36 0 -92 -12 -92 -61v-180
c0 -46 53 -67 90 -67c49 0 97 33 97 87v134c0 53 -48 87 -95 87z" />
    <glyph glyph-name="c" unicode="c" horiz-adv-x="521" 
d="M33 260c0 147 77 274 237 274c93 0 217 -61 217 -171c0 -7 -12 -30 -20 -30h-87c-24 0 -45 81 -112 81c-87 0 -95 -84 -95 -154c0 -74 11 -154 99 -154c66 0 75 67 108 67h87c5 0 20 -21 20 -26c0 -69 -93 -154 -160 -154h-114c-132 0 -180 166 -180 267z" />
    <glyph glyph-name="d" unicode="d" horiz-adv-x="563" 
d="M487 740c3 -3 13 -15 13 -20v-700l-20 -20h-80c-18 17 -27 21 -47 21c-41 0 -73 -28 -120 -28c-150 0 -200 141 -200 270c0 127 54 271 204 271c37 0 69 -28 103 -28c8 0 23 3 23 14v200c0 7 17 20 24 20h100zM173 256c0 -68 14 -150 100 -150c28 0 87 17 87 54v200
c0 43 -58 54 -88 54c-88 0 -99 -89 -99 -158z" />
    <glyph glyph-name="e" unicode="e" horiz-adv-x="540" 
d="M33 253c0 144 85 281 244 281c146 0 230 -109 230 -247v-47c-2 -7 -12 -23 -20 -23h-274c-9 0 -27 -22 -27 -30c0 -56 73 -81 117 -81c49 0 84 35 128 35c2 0 9 -1 9 -1l40 -40v-33c0 -65 -151 -74 -187 -74c-153 0 -260 103 -260 260zM186 340c0 -10 16 -27 21 -27h140
c17 0 20 18 20 30c0 50 -46 71 -87 71s-94 -24 -94 -74z" />
    <glyph glyph-name="f" unicode="f" horiz-adv-x="358" 
d="M90 20v373c0 40 -77 24 -77 80c0 57 44 32 67 67c60 90 -15 214 201 214c43 0 73 -8 73 -57c0 -85 -121 -37 -121 -131c0 -44 44 -44 80 -46c18 -13 21 -26 21 -47s-3 -33 -21 -46c-4 -1 -83 -2 -83 -34v-373l-23 -20h-94z" />
    <glyph glyph-name="g" unicode="g" horiz-adv-x="570" 
d="M79 -124c0 23 23 64 51 64c37 0 77 -40 120 -40c50 0 117 31 117 90c0 8 -8 24 -17 24c-36 0 -67 -22 -105 -22c-150 0 -212 135 -212 268c0 127 62 274 210 274c44 0 79 -28 121 -28c17 0 27 0 43 14h80c15 0 26 -22 26 -33v-467c0 -148 -112 -227 -250 -227
c-50 0 -184 10 -184 83zM173 260c0 -72 25 -154 110 -154c25 0 84 11 84 47v214c0 36 -59 47 -84 47c-85 0 -110 -82 -110 -154z" />
    <glyph glyph-name="h" unicode="h" horiz-adv-x="559" 
d="M167 740c3 -3 23 -21 23 -27v-200c0 -10 15 -14 23 -14c37 0 74 35 117 35c91 0 170 -65 170 -161v-353c0 -5 -21 -20 -27 -20h-86l-24 20v333c0 45 -54 61 -86 61c-23 0 -87 -13 -87 -47v-340c0 -1 -7 -10 -10 -14c-4 -5 -13 -13 -20 -13h-87l-20 20v707l14 13h100z" />
    <glyph glyph-name="i" unicode="i" horiz-adv-x="265" 
d="M173 520c5 0 17 -10 20 -13v-487c0 -9 -11 -20 -20 -20h-86c-1 0 -11 5 -14 7c-8 5 -13 17 -13 26v460c0 6 15 27 20 27h93zM53 659c0 47 35 68 77 68c43 0 71 -18 71 -64c0 -45 -31 -70 -76 -70c-37 0 -72 26 -72 66z" />
    <glyph glyph-name="j" unicode="j" horiz-adv-x="259" 
d="M57 493c0 4 20 27 23 27h93c15 0 27 -22 27 -33v-520c0 -109 -75 -181 -181 -181c-45 0 -66 13 -66 61c0 74 104 35 104 100v546zM53 661c0 47 30 67 74 67s74 -20 74 -67c0 -43 -32 -68 -74 -68s-74 25 -74 68z" />
    <glyph glyph-name="k" unicode="k" horiz-adv-x="534" 
d="M173 740c4 0 16 -19 17 -20v-333c0 -14 12 -15 20 -15c2 0 9 1 10 1c28 26 119 147 147 147h113c14 0 14 -7 14 -17c0 -20 -10 -22 -27 -43l-114 -133c-7 -8 -7 -15 -7 -24c0 -16 3 -19 14 -36l147 -220c8 -12 7 -14 7 -28c0 -10 2 -19 -14 -19h-107c-10 0 -31 24 -33 27
l-87 133c-12 18 -18 28 -36 28s-47 -29 -47 -48v-120l-23 -20h-87c-10 0 -27 17 -27 27v693l20 20h100z" />
    <glyph glyph-name="l" unicode="l" horiz-adv-x="265" 
d="M180 740l13 -13v-707c0 -9 -11 -20 -20 -20h-86c-15 0 -27 22 -27 33v680c0 6 15 27 20 27h100z" />
    <glyph glyph-name="m" unicode="m" horiz-adv-x="865" 
d="M207 499c44 0 82 35 130 35c55 0 98 -55 142 -55c55 0 99 55 161 55c94 0 167 -71 167 -167v-340c0 -10 -17 -27 -27 -27h-87c-10 0 -18 11 -20 20c0 44 -5 249 -6 293c-3 60 -16 101 -80 101c-39 0 -90 -28 -90 -74v-320c0 -7 -17 -20 -24 -20h-86c-13 0 -30 23 -30 33
v334c0 36 -55 47 -79 47c-32 0 -88 -16 -88 -61v-333l-23 -20h-87c-10 0 -27 17 -27 27v466c0 6 15 27 20 27h87c17 0 27 -21 47 -21z" />
    <glyph glyph-name="n" unicode="n" horiz-adv-x="560" 
d="M53 20v480c0 9 11 20 20 20h87c5 -4 30 -27 43 -27c43 0 86 41 134 41c85 0 163 -64 163 -154v-360c0 -5 -21 -20 -27 -20h-86l-24 20v333c0 48 -51 61 -85 61c-23 0 -88 -12 -88 -47v-340c0 -1 -7 -10 -10 -14c-4 -5 -13 -13 -20 -13h-87z" />
    <glyph glyph-name="o" unicode="o" horiz-adv-x="565" 
d="M33 256c0 148 82 278 244 278c157 0 250 -121 250 -270c0 -126 -55 -237 -187 -271h-60c-158 0 -247 108 -247 263zM173 260c0 -75 19 -154 107 -154c86 0 107 82 107 154c0 75 -22 154 -109 154s-105 -81 -105 -154z" />
    <glyph glyph-name="p" unicode="p" horiz-adv-x="562" 
d="M190 -180c-1 -1 -13 -20 -17 -20h-100l-20 20v673c0 6 15 27 20 27h87l40 -20h3c39 0 78 34 120 34c114 0 177 -92 197 -194c0 -11 1 -65 1 -77c0 -130 -45 -270 -200 -270c-38 0 -70 21 -105 21c-9 0 -26 -9 -26 -21v-173zM284 414c-36 0 -91 -13 -91 -61v-186
c0 -46 52 -61 87 -61c89 0 101 83 101 154c0 69 -11 154 -97 154z" />
    <glyph glyph-name="q" unicode="q" horiz-adv-x="564" 
d="M500 -180c0 -4 -10 -17 -13 -20h-100c-7 0 -24 13 -24 20v180c0 11 -15 14 -23 14c-36 0 -67 -21 -107 -21c-150 0 -200 140 -200 270c0 127 51 271 204 271c44 0 78 -35 119 -35c17 0 31 11 44 21h80l20 -20v-680zM173 264c0 -72 12 -158 102 -158c28 0 85 13 85 54v200
c0 42 -54 54 -85 54c-87 0 -102 -78 -102 -150z" />
    <glyph glyph-name="r" unicode="r" horiz-adv-x="364" 
d="M203 499c35 0 57 29 94 29c4 0 25 -1 30 -1c5 -4 20 -18 20 -27v-73c0 -9 -15 -23 -20 -27c-38 -2 -137 -11 -137 -73v-307l-23 -20h-87c-10 0 -27 17 -27 27v466c0 6 15 27 20 27h87c16 0 26 -21 43 -21z" />
    <glyph glyph-name="s" unicode="s" horiz-adv-x="514" 
d="M32 133c0 8 0 27 15 27h86c42 0 62 -67 118 -67c36 0 77 1 77 47c0 104 -282 47 -282 236c0 108 114 158 207 158c75 0 214 -39 214 -137c0 -11 -15 -30 -27 -30h-80c-29 0 -46 47 -73 60h-34c-34 0 -68 -5 -68 -47c0 -101 288 -46 288 -230c0 -118 -124 -157 -220 -157
c-79 0 -221 33 -221 140z" />
    <glyph glyph-name="t" unicode="t" horiz-adv-x="337" 
d="M6 473c0 60 38 35 67 74c1 9 -4 106 40 106h74c8 0 23 -15 26 -20c5 -150 95 -72 95 -165c0 -61 -88 -30 -88 -81v-220c0 -79 94 -43 94 -117c0 -18 -6 -57 -34 -57h-100c-58 0 -103 85 -103 134v273c0 27 -71 5 -71 73z" />
    <glyph glyph-name="u" unicode="u" horiz-adv-x="559" 
d="M167 520c3 -3 23 -21 23 -27v-333c0 -41 52 -54 82 -54c26 0 91 18 91 54v340l24 20h93l20 -20v-480c0 -7 -21 -18 -27 -20c-5 0 -31 -1 -36 -1c-36 0 -57 22 -90 22c-28 0 -47 -28 -74 -28h-100c-57 0 -120 77 -120 134v373c0 9 11 20 20 20h94z" />
    <glyph glyph-name="v" unicode="v" horiz-adv-x="505" 
d="M173 27l-33 93l-120 360c0 2 -1 11 -1 13c0 8 0 27 14 27h100c8 0 25 -24 27 -33l60 -214c1 -3 10 -49 27 -53c45 -11 57 300 120 300h100c13 0 14 -15 14 -23c0 -2 -1 -10 -1 -10l-153 -454c-4 -12 -19 -33 -34 -33h-86c-11 0 -31 24 -34 27z" />
    <glyph glyph-name="w" unicode="w" horiz-adv-x="734" 
d="M26 487c0 7 -3 33 14 33h87c7 0 24 -24 26 -33l40 -187c2 -8 7 -58 27 -53c67 16 19 274 143 274c99 0 108 -192 124 -248c2 -7 12 -24 20 -26c40 -10 41 273 93 273h87c16 0 14 -26 14 -33c0 -3 -1 -17 -1 -20l-100 -394c-3 -9 -13 -73 -40 -73h-73
c-65 0 -76 281 -124 281c-10 0 -20 -19 -23 -28l-67 -220c-3 -12 -19 -33 -33 -33h-73c-21 0 -30 33 -34 47l-106 420c-1 1 -1 15 -1 20z" />
    <glyph glyph-name="x" unicode="x" horiz-adv-x="508" 
d="M33 500c0 3 10 20 14 20h100c57 0 49 -121 107 -121c49 0 49 121 99 121h100c16 0 15 -9 15 -19c0 -85 -116 -150 -116 -234c0 -88 122 -157 122 -244c0 -8 -1 -23 -14 -23h-93c-61 0 -58 134 -114 134c-54 0 -55 -134 -113 -134h-93c-12 0 -21 13 -21 23
c0 86 128 154 128 244c0 14 -7 28 -14 40l-100 173c-2 3 -7 17 -7 20z" />
    <glyph glyph-name="y" unicode="y" horiz-adv-x="501" 
d="M59 -157c0 88 116 52 116 155c0 5 -1 21 -2 22l-160 467v10c0 8 1 23 14 23h106c35 0 88 -232 100 -267c3 -7 8 -7 14 -7c49 0 60 274 120 274h100c14 0 14 -19 14 -27c0 -2 -1 -11 -1 -13l-180 -520c-32 -91 -75 -174 -184 -174c-45 0 -57 13 -57 57z" />
    <glyph glyph-name="z" unicode="z" horiz-adv-x="508" 
d="M33 46c0 34 13 53 34 81l186 246c1 2 1 12 1 14c0 8 1 23 -14 23h-173c-22 0 -28 40 -28 55c0 17 2 55 28 55h373c23 0 21 -29 21 -41c0 -38 -10 -53 -34 -86l-180 -240c-6 -7 -7 -12 -7 -20s2 -23 13 -23h194l20 -23v-67l-20 -20h-387c-22 0 -27 31 -27 46z" />
    <glyph glyph-name="braceleft" unicode="{" horiz-adv-x="330" 
d="M20 300c0 48 47 59 73 93c53 70 -35 368 166 368c30 0 35 -12 35 -41c0 -45 -43 -70 -54 -113c-1 -40 -4 -151 -13 -207c-7 -40 -54 -65 -54 -104c0 -32 47 -67 54 -103c10 -57 12 -158 13 -200c9 -40 54 -73 54 -111c0 -22 -6 -49 -34 -49c-174 0 -139 264 -160 354
c-12 52 -80 56 -80 113z" />
    <glyph glyph-name="bar" unicode="|" horiz-adv-x="252" 
d="M123 707c10 0 37 -7 37 -20v-800c0 -13 -27 -21 -37 -21c-9 0 -36 8 -36 21v800c0 13 27 20 36 20z" />
    <glyph glyph-name="braceright" unicode="}" horiz-adv-x="330" 
d="M26 -121c0 35 33 52 47 81c6 11 13 45 14 53c1 25 6 142 6 167c5 44 61 79 61 117c0 25 -52 94 -64 123v167c-16 40 -64 94 -64 133c0 24 12 41 37 41c159 0 156 -241 157 -334c10 -58 81 -70 81 -124c0 -65 -66 -67 -81 -130c-1 -85 1 -340 -156 -340
c-26 0 -38 21 -38 46z" />
    <glyph glyph-name="asciitilde" unicode="~" horiz-adv-x="648" 
d="M219 281c-61 0 -52 -82 -115 -82c-26 0 -51 7 -51 37c0 67 49 139 114 157c6 1 36 1 43 1c87 0 132 -95 209 -95c61 0 57 82 121 82c4 0 23 -1 27 -1c20 -9 20 -16 20 -32c0 -92 -71 -162 -160 -162c-88 0 -128 95 -208 95z" />
    <glyph glyph-name="nonbreakingspace" unicode="&#xa0;" horiz-adv-x="249" 
 />
    <glyph glyph-name="exclamdown" unicode="&#xa1;" horiz-adv-x="282" 
d="M66 -127c0 8 1 31 1 34c1 55 11 311 13 366c5 36 33 34 60 34c25 0 38 0 53 -20c20 -116 14 -236 14 -354v-93c-2 -9 -10 -20 -20 -20h-94c-26 0 -27 38 -27 53zM66 458c0 45 22 69 69 69c40 0 79 -18 79 -66c0 -41 -36 -74 -77 -74c-43 0 -71 31 -71 71z" />
    <glyph glyph-name="cent" unicode="&#xa2;" horiz-adv-x="575" 
d="M227 -13c-121 55 -181 140 -181 273c0 248 190 206 201 360c9 15 26 20 43 20c64 0 31 -61 57 -100c45 -69 154 -64 154 -173c0 -13 -3 -34 -21 -34h-80c-38 0 -39 81 -115 81c-86 0 -99 -84 -99 -154c0 -71 14 -154 101 -154c9 0 37 -2 46 7l60 60h94
c14 0 14 -17 14 -25c0 -133 -163 -101 -168 -248c-7 -23 -24 -21 -41 -21c-74 0 -27 62 -65 108z" />
    <glyph glyph-name="sterling" unicode="&#xa3;" horiz-adv-x="594" 
d="M400 390c16 -22 14 -23 14 -57c0 -5 0 -28 -1 -33c-1 -2 -22 -23 -26 -23h-87c-39 0 -34 -117 -34 -135c0 -8 0 -25 14 -25h247c36 0 34 -50 34 -70c0 -7 -1 -26 -1 -27l-20 -20h-467c-9 0 -20 11 -20 20v73c0 26 67 28 67 60v100c0 34 -74 6 -74 80c0 60 39 42 67 80
c4 162 38 301 227 301c94 0 214 -53 214 -164c0 -7 -4 -30 -14 -30h-100c-21 0 -42 74 -100 74c-65 0 -74 -64 -74 -114c0 -15 -4 -90 34 -90h100z" />
    <glyph glyph-name="currency" unicode="&#xa4;" horiz-adv-x="692" 
d="M169 34c-26 0 -40 -34 -66 -34c-22 0 -50 31 -50 53c0 30 35 45 35 76c0 56 -29 105 -29 164c0 61 35 114 35 170c0 33 -41 49 -41 80c0 28 29 51 55 51c31 0 43 -35 76 -35c55 0 103 35 163 35s107 -35 164 -35c32 0 44 35 77 35c27 0 47 -24 47 -50
c0 -35 -42 -47 -42 -80c0 -56 41 -111 41 -171c0 -57 -34 -109 -34 -163c0 -30 34 -41 34 -72c0 -26 -21 -58 -51 -58c-25 0 -39 34 -67 34c-56 0 -110 -41 -173 -41c-64 0 -115 41 -174 41zM146 297c0 -116 79 -211 198 -211c116 0 197 91 197 207c0 113 -77 208 -195 208
c-114 0 -200 -90 -200 -204z" />
    <glyph glyph-name="yen" unicode="&#xa5;" horiz-adv-x="612" 
d="M379 247c0 -11 18 -30 21 -30h107c13 0 20 -35 20 -44c0 -61 -101 -46 -134 -46l-13 -14s4 -90 -20 -106c-3 -2 -12 -7 -13 -7h-94c-48 0 -5 102 -46 127c-46 1 -141 -17 -141 51c0 12 0 39 21 39h113c3 0 21 19 21 30c0 16 -21 25 -34 26c-15 2 -85 7 -100 7
c-20 3 -21 21 -21 37c0 69 101 11 101 70c0 77 -103 210 -140 286c0 1 -1 6 -1 7c0 36 49 27 71 27h43c78 -32 114 -261 160 -261c74 0 46 261 210 261h43c9 -3 27 -13 27 -23v-4c-1 -4 -6 -18 -7 -20l-133 -253c-1 -2 -6 -16 -7 -20v-4c0 -51 95 -2 95 -66
c0 -17 -1 -29 -21 -37c-7 0 -110 8 -127 -27c0 0 -1 -5 -1 -6z" />
    <glyph glyph-name="brokenbar" unicode="&#xa6;" horiz-adv-x="251" 
d="M167 247l13 -14v-346c0 -24 -54 -21 -60 -21c-24 0 -60 -1 -60 34v320c0 6 15 27 20 27h87zM123 707c8 0 57 2 57 -20v-327c0 -23 -54 -21 -60 -21c-24 0 -60 -1 -60 34v300c0 32 45 34 63 34z" />
    <glyph glyph-name="section" unicode="&#xa7;" horiz-adv-x="628" 
d="M46 -53c0 11 7 26 21 26h100c7 0 58 -80 140 -80c39 0 107 10 107 64c0 130 -368 67 -368 301c0 58 55 91 55 139c0 43 -42 83 -42 133c0 134 132 184 247 184c103 0 248 -40 248 -169c0 -8 3 -32 -14 -32h-93c-37 0 -60 88 -144 88c-42 0 -104 -18 -104 -71
c0 -130 368 -62 368 -297c0 -56 -54 -92 -54 -136v-4c32 -59 41 -71 41 -132c0 -141 -127 -182 -247 -182c-99 0 -261 36 -261 168zM186 273c0 -78 139 -114 195 -114c36 0 46 28 46 59c0 78 -135 110 -191 110c-34 0 -50 -22 -50 -55z" />
    <glyph glyph-name="dieresis" unicode="&#xa8;" horiz-adv-x="466" 
d="M46 663c0 36 30 58 64 58c32 0 64 -22 64 -58c0 -35 -32 -57 -64 -57c-34 0 -64 22 -64 57zM286 663c0 36 26 58 61 58c34 0 60 -22 60 -58c0 -35 -26 -57 -60 -57c-35 0 -61 22 -61 57z" />
    <glyph glyph-name="copyright" unicode="&#xa9;" horiz-adv-x="784" 
d="M40 350c0 196 145 364 347 364c205 0 340 -170 340 -364c0 -198 -144 -357 -344 -357c-195 0 -343 161 -343 357zM100 354c0 -166 120 -301 287 -301s280 137 280 300c0 162 -115 301 -284 301c-161 0 -283 -143 -283 -300zM380 567c66 0 154 -33 154 -113
c0 -23 -6 -34 -31 -34c-53 0 -53 81 -118 81c-89 0 -99 -78 -99 -151c0 -69 10 -144 96 -144c67 0 67 81 121 81c21 0 31 -20 31 -37c0 -81 -88 -111 -153 -111c-72 0 -168 48 -168 134v154c0 85 92 140 167 140z" />
    <glyph glyph-name="ordfeminine" unicode="&#xaa;" horiz-adv-x="443" 
d="M66 443c0 151 208 81 208 150c0 32 -28 48 -57 48c-40 0 -58 -41 -97 -41c-21 0 -40 11 -40 33c0 64 99 81 144 81c65 0 118 -29 136 -94c1 -32 6 -181 7 -213v-23c0 -14 0 -28 -14 -37c-3 0 -19 -1 -23 -1c-20 0 -37 8 -57 8c-30 0 -56 -15 -88 -15
c-65 0 -119 33 -119 104zM153 450c0 -28 28 -44 54 -44c36 0 67 21 67 59c0 23 -17 35 -40 35c-26 0 -81 -14 -81 -50z" />
    <glyph glyph-name="guillemotleft" unicode="&#xab;" horiz-adv-x="499" 
d="M46 253c0 51 99 194 161 194c18 0 33 -7 33 -27v-7c-14 -23 -81 -109 -81 -160c0 -65 82 -111 82 -173c0 -17 -21 -20 -34 -20c-67 0 -161 140 -161 193zM233 253c0 47 100 194 160 194c17 0 34 -5 34 -23c0 -63 -81 -106 -81 -171s81 -107 81 -170
c0 -19 -17 -23 -33 -23c-59 0 -161 140 -161 193z" />
    <glyph glyph-name="logicalnot" unicode="&#xac;" horiz-adv-x="551" 
d="M60 346c0 14 8 41 27 41h353l20 -20v-167c0 -16 -33 -20 -43 -20c-82 0 -15 130 -90 130h-247c-9 0 -20 29 -20 36z" />
    <glyph glyph-name="uni00AD" unicode="&#xad;" horiz-adv-x="387" 
d="M53 300c0 8 -1 53 20 53h227c26 0 21 -41 21 -53c0 -5 -1 -28 -1 -33c-4 -5 -18 -20 -27 -20h-213c-26 0 -27 38 -27 53z" />
    <glyph glyph-name="registered" unicode="&#xae;" horiz-adv-x="784" 
d="M40 350c0 196 145 364 347 364c205 0 340 -170 340 -364c0 -198 -144 -357 -344 -357c-195 0 -343 161 -343 357zM100 354c0 -166 120 -301 287 -301s280 137 280 300c0 162 -115 301 -284 301c-161 0 -283 -143 -283 -300zM534 443c0 -35 -28 -57 -28 -89
c0 -46 28 -85 28 -134c0 -7 0 -40 -1 -47c-2 -16 -16 -20 -30 -20c-84 0 15 161 -127 161c-26 0 -40 1 -56 -21c0 -16 -5 -90 -7 -106c-2 -19 -14 -34 -33 -34c-8 0 -33 10 -33 20v367c0 9 11 20 20 20h160c60 0 107 -61 107 -117zM320 400l13 -13h80c27 0 48 34 48 56
c0 46 -56 57 -91 57c-11 0 -50 -2 -50 -20v-80z" />
    <glyph glyph-name="macron" unicode="&#xaf;" horiz-adv-x="500" 
d="M73 671c0 20 11 36 34 36h286c22 0 28 -25 28 -40c0 -7 2 -34 -14 -34h-320c-14 0 -14 32 -14 38z" />
    <glyph glyph-name="macron" unicode="&#x2c9;" horiz-adv-x="500" 
d="M73 671c0 20 11 36 34 36h286c22 0 28 -25 28 -40c0 -7 2 -34 -14 -34h-320c-14 0 -14 32 -14 38z" />
    <glyph glyph-name="degree" unicode="&#xb0;" horiz-adv-x="388" 
d="M60 583c0 71 60 131 130 131c72 0 130 -62 130 -134c0 -70 -62 -127 -130 -127c-70 0 -130 59 -130 130zM133 583c0 -32 28 -57 60 -57c31 0 54 27 54 58c0 32 -27 56 -58 56c-30 0 -56 -26 -56 -57z" />
    <glyph glyph-name="plusminus" unicode="&#xb1;" horiz-adv-x="537" 
d="M53 53c0 11 1 54 20 54h380c20 0 21 -43 21 -54c0 -16 -2 -53 -27 -53h-367c-25 0 -27 37 -27 53zM203 593c0 4 21 27 24 27h73c16 0 25 -22 27 -33c1 -16 6 -91 6 -107c2 -7 12 -23 20 -23h107c25 0 27 -47 27 -61c0 -75 -82 -61 -140 -63l-17 -13v-120
c0 -4 -16 -33 -23 -33h-80l-24 20v126c0 9 -16 19 -23 20c-15 1 -85 5 -100 7c-6 1 -33 9 -33 20v73c0 7 13 24 20 24h113l23 23v113z" />
    <glyph glyph-name="twosuperior" unicode="&#xb2;" horiz-adv-x="372" 
d="M33 360c0 101 182 126 182 228c0 24 -12 40 -38 40c-42 0 -58 -48 -104 -48c-18 0 -40 8 -40 29c0 74 89 98 146 98c72 0 141 -33 141 -113c0 -89 -114 -126 -114 -170c0 -3 0 -21 7 -21h94c17 0 27 -32 27 -43c0 -13 -12 -33 -27 -33h-247c-15 0 -27 21 -27 33z" />
    <glyph glyph-name="threesuperior" unicode="&#xb3;" horiz-adv-x="372" 
d="M27 407c0 8 15 23 20 26c4 1 22 1 26 1c42 0 66 -34 107 -34c23 0 48 15 48 40c0 60 -95 24 -95 81c0 46 87 19 87 72c0 26 -23 34 -44 34c-34 0 -61 -21 -96 -21c-4 0 -23 1 -27 1c-14 4 -14 15 -14 26c0 41 54 66 88 74c7 0 42 1 50 1c72 0 144 -22 144 -106
c0 -34 -28 -52 -28 -82c0 -33 34 -53 34 -92c0 -84 -83 -109 -154 -109c-47 0 -146 22 -146 88z" />
    <glyph glyph-name="acute" unicode="&#xb4;" horiz-adv-x="331" 
d="M73 620c0 30 46 120 80 120h107c3 0 7 -9 7 -13c-11 -61 -93 -128 -154 -128c-5 0 -28 1 -33 1c-9 2 -7 14 -7 20z" />
    <glyph glyph-name="mu" unicode="&#xb5;" horiz-adv-x="615" 
d="M397 507c3 3 19 11 23 13h93c5 0 20 -21 20 -27v-460c0 -17 -11 -28 -26 -33c-6 0 -34 -1 -40 -1c-29 0 -53 8 -81 8c-64 0 -68 -22 -153 -14c-7 -2 -30 -16 -30 -26v-154l-16 -13h-100c-5 0 -20 21 -20 27v666c0 6 15 27 20 27h93c7 0 23 -13 23 -20v-293
c0 -58 35 -101 92 -101c42 0 102 20 102 74v327z" />
    <glyph glyph-name="paragraph" unicode="&#xb6;" horiz-adv-x="489" 
d="M39 480c0 173 133 227 284 227h64c12 -4 33 -19 33 -34v-640c0 -32 -30 -34 -53 -34c-10 0 -50 -1 -50 21v193c0 59 -278 12 -278 267z" />
    <glyph glyph-name="periodcentered" unicode="&#xb7;" horiz-adv-x="301" 
d="M73 342c0 44 30 65 72 65c41 0 76 -26 76 -70c0 -42 -33 -71 -73 -71c-48 0 -75 29 -75 76z" />
    <glyph glyph-name="cedilla" unicode="&#xb8;" horiz-adv-x="267" 
d="M66 -188c0 39 41 48 41 82c0 31 -54 31 -54 66c0 34 36 34 60 34c5 0 29 0 34 -1c42 -30 80 -53 80 -108c0 -63 -65 -112 -127 -112c-25 0 -34 18 -34 39z" />
    <glyph glyph-name="onesuperior" unicode="&#xb9;" horiz-adv-x="365" 
d="M133 580c-28 -8 -67 -3 -67 32c0 62 118 82 157 82c18 0 30 -4 30 -27v-314c0 -25 -34 -27 -50 -27c-10 0 -46 -1 -46 21v206c0 5 -22 26 -24 27z" />
    <glyph glyph-name="ordmasculine" unicode="&#xba;" horiz-adv-x="457" 
d="M59 527c0 9 1 51 1 60c23 79 78 127 163 127c119 0 164 -83 164 -191v-63c-19 -81 -83 -121 -161 -121c-119 0 -167 78 -167 188zM140 523c0 -52 20 -116 83 -116s84 64 84 116c0 55 -18 117 -84 117c-65 0 -83 -62 -83 -117z" />
    <glyph glyph-name="guillemotright" unicode="&#xbb;" horiz-adv-x="499" 
d="M59 83c0 2 1 9 1 10c13 22 81 109 81 159c0 66 -81 109 -81 172c0 18 16 23 33 23c63 0 161 -142 161 -194c0 -53 -94 -193 -161 -193c-17 0 -34 4 -34 23zM253 83c0 62 81 104 81 168s-81 110 -81 172c0 17 14 24 30 24c65 0 164 -153 164 -194
c0 -52 -101 -194 -160 -194c-16 0 -34 5 -34 24z" />
    <glyph glyph-name="onequarter" unicode="&#xbc;" horiz-adv-x="717" 
d="M366 121c0 33 22 60 41 86c16 23 96 130 113 153c11 19 36 21 55 21c8 0 55 -2 55 -21v-167c0 -31 44 -46 44 -80s-56 -114 -88 -114c-61 0 -42 78 -86 78h-113c-20 0 -21 33 -21 44zM166 103c0 1 1 3 1 4c9 24 47 84 53 93l233 373c8 13 32 61 57 61c23 0 37 -14 37 -36
c0 -11 2 -23 -7 -31l-267 -427c-8 -13 -33 -73 -66 -73c-17 0 -41 18 -41 36zM480 176c0 -10 10 -16 20 -16c21 0 27 15 27 34c0 11 0 20 -14 20c-15 0 -33 -23 -33 -38zM46 610c0 59 120 84 161 84c11 0 26 -7 26 -21v-326c0 -24 -34 -21 -46 -21c-4 0 -23 0 -27 1
c-2 1 -23 22 -23 26v207c0 38 -91 -2 -91 50z" />
    <glyph glyph-name="onehalf" unicode="&#xbd;" horiz-adv-x="761" 
d="M419 35c0 11 -1 23 8 32l160 160c11 11 14 22 14 36c0 24 -18 38 -41 38c-41 0 -58 -42 -103 -42c-5 0 -26 1 -30 1c-7 5 -14 15 -14 23c0 65 89 104 144 104c81 0 144 -38 144 -123c0 -28 2 -48 -21 -71l-93 -93s-1 -2 -1 -3s1 -3 1 -4c3 -5 12 -16 13 -16h93
c20 0 22 -29 22 -40c0 -12 -1 -37 -22 -37h-253c-21 0 -21 23 -21 35zM146 103c0 1 1 3 1 4c9 24 47 84 53 93l233 373c8 13 32 61 57 61c23 0 37 -14 37 -36c0 -11 2 -23 -7 -31l-267 -427c-8 -13 -33 -73 -66 -73c-17 0 -41 18 -41 36zM40 617c0 57 125 77 156 77
c13 0 31 -2 31 -21v-320c0 -23 -32 -27 -47 -27c-9 0 -50 4 -50 21v213c0 41 -90 -1 -90 57z" />
    <glyph glyph-name="threequarters" unicode="&#xbe;" horiz-adv-x="808" 
d="M710 180c0 -8 44 -53 44 -63c0 -36 -54 -118 -94 -118c-61 0 -35 69 -87 74c-17 2 -96 7 -113 7c-15 11 -21 23 -21 41c0 57 140 260 218 260c13 0 53 -4 53 -28v-173zM246 103c0 1 1 3 1 4c1 4 6 18 6 20l300 480c6 8 24 27 37 27c27 0 37 -17 37 -38
c0 -26 -1 -19 -20 -49l-267 -427c-10 -17 -31 -53 -53 -53c-17 0 -41 18 -41 36zM559 176c0 -13 9 -16 22 -16c14 0 26 20 26 33s-3 21 -17 21c-20 0 -31 -20 -31 -38zM53 408c0 11 -1 20 14 25c4 1 25 1 30 1c41 0 64 -34 103 -34c26 0 48 16 48 43c0 57 -95 24 -95 77
c0 48 88 19 88 73c0 26 -23 34 -45 34c-33 0 -59 -21 -93 -21c-18 0 -43 0 -43 24c0 35 52 77 87 77h106c47 0 94 -55 94 -100c0 -33 -28 -53 -28 -84c0 -34 35 -55 35 -93c0 -82 -90 -111 -158 -111c-51 0 -143 23 -143 89z" />
    <glyph glyph-name="questiondown" unicode="&#xbf;" horiz-adv-x="497" 
d="M33 -3c0 60 182 310 187 310h73c6 0 17 -9 20 -14c0 -4 1 -22 1 -26c0 -116 -141 -158 -141 -267c0 -43 32 -74 74 -74c70 0 78 81 153 81c25 0 67 2 67 -33c0 -116 -126 -161 -220 -161c-116 0 -214 58 -214 184zM186 460c0 45 34 67 76 67c44 0 72 -21 72 -67
s-28 -67 -72 -67c-42 0 -76 22 -76 67z" />
    <glyph glyph-name="Agrave" unicode="&#xc0;" 
d="M13 27v6l227 607c8 22 20 67 53 67h80c22 0 42 -38 47 -54l220 -586c4 -10 13 -38 13 -40c1 -6 -16 -27 -20 -27h-100c-60 0 -33 140 -93 140h-213c-60 0 -34 -140 -94 -140h-100c-14 0 -20 15 -20 27zM259 293c0 -8 0 -26 14 -26h120c13 0 15 15 15 23c0 2 -1 9 -1 10
c-8 24 -45 136 -54 160c-3 10 -8 21 -20 21c-9 0 -16 -3 -20 -14l-53 -160c0 -1 -1 -11 -1 -14zM186 877c0 4 -1 16 7 16h100c35 0 88 -99 88 -123c0 -4 1 -17 -8 -17h-80c-37 0 -107 93 -107 124z" />
    <glyph glyph-name="Aacute" unicode="&#xc1;" 
d="M13 27v6l227 607c8 22 20 67 53 67h80c22 0 42 -38 47 -54l220 -586c4 -10 13 -38 13 -40c1 -6 -16 -27 -20 -27h-100c-60 0 -33 140 -93 140h-213c-60 0 -34 -140 -94 -140h-100c-14 0 -20 15 -20 27zM259 293c0 -8 0 -26 14 -26h120c13 0 15 15 15 23c0 2 -1 9 -1 10
c-8 24 -45 136 -54 160c-3 10 -8 21 -20 21c-9 0 -16 -3 -20 -14l-53 -160c0 -1 -1 -11 -1 -14zM293 773v14c22 39 40 72 74 100c2 2 11 6 13 6h93c2 0 11 -9 14 -13v-3c0 -32 -93 -124 -114 -124h-73c-9 0 -7 18 -7 20z" />
    <glyph glyph-name="Acircumflex" unicode="&#xc2;" 
d="M13 27v6l227 607c8 22 20 67 53 67h80c22 0 42 -38 47 -54l220 -586c4 -10 13 -38 13 -40c1 -6 -16 -27 -20 -27h-100c-60 0 -33 140 -93 140h-213c-60 0 -34 -140 -94 -140h-100c-14 0 -20 15 -20 27zM259 293c0 -8 0 -26 14 -26h120c13 0 15 15 15 23c0 2 -1 9 -1 10
c-8 24 -45 136 -54 160c-3 10 -8 21 -20 21c-9 0 -16 -3 -20 -14l-53 -160c0 -1 -1 -11 -1 -14zM179 777c0 1 1 8 1 10c46 48 87 107 157 107c71 0 108 -63 156 -114c0 -1 1 -6 1 -7c0 -4 0 -13 -7 -13h-74c-28 0 -46 47 -80 47c-44 0 -63 -48 -113 -48c-5 0 -28 1 -33 1
c-9 2 -8 11 -8 17z" />
    <glyph glyph-name="Atilde" unicode="&#xc3;" 
d="M13 27v6l227 607c8 22 20 67 53 67h80c22 0 42 -38 47 -54l220 -586c4 -10 13 -38 13 -40c1 -6 -16 -27 -20 -27h-100c-60 0 -33 140 -93 140h-213c-60 0 -34 -140 -94 -140h-100c-14 0 -20 15 -20 27zM259 293c0 -8 0 -26 14 -26h120c13 0 15 15 15 23c0 2 -1 9 -1 10
c-8 24 -45 136 -54 160c-3 10 -8 21 -20 21c-9 0 -16 -3 -20 -14l-53 -160c0 -1 -1 -11 -1 -14zM159 793c0 54 53 94 102 94c45 0 81 -34 126 -34c36 0 50 41 87 41c14 0 39 -17 39 -34c0 -52 -60 -94 -106 -94s-83 34 -127 34c-32 0 -49 -41 -83 -41c-20 0 -38 13 -38 34z
" />
    <glyph glyph-name="Adieresis" unicode="&#xc4;" 
d="M13 27v6l227 607c8 22 20 67 53 67h80c22 0 42 -38 47 -54l220 -586c4 -10 13 -38 13 -40c1 -6 -16 -27 -20 -27h-100c-60 0 -33 140 -93 140h-213c-60 0 -34 -140 -94 -140h-100c-14 0 -20 15 -20 27zM259 293c0 -8 0 -26 14 -26h120c13 0 15 15 15 23c0 2 -1 9 -1 10
c-8 24 -45 136 -54 160c-3 10 -8 21 -20 21c-9 0 -16 -3 -20 -14l-53 -160c0 -1 -1 -11 -1 -14zM153 817c0 35 30 57 64 57c36 0 57 -29 57 -61c0 -35 -20 -54 -56 -54s-65 19 -65 58zM393 813c0 32 21 61 56 61c33 0 65 -22 65 -56c0 -35 -22 -59 -57 -59
c-39 0 -64 12 -64 54z" />
    <glyph glyph-name="Aring" unicode="&#xc5;" 
d="M13 27v6l227 607c8 22 20 67 53 67h80c22 0 42 -38 47 -54l220 -586c4 -10 13 -38 13 -40c1 -6 -16 -27 -20 -27h-100c-60 0 -33 140 -93 140h-213c-60 0 -34 -140 -94 -140h-100c-14 0 -20 15 -20 27zM259 293c0 -8 0 -26 14 -26h120c13 0 15 15 15 23c0 2 -1 9 -1 10
c-8 24 -45 136 -54 160c-3 10 -8 21 -20 21c-9 0 -16 -3 -20 -14l-53 -160c0 -1 -1 -11 -1 -14zM233 843c0 56 47 97 104 97c55 0 103 -45 103 -100c0 -54 -52 -94 -103 -94c-60 0 -104 38 -104 97zM286 843c0 -23 23 -50 47 -50c32 0 48 23 48 52c0 28 -21 43 -47 43
s-48 -18 -48 -45z" />
    <glyph glyph-name="AE" unicode="&#xc6;" horiz-adv-x="939" 
d="M19 23c0 25 14 39 28 64l313 580c11 18 28 40 53 40h427c34 0 34 -33 34 -57c0 -20 -1 -60 -34 -60h-233l-14 -17v-126c0 -14 27 -30 34 -30h186c25 0 21 -49 21 -57c0 -5 0 -28 -1 -33c-1 -2 -22 -24 -26 -24h-180c-19 0 -27 -33 -27 -45v-11l7 -107
c4 -13 17 -30 33 -30h247c18 0 20 -47 20 -57c0 -16 -2 -53 -27 -53h-387c-58 0 5 153 -53 153h-180c-8 0 -24 -15 -27 -20l-60 -113c-2 -5 -19 -20 -26 -20h-114c-13 0 -14 15 -14 23zM326 307c0 -32 37 -28 61 -28c27 0 56 -2 66 28c0 5 1 31 1 36c0 54 -2 79 -7 144
c2 13 -9 14 -17 14c-15 0 -14 -4 -23 -21c-13 -24 -69 -136 -80 -160c-1 -2 -1 -11 -1 -13z" />
    <glyph glyph-name="Ccedilla" unicode="&#xc7;" horiz-adv-x="654" 
d="M285 -184c0 4 1 17 2 17l40 47v20c-28 21 -57 51 -67 87c-161 75 -220 187 -220 363c0 188 89 364 297 364c122 0 271 -74 271 -215c0 -5 -1 -18 -1 -19l-14 -7h-100l-13 7c-27 74 -65 114 -143 114c-135 0 -151 -136 -151 -244c0 -111 16 -237 151 -237
c115 0 103 121 209 121c21 0 43 4 61 -14v-23c0 -130 -201 -196 -201 -220c0 -31 41 -49 41 -89c0 -65 -62 -115 -127 -115c-27 0 -35 21 -35 43z" />
    <glyph glyph-name="Egrave" unicode="&#xc8;" horiz-adv-x="562" 
d="M534 650c0 -6 0 -60 -21 -60h-273c-37 0 -34 -71 -34 -87c0 -24 -3 -86 41 -86h220c18 0 20 -47 20 -55c0 -21 -4 -59 -34 -59h-220c-13 0 -26 -28 -26 -36v-114c0 -5 11 -36 20 -36h273c33 0 34 -40 34 -60c0 -16 1 -57 -27 -57h-420c-15 0 -27 22 -27 33v634
c0 14 17 40 33 40h407c36 0 34 -34 34 -57zM159 876c0 4 -1 17 8 17h100c33 0 87 -98 87 -120c0 -10 -2 -14 -14 -20c-5 0 -28 -1 -33 -1c-58 0 -148 63 -148 124z" />
    <glyph glyph-name="Eacute" unicode="&#xc9;" horiz-adv-x="562" 
d="M534 650c0 -6 0 -60 -21 -60h-273c-37 0 -34 -71 -34 -87c0 -24 -3 -86 41 -86h220c18 0 20 -47 20 -55c0 -21 -4 -59 -34 -59h-220c-13 0 -26 -28 -26 -36v-114c0 -5 11 -36 20 -36h273c33 0 34 -40 34 -60c0 -16 1 -57 -27 -57h-420c-15 0 -27 22 -27 33v634
c0 14 17 40 33 40h407c36 0 34 -34 34 -57zM260 773c4 27 55 120 87 120h100c4 0 13 -9 13 -13c0 -59 -99 -128 -153 -128c-5 0 -29 1 -34 1c-4 3 -14 15 -13 20z" />
    <glyph glyph-name="Ecircumflex" unicode="&#xca;" horiz-adv-x="562" 
d="M534 650c0 -6 0 -60 -21 -60h-273c-37 0 -34 -71 -34 -87c0 -24 -3 -86 41 -86h220c18 0 20 -47 20 -55c0 -21 -4 -59 -34 -59h-220c-13 0 -26 -28 -26 -36v-114c0 -5 11 -36 20 -36h273c33 0 34 -40 34 -60c0 -16 1 -57 -27 -57h-420c-15 0 -27 22 -27 33v634
c0 14 17 40 33 40h407c36 0 34 -34 34 -57zM160 760c-4 4 -12 11 -14 16c0 58 106 118 161 118c21 0 43 3 60 -14l86 -80c7 -6 14 -14 14 -24v-3c-2 -2 -11 -11 -14 -13c-4 0 -25 -1 -30 -1c-51 0 -72 54 -116 54s-66 -54 -117 -54c-5 0 -26 1 -30 1z" />
    <glyph glyph-name="Edieresis" unicode="&#xcb;" horiz-adv-x="562" 
d="M534 650c0 -6 0 -60 -21 -60h-273c-37 0 -34 -71 -34 -87c0 -24 -3 -86 41 -86h220c18 0 20 -47 20 -55c0 -21 -4 -59 -34 -59h-220c-13 0 -26 -28 -26 -36v-114c0 -5 11 -36 20 -36h273c33 0 34 -40 34 -60c0 -16 1 -57 -27 -57h-420c-15 0 -27 22 -27 33v634
c0 14 17 40 33 40h407c36 0 34 -34 34 -57zM126 817c0 35 26 57 61 57c38 0 61 -25 61 -63c0 -35 -30 -52 -61 -52c-35 0 -61 22 -61 58zM365 818c0 34 26 56 58 56c36 0 64 -20 64 -57s-27 -58 -61 -58c-40 0 -61 20 -61 59z" />
    <glyph glyph-name="Igrave" unicode="&#xcc;" horiz-adv-x="291" 
d="M146 707c16 0 67 3 67 -27v-653c0 -10 -17 -27 -26 -27h-87c-6 0 -27 15 -27 20v660c0 32 58 27 73 27zM-7 867v10c0 3 -1 16 7 16h107c26 0 81 -96 81 -120c0 -27 -27 -20 -48 -20c-69 0 -107 63 -147 114z" />
    <glyph glyph-name="Iacute" unicode="&#xcd;" horiz-adv-x="291" 
d="M146 707c16 0 67 3 67 -27v-653c0 -10 -17 -27 -26 -27h-87c-6 0 -27 15 -27 20v660c0 32 58 27 73 27zM99 774c0 23 55 119 81 119h107c7 0 7 -9 7 -13c0 -28 -86 -127 -114 -127h-73c-10 0 -8 19 -8 21z" />
    <glyph glyph-name="Icircumflex" unicode="&#xce;" horiz-adv-x="291" 
d="M146 707c16 0 67 3 67 -27v-653c0 -10 -17 -27 -26 -27h-87c-6 0 -27 15 -27 20v660c0 32 58 27 73 27zM-14 777c0 1 0 8 1 10c33 35 66 73 106 100c3 2 13 6 14 6h73c29 0 103 -88 120 -106c0 -2 1 -9 1 -10c0 -22 -26 -18 -41 -18c-48 0 -81 60 -120 54
c-47 -6 -64 -54 -117 -54c-4 0 -25 1 -30 1c-8 2 -7 11 -7 17z" />
    <glyph glyph-name="Idieresis" unicode="&#xcf;" horiz-adv-x="291" 
d="M146 707c16 0 67 3 67 -27v-653c0 -10 -17 -27 -26 -27h-87c-6 0 -27 15 -27 20v660c0 32 58 27 73 27zM-41 817c0 35 32 57 64 57c33 0 64 -22 64 -57c0 -36 -31 -58 -64 -58c-32 0 -64 22 -64 58zM199 817c0 37 29 57 65 57c33 0 58 -23 58 -57c0 -38 -28 -58 -62 -58
s-61 22 -61 58z" />
    <glyph glyph-name="Eth" unicode="&#xd0;" horiz-adv-x="664" 
d="M77 20v253c0 45 -71 28 -71 78c0 54 71 42 71 82v254c0 9 31 19 36 20h97c253 0 404 -89 404 -357c0 -161 -92 -350 -281 -350h-233zM227 287v-147c0 -10 11 -19 20 -20c6 0 36 -1 43 -1c140 0 177 114 177 234c0 127 -43 234 -184 234c-8 0 -56 2 -56 -20v-147
c0 -2 9 -11 13 -13c18 -11 75 -13 80 -14c21 -8 21 -19 21 -35c0 -53 -48 -50 -94 -51z" />
    <glyph glyph-name="Ntilde" unicode="&#xd1;" horiz-adv-x="706" 
d="M476 286c5 0 13 6 14 7v380c0 12 27 31 37 34h36c7 0 70 4 70 -20v-667l-20 -20h-106c-66 0 -187 382 -280 413c-1 0 -3 1 -4 1c-15 0 -20 -40 -20 -41v-353c0 -7 -16 -20 -23 -20h-93c-15 0 -27 22 -27 33v634c0 18 17 35 33 40h44c42 0 63 3 90 -34l200 -326
c1 -3 34 -61 49 -61zM173 793c0 50 56 94 102 94s83 -34 128 -34c34 0 52 41 87 41c23 0 37 -16 37 -38c0 -55 -60 -90 -107 -90c-45 0 -77 29 -121 29c-38 0 -50 -35 -86 -35c-20 0 -40 10 -40 33z" />
    <glyph glyph-name="Ograve" unicode="&#xd2;" horiz-adv-x="690" 
d="M40 350c0 181 98 371 304 371c207 0 297 -192 297 -371c0 -190 -92 -357 -301 -357c-203 0 -300 170 -300 357zM187 350c0 -108 27 -237 156 -237c131 0 151 136 151 241c0 101 -23 240 -151 240c-130 0 -156 -141 -156 -244zM193 876c0 4 -1 17 7 17h100
c34 0 87 -93 87 -124c0 -10 0 -17 -14 -22c-4 -1 -25 -1 -30 -1c-56 0 -150 73 -150 130z" />
    <glyph glyph-name="Oacute" unicode="&#xd3;" horiz-adv-x="690" 
d="M40 350c0 174 94 371 295 371c210 0 306 -186 306 -371c0 -190 -92 -357 -301 -357c-203 0 -300 170 -300 357zM187 350c0 -108 27 -237 156 -237c131 0 151 136 151 241c0 101 -23 240 -151 240c-130 0 -156 -141 -156 -244zM299 773c0 2 1 12 1 14c21 39 40 72 73 100
c3 2 12 6 14 6h93c11 0 14 -12 14 -20c0 -1 0 -5 -1 -6c-38 -52 -84 -121 -153 -121c-4 0 -23 0 -27 1c-14 4 -14 15 -14 26z" />
    <glyph glyph-name="Ocircumflex" unicode="&#xd4;" horiz-adv-x="690" 
d="M40 350c0 185 96 364 300 364c209 0 301 -176 301 -364c0 -190 -92 -357 -301 -357c-203 0 -300 170 -300 357zM187 350c0 -108 27 -237 156 -237c131 0 151 136 151 241c0 101 -23 240 -151 240c-130 0 -156 -141 -156 -244zM186 777c0 1 0 8 1 10c47 50 87 107 158 107
c22 0 37 2 55 -14l93 -87c6 -5 7 -13 7 -20c0 -6 1 -11 -7 -13c-5 0 -28 -1 -33 -1c-52 0 -74 48 -120 48h-13c-47 -38 -49 -48 -100 -48c-5 0 -29 1 -34 1c-8 2 -7 11 -7 17z" />
    <glyph glyph-name="Otilde" unicode="&#xd5;" horiz-adv-x="690" 
d="M40 350c0 185 96 364 300 364c209 0 301 -176 301 -364c0 -190 -92 -357 -301 -357c-203 0 -300 170 -300 357zM187 350c0 -108 27 -237 156 -237c131 0 151 136 151 241c0 101 -23 240 -151 240c-130 0 -156 -141 -156 -244zM166 793c0 53 52 94 100 94
c47 0 82 -34 127 -34c37 0 51 41 87 41c21 0 40 -12 40 -34c0 -51 -59 -94 -105 -94s-84 34 -128 34c-33 0 -49 -41 -83 -41c-20 0 -38 13 -38 34z" />
    <glyph glyph-name="Odieresis" unicode="&#xd6;" horiz-adv-x="690" 
d="M40 350c0 185 96 364 300 364c209 0 301 -176 301 -364c0 -190 -92 -357 -301 -357c-203 0 -300 170 -300 357zM187 350c0 -108 27 -237 156 -237c131 0 151 136 151 241c0 101 -23 240 -151 240c-130 0 -156 -141 -156 -244zM159 818c0 34 32 56 65 56
c36 0 57 -29 57 -61c0 -37 -21 -54 -58 -54c-36 0 -64 20 -64 59zM399 813c0 32 21 61 57 61c35 0 65 -22 65 -57c0 -34 -23 -58 -58 -58c-39 0 -64 12 -64 54z" />
    <glyph glyph-name="multiply" unicode="&#xd7;" horiz-adv-x="531" 
d="M47 167c0 1 -1 8 -1 10c0 9 0 15 7 23l100 107c8 8 8 16 8 26c0 2 -1 12 -1 14c-15 15 -85 90 -100 106c-12 14 -14 16 -14 30c0 34 37 65 69 65c4 0 11 -1 12 -1l120 -114h26l120 114c1 0 8 1 12 1c32 0 69 -31 69 -65c0 -14 -2 -16 -14 -30l-93 -100
c-7 -8 -8 -14 -8 -24c0 -14 2 -15 14 -29c14 -15 79 -85 94 -100c7 -8 7 -14 7 -23c0 -2 -1 -9 -1 -10c-9 -11 -40 -54 -67 -54c-60 0 -81 114 -145 114c-10 0 -19 1 -28 -7c-13 -14 -79 -80 -93 -93c-11 -11 -15 -14 -26 -14c-27 0 -58 43 -67 54z" />
    <glyph glyph-name="Oslash" unicode="&#xd8;" horiz-adv-x="688" 
d="M92 -23c0 2 1 9 1 10l34 66v6c0 42 -69 146 -80 208c-1 12 -1 70 -1 83c0 191 90 364 303 364c48 0 90 -21 136 -21c36 0 48 41 85 41c18 0 31 0 31 -20c0 -31 -29 -50 -29 -81c0 -2 1 -11 1 -13c48 -91 74 -167 74 -270c0 -190 -98 -357 -304 -357c-44 0 -81 14 -123 14
h-13c-30 -29 -46 -54 -85 -54c-17 0 -30 5 -30 24zM286 143c0 -18 3 -23 21 -30c6 0 34 -1 40 -1c81 0 146 71 146 155v166c0 11 -11 21 -20 21c-13 0 -18 -6 -26 -21l-154 -260c-8 -14 -7 -12 -7 -30zM193 349c0 -17 -12 -116 30 -116h10c5 6 23 34 27 40l153 260
c2 3 7 17 7 20c0 36 -53 41 -77 41c-129 0 -150 -142 -150 -245z" />
    <glyph glyph-name="Ugrave" unicode="&#xd9;" horiz-adv-x="658" 
d="M167 707c7 0 27 -18 30 -20v-447c0 -78 53 -134 130 -134c49 0 123 35 123 94v473c0 12 27 31 37 34h36c7 0 70 4 70 -20v-500c0 -104 -111 -176 -200 -194h-66c-106 0 -267 52 -267 187v507c0 5 21 20 27 20h80zM173 877v3c3 4 12 13 14 13h93c38 0 87 -86 87 -120
c0 -3 2 -20 -7 -20h-73c-21 0 -114 92 -114 124z" />
    <glyph glyph-name="Uacute" unicode="&#xda;" horiz-adv-x="658" 
d="M167 707c7 0 27 -18 30 -20v-447c0 -78 53 -134 130 -134c49 0 123 35 123 94v473c0 12 27 31 37 34h36c7 0 70 4 70 -20v-500c0 -104 -111 -176 -200 -194h-66c-106 0 -267 52 -267 187v507c0 5 21 20 27 20h80zM280 770c0 24 52 123 87 123h100c8 0 7 -14 7 -17
c0 -29 -73 -123 -107 -123h-80c-9 0 -7 13 -7 17z" />
    <glyph glyph-name="Ucircumflex" unicode="&#xdb;" horiz-adv-x="658" 
d="M167 707c7 0 27 -18 30 -20v-447c0 -78 53 -134 130 -134c49 0 123 35 123 94v473c0 12 27 31 37 34h36c7 0 70 4 70 -20v-500c0 -104 -111 -176 -200 -194h-66c-106 0 -267 52 -267 187v507c0 5 21 20 27 20h80zM166 773c0 57 101 121 155 121c71 0 113 -58 159 -107
c0 -2 1 -9 1 -10c0 -6 1 -15 -8 -17c-5 0 -28 -1 -33 -1c-49 0 -71 48 -112 48c-47 0 -69 -48 -121 -48c-5 0 -29 1 -34 1c-7 2 -7 7 -7 13z" />
    <glyph glyph-name="Udieresis" unicode="&#xdc;" horiz-adv-x="658" 
d="M167 707c7 0 27 -18 30 -20v-447c0 -78 53 -134 130 -134c49 0 123 35 123 94v473c0 12 27 31 37 34h36c7 0 70 4 70 -20v-500c0 -104 -111 -176 -200 -194h-66c-106 0 -267 52 -267 187v507c0 5 21 20 27 20h80zM140 813c0 34 31 61 63 61c33 0 64 -27 64 -61
c0 -36 -31 -54 -64 -54c-30 0 -63 17 -63 54zM379 814c0 36 30 60 64 60c33 0 64 -26 64 -61c0 -36 -33 -54 -64 -54c-33 0 -64 18 -64 55z" />
    <glyph glyph-name="Yacute" unicode="&#xdd;" horiz-adv-x="618" 
d="M230 254l-210 413s-1 9 -1 12c0 17 4 22 21 28h43c166 0 149 -287 224 -287c2 0 12 5 13 7c39 75 74 245 160 280h43c23 0 71 9 71 -28c0 -1 -1 -5 -1 -6l-200 -393c-4 -15 -10 -32 -16 -47v-213c0 -7 -17 -20 -24 -20h-93c-7 0 -16 8 -20 13c-3 4 -10 13 -10 14v227z
M266 773c0 34 49 120 87 120h94c1 0 10 -9 13 -13v-3c0 -24 -88 -124 -113 -124h-74c-9 0 -7 17 -7 20z" />
    <glyph glyph-name="Thorn" unicode="&#xde;" horiz-adv-x="608" 
d="M67 20v667c0 24 58 20 66 20c76 0 72 -28 74 -107c6 -9 15 -17 26 -20c153 -3 334 -32 334 -220c0 -200 -181 -223 -340 -227l-24 -20v-86c0 -1 -7 -10 -10 -14c-4 -5 -13 -13 -20 -13h-86zM207 440v-167c0 -7 21 -18 26 -20h50c71 0 145 18 145 104
c0 47 -33 103 -88 103h-113z" />
    <glyph glyph-name="germandbls" unicode="&#xdf;" horiz-adv-x="630" 
d="M203 20c0 -3 -24 -20 -30 -20h-86l-20 20v560c0 120 126 174 227 174c108 0 200 -58 200 -175c0 -63 -41 -109 -41 -169c0 -100 141 -135 141 -243c0 -80 -66 -174 -154 -174h-133c-29 0 -54 17 -54 45c0 26 3 75 40 75c4 0 30 -6 34 -6c1 0 27 -1 37 -1c44 0 83 9 83 61
c0 95 -134 124 -134 230c0 61 41 106 41 167c0 44 -23 76 -71 76c-36 0 -80 -33 -80 -73v-547z" />
    <glyph glyph-name="agrave" unicode="&#xe0;" horiz-adv-x="536" 
d="M33 145c0 223 301 133 301 211c0 42 -32 71 -73 71c-44 0 -60 -17 -94 -54h-100c-15 0 -15 19 -15 27c0 96 141 134 215 134c89 0 195 -46 206 -147c1 -118 14 -243 14 -362c0 -15 -5 -20 -20 -25c-7 0 -37 -1 -44 -1c-38 0 -62 22 -96 22c-38 0 -75 -28 -118 -28
c-90 0 -176 53 -176 152zM173 160c0 -39 36 -61 70 -61c57 0 91 33 91 90c0 7 0 24 -1 24l-20 20c0 1 -17 1 -24 1c-46 0 -116 -13 -116 -74zM113 727c0 4 4 13 7 13h107c39 0 87 -86 87 -120c0 -10 -2 -14 -14 -20c-5 0 -28 -1 -33 -1c-61 0 -143 67 -154 128z" />
    <glyph glyph-name="aacute" unicode="&#xe1;" horiz-adv-x="536" 
d="M33 145c0 223 301 133 301 211c0 42 -32 71 -73 71c-44 0 -60 -17 -94 -54h-100c-15 0 -15 19 -15 27c0 96 141 134 215 134c89 0 195 -46 206 -147c1 -118 14 -243 14 -362c0 -15 -5 -20 -20 -25c-7 0 -37 -1 -44 -1c-38 0 -62 22 -96 22c-38 0 -75 -28 -118 -28
c-90 0 -176 53 -176 152zM173 160c0 -39 36 -61 70 -61c57 0 91 33 91 90c0 7 0 24 -1 24l-20 20c0 1 -17 1 -24 1c-46 0 -116 -13 -116 -74zM220 620c0 34 47 120 87 120h100c8 0 7 -14 7 -17c0 -60 -91 -124 -147 -124c-5 0 -29 1 -34 1c-11 6 -13 10 -13 20z" />
    <glyph glyph-name="acircumflex" unicode="&#xe2;" horiz-adv-x="536" 
d="M33 145c0 223 301 133 301 211c0 42 -32 71 -73 71c-44 0 -60 -17 -94 -54h-100c-15 0 -15 19 -15 27c0 96 141 134 215 134c89 0 195 -46 206 -147c1 -118 14 -243 14 -362c0 -15 -5 -20 -20 -25c-7 0 -37 -1 -44 -1c-38 0 -62 22 -96 22c-38 0 -75 -28 -118 -28
c-90 0 -176 53 -176 152zM173 160c0 -39 36 -61 70 -61c57 0 91 33 91 90c0 7 0 24 -1 24l-20 20c0 1 -17 1 -24 1c-46 0 -116 -13 -116 -74zM106 627c0 1 0 5 1 6c28 30 80 97 120 107c5 0 31 1 36 1c22 0 46 3 64 -14l93 -94s1 -6 1 -8c0 -6 1 -16 -8 -18
c-4 -1 -25 -1 -30 -1c-51 0 -75 54 -120 54c-40 0 -67 -54 -116 -54c-4 0 -23 1 -27 1c-11 5 -14 10 -14 20z" />
    <glyph glyph-name="atilde" unicode="&#xe3;" horiz-adv-x="536" 
d="M33 145c0 223 301 133 301 211c0 42 -32 71 -73 71c-44 0 -60 -17 -94 -54h-100c-15 0 -15 19 -15 27c0 96 141 134 215 134c89 0 195 -46 206 -147c1 -118 14 -243 14 -362c0 -15 -5 -20 -20 -25c-7 0 -37 -1 -44 -1c-38 0 -62 22 -96 22c-38 0 -75 -28 -118 -28
c-90 0 -176 53 -176 152zM173 160c0 -39 36 -61 70 -61c57 0 91 33 91 90c0 7 0 24 -1 24l-20 20c0 1 -17 1 -24 1c-46 0 -116 -13 -116 -74zM93 645c0 58 51 89 103 89c43 0 74 -28 116 -28c38 0 54 35 91 35c26 0 38 -9 38 -35c0 -50 -56 -93 -104 -93
c-44 0 -81 34 -124 34c-35 0 -51 -34 -88 -34c-25 0 -32 7 -32 32z" />
    <glyph glyph-name="adieresis" unicode="&#xe4;" horiz-adv-x="536" 
d="M33 145c0 223 301 133 301 211c0 42 -32 71 -73 71c-44 0 -60 -17 -94 -54h-100c-15 0 -15 19 -15 27c0 96 141 134 215 134c89 0 195 -46 206 -147c1 -118 14 -243 14 -362c0 -15 -5 -20 -20 -25c-7 0 -37 -1 -44 -1c-38 0 -62 22 -96 22c-38 0 -75 -28 -118 -28
c-90 0 -176 53 -176 152zM173 160c0 -39 36 -61 70 -61c57 0 91 33 91 90c0 7 0 24 -1 24l-20 20c0 1 -17 1 -24 1c-46 0 -116 -13 -116 -74zM85 663c0 38 27 58 62 58c34 0 60 -22 60 -58c0 -35 -26 -57 -60 -57c-35 0 -62 20 -62 57zM320 663c0 36 31 58 63 58
c35 0 64 -22 64 -58s-27 -57 -61 -57c-33 0 -66 20 -66 57z" />
    <glyph glyph-name="aring" unicode="&#xe5;" horiz-adv-x="536" 
d="M33 145c0 223 301 133 301 211c0 42 -32 71 -73 71c-44 0 -60 -17 -94 -54h-100c-15 0 -15 19 -15 27c0 96 141 134 215 134c89 0 195 -46 206 -147c1 -118 14 -243 14 -362c0 -15 -5 -20 -20 -25c-7 0 -37 -1 -44 -1c-38 0 -62 22 -96 22c-38 0 -75 -28 -118 -28
c-90 0 -176 53 -176 152zM173 160c0 -39 36 -61 70 -61c57 0 91 33 91 90c0 7 0 24 -1 24l-20 20c0 1 -17 1 -24 1c-46 0 -116 -13 -116 -74zM160 690c0 56 54 97 107 97c56 0 107 -42 107 -100c0 -55 -57 -94 -107 -94c-53 0 -107 41 -107 97zM218 690c0 -28 21 -45 49 -45
c27 0 48 17 48 45s-21 45 -48 45c-28 0 -49 -17 -49 -45z" />
    <glyph glyph-name="ae" unicode="&#xe6;" horiz-adv-x="844" 
d="M33 154c0 208 314 123 314 196c0 47 -39 64 -79 64c-48 0 -59 -34 -101 -47c-6 0 -31 -1 -37 -1c-25 0 -77 -5 -77 34c0 97 145 134 220 134c57 0 109 -41 160 -41c53 0 100 41 157 41c144 0 224 -110 224 -247c0 -6 -1 -34 -1 -40c-2 -8 -16 -30 -26 -30h-267
c-12 0 -20 -21 -20 -31c0 -68 81 -80 129 -80c41 0 76 15 115 15c31 0 44 -31 44 -59c0 -68 -136 -69 -178 -69c-79 0 -133 48 -193 48s-112 -48 -190 -48c-106 0 -194 45 -194 161zM173 150c0 -39 45 -57 77 -57c49 0 97 23 97 77c0 42 -16 51 -56 51
c-43 0 -118 -11 -118 -71zM499 340c0 -2 1 -6 1 -7c4 -6 18 -20 20 -20h127c12 0 27 19 27 30c0 49 -40 71 -82 71c-41 0 -93 -25 -93 -74z" />
    <glyph glyph-name="ccedilla" unicode="&#xe7;" horiz-adv-x="521" 
d="M340 -20v-7c24 -25 47 -50 47 -86c0 -68 -71 -114 -134 -114c-23 0 -33 20 -33 40c0 35 41 46 41 79c0 31 -35 30 -48 55c-73 147 -180 87 -180 313c0 147 77 274 237 274c93 0 217 -61 217 -171c0 -7 -12 -30 -20 -30h-87c-24 0 -45 81 -112 81c-87 0 -95 -84 -95 -154
c0 -74 11 -154 99 -154c66 0 75 67 108 67h87c13 0 20 -15 20 -26c0 -70 -83 -132 -140 -154c-2 -2 -6 -11 -7 -13z" />
    <glyph glyph-name="egrave" unicode="&#xe8;" horiz-adv-x="540" 
d="M33 253c0 144 85 281 244 281c146 0 230 -109 230 -247v-47c-2 -7 -12 -23 -20 -23h-274c-9 0 -27 -22 -27 -30c0 -56 73 -81 117 -81c49 0 84 35 128 35c2 0 9 -1 9 -1l40 -40v-33c0 -65 -151 -74 -187 -74c-153 0 -260 103 -260 260zM186 340c0 -10 16 -27 21 -27h140
c17 0 20 18 20 30c0 50 -46 71 -87 71s-94 -24 -94 -74zM113 713v10c0 4 -1 17 7 17h107c26 0 81 -97 81 -120c0 -27 -27 -21 -48 -21c-69 0 -107 63 -147 114z" />
    <glyph glyph-name="eacute" unicode="&#xe9;" horiz-adv-x="540" 
d="M33 253c0 144 85 281 244 281c146 0 230 -109 230 -247v-47c-2 -7 -12 -23 -20 -23h-274c-9 0 -27 -22 -27 -30c0 -56 73 -81 117 -81c49 0 84 35 128 35c2 0 9 -1 9 -1l40 -40v-33c0 -65 -151 -74 -187 -74c-153 0 -260 103 -260 260zM186 340c0 -10 16 -27 21 -27h140
c17 0 20 18 20 30c0 50 -46 71 -87 71s-94 -24 -94 -74zM219 619c0 35 48 99 61 108l20 13h107c7 0 7 -9 7 -13c0 -56 -93 -128 -147 -128c-20 0 -48 -6 -48 20z" />
    <glyph glyph-name="ecircumflex" unicode="&#xea;" horiz-adv-x="540" 
d="M33 253c0 144 85 281 244 281c146 0 230 -109 230 -247v-47c-2 -7 -12 -23 -20 -23h-274c-9 0 -27 -22 -27 -30c0 -56 73 -81 117 -81c49 0 84 35 128 35c2 0 9 -1 9 -1l40 -40v-33c0 -65 -151 -74 -187 -74c-153 0 -260 103 -260 260zM186 340c0 -10 16 -27 21 -27h140
c17 0 20 18 20 30c0 50 -46 71 -87 71s-94 -24 -94 -74zM106 623c0 2 0 9 1 10c39 43 63 74 106 100c4 2 13 7 14 7h73c28 0 109 -95 120 -107c0 -1 1 -8 1 -10c0 -21 -26 -17 -41 -17c-50 0 -75 54 -117 54c-43 0 -66 -54 -115 -54c-15 0 -42 -5 -42 17z" />
    <glyph glyph-name="edieresis" unicode="&#xeb;" horiz-adv-x="540" 
d="M33 253c0 144 85 281 244 281c146 0 230 -109 230 -247v-47c-2 -7 -12 -23 -20 -23h-274c-9 0 -27 -22 -27 -30c0 -56 73 -81 117 -81c49 0 84 35 128 35c2 0 9 -1 9 -1l40 -40v-33c0 -65 -151 -74 -187 -74c-153 0 -260 103 -260 260zM186 340c0 -10 16 -27 21 -27h140
c17 0 20 18 20 30c0 50 -46 71 -87 71s-94 -24 -94 -74zM79 663c0 38 30 58 65 58c32 0 63 -23 63 -58c0 -33 -33 -57 -63 -57c-36 0 -65 20 -65 57zM319 663c0 36 27 58 61 58s61 -22 61 -58c0 -35 -27 -57 -61 -57s-61 22 -61 57z" />
    <glyph glyph-name="igrave" unicode="&#xec;" horiz-adv-x="273" 
d="M67 20v480c0 9 11 20 20 20h93l20 -20v-480c0 -5 -21 -20 -27 -20h-86zM87 600c-12 11 -63 62 -74 73c-20 22 -27 23 -27 43c0 3 -1 17 7 17h107c2 0 21 -18 27 -26c8 -12 46 -68 53 -80c0 -2 1 -9 1 -10c0 -11 -1 -18 -14 -24h-34c-8 0 -36 -4 -46 7z" />
    <glyph glyph-name="iacute" unicode="&#xed;" horiz-adv-x="273" 
d="M67 20v480c0 9 11 20 20 20h93l20 -20v-480c0 -5 -21 -20 -27 -20h-86zM93 613c0 29 45 120 80 120h107c1 0 5 -9 7 -13v-3c0 -52 -101 -125 -154 -125c-5 0 -28 1 -33 1c-9 2 -7 15 -7 20z" />
    <glyph glyph-name="icircumflex" unicode="&#xee;" horiz-adv-x="273" 
d="M67 20v480c0 9 11 20 20 20h93l20 -20v-480c0 -5 -21 -20 -27 -20h-86zM294 616c-2 -5 -10 -12 -14 -16c-4 0 -25 -1 -30 -1c-45 0 -81 59 -117 54c-46 -6 -63 -54 -116 -54c-5 0 -26 1 -30 1c-10 2 -8 15 -8 20c0 2 1 11 1 13c34 33 66 69 107 94c3 2 12 6 13 6h73
c24 0 121 -82 121 -117z" />
    <glyph glyph-name="idieresis" unicode="&#xef;" horiz-adv-x="273" 
d="M67 20v480c0 9 11 20 20 20h93l20 -20v-480c0 -5 -21 -20 -27 -20h-86zM-47 657c0 37 28 57 64 57c33 0 58 -23 58 -57c0 -38 -27 -58 -62 -58c-34 0 -60 22 -60 58zM191 657c0 34 26 57 59 57c35 0 64 -20 64 -57c0 -36 -26 -58 -61 -58c-34 0 -62 20 -62 58z" />
    <glyph glyph-name="eth" unicode="&#xf0;" horiz-adv-x="575" 
d="M40 230c0 128 83 237 216 237c27 0 52 -7 78 -7c12 0 20 0 20 13c0 28 -35 74 -64 74s-48 -28 -77 -28c-14 0 -33 11 -33 28c0 21 34 34 34 57c0 41 -88 29 -88 75c0 29 18 81 54 81c47 0 138 -52 167 -67c2 0 11 -1 13 -1c26 0 43 22 70 22c20 0 31 -7 31 -28
c0 -26 -29 -33 -29 -59c0 -38 53 -90 68 -127c27 -67 34 -129 34 -200c0 -160 -77 -307 -254 -307c-137 0 -240 95 -240 237zM180 227c0 -67 40 -121 108 -121c88 0 106 98 106 168c0 65 -43 80 -101 80c-6 0 -34 0 -40 -1c-53 -17 -73 -75 -73 -126z" />
    <glyph glyph-name="ntilde" unicode="&#xf1;" horiz-adv-x="560" 
d="M53 20v480c0 9 11 20 20 20h87c5 -4 30 -27 43 -27c43 0 86 41 134 41c85 0 163 -64 163 -154v-360c0 -5 -21 -20 -27 -20h-86l-24 20v333c0 48 -51 61 -85 61c-23 0 -88 -12 -88 -47v-340c0 -1 -7 -10 -10 -14c-4 -5 -13 -13 -20 -13h-87zM100 639c0 59 56 96 108 96
c43 0 75 -29 117 -29c39 0 56 35 93 35c19 0 36 -9 36 -30c0 -55 -55 -98 -107 -98c-46 0 -81 34 -126 34c-33 0 -46 -35 -81 -35c-17 0 -40 4 -40 27z" />
    <glyph glyph-name="ograve" unicode="&#xf2;" horiz-adv-x="565" 
d="M33 256c0 148 82 278 244 278c157 0 250 -121 250 -270c0 -126 -55 -237 -187 -271h-60c-158 0 -247 108 -247 263zM173 260c0 -75 19 -154 107 -154c86 0 107 82 107 154c0 75 -22 154 -109 154s-105 -81 -105 -154zM126 723c0 1 1 3 1 4c1 4 6 13 6 13h107
c39 0 87 -87 87 -120c0 -5 -9 -17 -14 -20c-5 0 -28 -1 -33 -1c-51 0 -154 74 -154 124z" />
    <glyph glyph-name="oacute" unicode="&#xf3;" horiz-adv-x="565" 
d="M33 256c0 148 82 278 244 278c157 0 250 -121 250 -270c0 -126 -55 -237 -187 -271h-60c-158 0 -247 108 -247 263zM173 260c0 -75 19 -154 107 -154c86 0 107 82 107 154c0 75 -22 154 -109 154s-105 -81 -105 -154zM233 620c0 23 57 120 80 120h107c8 0 7 -13 7 -17
v-10c-39 -52 -78 -114 -147 -114c-5 0 -28 1 -33 1c-12 6 -14 10 -14 20z" />
    <glyph glyph-name="ocircumflex" unicode="&#xf4;" horiz-adv-x="565" 
d="M33 256c0 148 82 278 244 278c157 0 250 -121 250 -270c0 -126 -55 -237 -187 -271h-60c-158 0 -247 108 -247 263zM173 260c0 -75 19 -154 107 -154c86 0 107 82 107 154c0 75 -22 154 -109 154s-105 -81 -105 -154zM119 627c0 1 1 5 1 6c17 18 91 107 120 107h73
c1 0 10 -5 14 -7c43 -26 67 -57 106 -100c1 -1 1 -8 1 -10c0 -22 -27 -17 -42 -17c-49 0 -72 54 -115 54c-41 0 -67 -54 -117 -54c-4 0 -23 1 -27 1c-10 5 -14 10 -14 20z" />
    <glyph glyph-name="otilde" unicode="&#xf5;" horiz-adv-x="565" 
d="M33 256c0 148 82 278 244 278c157 0 250 -121 250 -270c0 -126 -55 -237 -187 -271h-60c-158 0 -247 108 -247 263zM173 260c0 -75 19 -154 107 -154c86 0 107 82 107 154c0 75 -22 154 -109 154s-105 -81 -105 -154zM100 639c0 59 56 96 108 96c43 0 75 -29 117 -29
c39 0 56 35 93 35c19 0 36 -9 36 -30c0 -55 -55 -98 -107 -98c-46 0 -81 34 -126 34c-33 0 -46 -35 -81 -35c-17 0 -40 4 -40 27z" />
    <glyph glyph-name="odieresis" unicode="&#xf6;" horiz-adv-x="565" 
d="M33 256c0 148 82 278 244 278c157 0 250 -121 250 -270c0 -126 -55 -237 -187 -271h-60c-158 0 -247 108 -247 263zM173 260c0 -75 19 -154 107 -154c86 0 107 82 107 154c0 75 -22 154 -109 154s-105 -81 -105 -154zM93 663c0 36 36 58 67 58c34 0 61 -22 61 -58
c0 -37 -29 -57 -65 -57c-30 0 -63 24 -63 57zM333 663c0 36 31 58 64 58c32 0 64 -22 64 -58c0 -37 -33 -57 -67 -57c-32 0 -61 21 -61 57z" />
    <glyph glyph-name="divide" unicode="&#xf7;" horiz-adv-x="570" 
d="M206 130c0 42 28 71 70 71c44 0 78 -23 78 -69c0 -48 -31 -66 -76 -66c-44 0 -72 17 -72 64zM33 333v34c4 5 18 20 27 20h433c32 0 34 -30 34 -54c0 -8 1 -53 -20 -53h-454c-26 0 -20 41 -20 53zM206 530c0 40 29 70 70 70c42 0 78 -26 78 -69c0 -48 -32 -72 -78 -72
c-42 0 -70 29 -70 71z" />
    <glyph glyph-name="oslash" unicode="&#xf8;" horiz-adv-x="564" 
d="M99 -44c0 22 15 38 15 60c0 65 -81 128 -81 240c0 204 134 286 327 277c33 12 35 54 74 54c18 0 27 -9 27 -26c0 -24 -15 -42 -15 -66c0 -37 81 -128 81 -231c0 -102 -55 -274 -187 -274h-140l-53 -57c-1 0 -11 -1 -15 -1c-17 0 -33 4 -33 24zM266 132
c0 -23 1 -26 23 -26c82 0 98 91 98 155c0 14 5 60 -21 60c-9 0 -14 -3 -19 -14l-80 -160c-1 -1 -1 -11 -1 -15zM173 213c4 -10 9 -20 21 -20c9 0 14 2 19 14l87 173c0 1 1 7 1 10c0 21 -16 24 -34 24c-80 0 -94 -93 -94 -154v-47z" />
    <glyph glyph-name="ugrave" unicode="&#xf9;" horiz-adv-x="559" 
d="M167 520c3 -3 23 -21 23 -27v-333c0 -41 52 -54 82 -54c26 0 91 18 91 54v340l24 20h93l20 -20v-480c0 -7 -21 -18 -27 -20c-5 0 -31 -1 -36 -1c-36 0 -57 22 -90 22c-28 0 -47 -28 -74 -28h-100c-57 0 -120 77 -120 134v373c0 9 11 20 20 20h94zM126 727c0 4 0 13 7 13
h107l20 -13c12 -8 61 -72 61 -107c0 -3 2 -20 -8 -20h-73c-26 0 -114 96 -114 127z" />
    <glyph glyph-name="uacute" unicode="&#xfa;" horiz-adv-x="559" 
d="M167 520c3 -3 23 -21 23 -27v-333c0 -41 52 -54 82 -54c26 0 91 18 91 54v340l24 20h93l20 -20v-480c0 -7 -21 -18 -27 -20c-5 0 -31 -1 -36 -1c-36 0 -57 22 -90 22c-28 0 -47 -28 -74 -28h-100c-57 0 -120 77 -120 134v373c0 9 11 20 20 20h94zM232 620
c0 23 55 120 81 120h107c7 0 7 -9 7 -13c0 -57 -93 -128 -147 -128c-21 0 -48 -6 -48 21z" />
    <glyph glyph-name="ucircumflex" unicode="&#xfb;" horiz-adv-x="559" 
d="M167 520c3 -3 23 -21 23 -27v-333c0 -41 52 -54 82 -54c26 0 91 18 91 54v340l24 20h93l20 -20v-480c0 -7 -21 -18 -27 -20c-5 0 -31 -1 -36 -1c-36 0 -57 22 -90 22c-28 0 -47 -28 -74 -28h-100c-57 0 -120 77 -120 134v373c0 9 11 20 20 20h94zM119 623c0 2 1 9 1 10
c33 36 66 73 107 100c3 2 12 7 13 7h73c2 0 11 -5 14 -7c39 -28 74 -66 106 -100c1 -1 1 -8 1 -10c0 -21 -25 -17 -40 -17c-50 0 -75 54 -117 54s-68 -54 -115 -54c-16 0 -43 -5 -43 17z" />
    <glyph glyph-name="udieresis" unicode="&#xfc;" horiz-adv-x="559" 
d="M167 520c3 -3 23 -21 23 -27v-333c0 -41 52 -54 82 -54c26 0 91 18 91 54v340l24 20h93l20 -20v-480c0 -7 -21 -18 -27 -20c-5 0 -31 -1 -36 -1c-36 0 -57 22 -90 22c-28 0 -47 -28 -74 -28h-100c-57 0 -120 77 -120 134v373c0 9 11 20 20 20h94zM93 663
c0 36 31 58 64 58c32 0 64 -22 64 -58c0 -35 -32 -57 -64 -57c-33 0 -64 22 -64 57zM333 663c0 36 26 58 60 58c35 0 62 -20 62 -58c0 -37 -27 -57 -62 -57c-34 0 -60 22 -60 57z" />
    <glyph glyph-name="yacute" unicode="&#xfd;" horiz-adv-x="501" 
d="M59 -157c0 88 116 52 116 155c0 5 -1 21 -2 22l-160 467v10c0 8 1 23 14 23h106c35 0 88 -232 100 -267c3 -7 8 -7 14 -7c49 0 60 274 120 274h100c14 0 14 -19 14 -27c0 -2 -1 -11 -1 -13l-180 -520c-32 -91 -75 -174 -184 -174c-45 0 -57 13 -57 57zM206 620
c0 27 53 120 81 120h106c9 0 8 -13 8 -17c0 -1 -1 -8 -1 -10c-39 -52 -77 -114 -147 -114c-5 0 -28 1 -33 1c-11 6 -14 10 -14 20z" />
    <glyph glyph-name="thorn" unicode="&#xfe;" horiz-adv-x="567" 
d="M220 513c35 0 67 21 103 21c148 0 204 -145 204 -271c0 -132 -59 -271 -207 -271c-38 0 -68 22 -103 22c-14 0 -27 -14 -27 -27v-174l-17 -13h-100c-5 0 -20 21 -20 27v886c0 6 15 27 20 27h100c8 0 24 -30 24 -33v-187c0 -9 21 -7 23 -7zM284 414c-27 0 -84 -7 -84 -47
v-214c0 -35 57 -47 82 -47c46 0 98 33 98 87v134c0 50 -52 87 -96 87z" />
    <glyph glyph-name="ydieresis" unicode="&#xff;" horiz-adv-x="501" 
d="M59 -157c0 88 116 52 116 155c0 5 -1 21 -2 22l-160 467v10c0 8 1 23 14 23h106c35 0 88 -232 100 -267c3 -7 8 -7 14 -7c49 0 60 274 120 274h100c14 0 14 -19 14 -27c0 -2 -1 -11 -1 -13l-180 -520c-32 -91 -75 -174 -184 -174c-45 0 -57 13 -57 57zM66 663
c0 36 31 58 64 58s64 -22 64 -58c0 -35 -31 -57 -64 -57s-64 22 -64 57zM306 663c0 36 26 58 61 58c34 0 62 -20 62 -58c0 -37 -28 -57 -62 -57c-35 0 -61 22 -61 57z" />
    <glyph glyph-name="Amacron" unicode="&#x100;" 
d="M13 27v6l227 607c8 22 20 67 53 67h80c22 0 42 -38 47 -54l220 -586c4 -10 13 -38 13 -40c1 -6 -16 -27 -20 -27h-100c-60 0 -33 140 -93 140h-213c-60 0 -34 -140 -94 -140h-100c-14 0 -20 15 -20 27zM259 293c0 -8 0 -26 14 -26h120c13 0 15 15 15 23c0 2 -1 9 -1 10
c-8 24 -45 136 -54 160c-3 10 -8 21 -20 21c-9 0 -16 -3 -20 -14l-53 -160c0 -1 -1 -11 -1 -14zM159 821c0 12 1 32 21 32h307c17 0 27 -24 27 -36c0 -13 -10 -37 -27 -37h-300c-20 0 -28 27 -28 41z" />
    <glyph glyph-name="amacron" unicode="&#x101;" horiz-adv-x="536" 
d="M33 145c0 223 301 133 301 211c0 42 -32 71 -73 71c-44 0 -60 -17 -94 -54h-100c-15 0 -15 19 -15 27c0 96 141 134 215 134c89 0 195 -46 206 -147c1 -118 14 -243 14 -362c0 -15 -5 -20 -20 -25c-7 0 -37 -1 -44 -1c-38 0 -62 22 -96 22c-38 0 -75 -28 -118 -28
c-90 0 -176 53 -176 152zM173 160c0 -39 36 -61 70 -61c57 0 91 33 91 90c0 7 0 24 -1 24l-20 20c0 1 -17 1 -24 1c-46 0 -116 -13 -116 -74zM93 671c0 20 11 36 34 36h286c22 0 28 -25 28 -40c0 -7 2 -34 -14 -34h-320c-14 0 -14 32 -14 38z" />
    <glyph glyph-name="Abreve" unicode="&#x102;" 
d="M13 27v6l227 607c8 22 20 67 53 67h80c22 0 42 -38 47 -54l220 -586c4 -10 13 -38 13 -40c1 -6 -16 -27 -20 -27h-100c-60 0 -33 140 -93 140h-213c-60 0 -34 -140 -94 -140h-100c-14 0 -20 15 -20 27zM259 293c0 -8 0 -26 14 -26h120c13 0 15 15 15 23c0 2 -1 9 -1 10
c-8 24 -45 136 -54 160c-3 10 -8 21 -20 21c-9 0 -16 -3 -20 -14l-53 -160c0 -1 -1 -11 -1 -14zM173 860c0 10 5 21 14 27h30c55 0 65 -54 117 -54c54 0 64 56 116 56c5 0 26 -2 30 -2c16 -5 14 -18 14 -29c0 -76 -95 -105 -155 -105s-166 25 -166 107z" />
    <glyph glyph-name="abreve" unicode="&#x103;" horiz-adv-x="536" 
d="M33 145c0 223 301 133 301 211c0 42 -32 71 -73 71c-44 0 -60 -17 -94 -54h-100c-15 0 -15 19 -15 27c0 96 141 134 215 134c89 0 195 -46 206 -147c1 -118 14 -243 14 -362c0 -15 -5 -20 -20 -25c-7 0 -37 -1 -44 -1c-38 0 -62 22 -96 22c-38 0 -75 -28 -118 -28
c-90 0 -176 53 -176 152zM173 160c0 -39 36 -61 70 -61c57 0 91 33 91 90c0 7 0 24 -1 24l-20 20c0 1 -17 1 -24 1c-46 0 -116 -13 -116 -74zM106 707c0 26 23 34 45 34c52 0 64 -61 116 -61c51 0 64 61 117 61c18 0 43 -7 43 -30c0 -78 -98 -112 -160 -112
s-161 31 -161 108z" />
    <glyph glyph-name="Aogonek" unicode="&#x104;" 
d="M446 -107c0 51 54 81 54 127c0 24 -20 120 -60 120h-213c-60 0 -34 -140 -94 -140h-100c-14 0 -20 15 -20 27v6l227 607c8 22 20 67 53 67h80c22 0 42 -38 47 -54l220 -586c4 -11 13 -39 13 -40c5 -44 -94 -54 -94 -112c0 -45 68 -27 68 -74c0 -39 -36 -48 -70 -48
c-59 0 -111 39 -111 100zM259 293c0 -8 0 -26 14 -26h120c13 0 15 15 15 23c0 2 -1 9 -1 10c-8 24 -45 136 -54 160c-3 10 -8 21 -20 21c-9 0 -16 -3 -20 -14l-53 -160c0 -1 -1 -11 -1 -14z" />
    <glyph glyph-name="aogonek" unicode="&#x105;" horiz-adv-x="536" 
d="M299 -107c0 45 42 73 42 110c0 10 0 17 -14 17c-39 0 -75 -27 -118 -27c-90 0 -176 53 -176 152c0 223 301 133 301 211c0 42 -32 71 -73 71c-44 0 -60 -17 -94 -54h-100l-14 7c0 1 -1 10 -1 14c0 100 135 140 215 140c89 0 195 -46 206 -147c1 -118 14 -243 14 -362
c0 -46 -81 -56 -81 -108c0 -47 74 -28 74 -77c0 -38 -44 -47 -73 -47c-63 0 -108 37 -108 100zM173 160c0 -39 36 -61 70 -61c51 0 91 28 91 81c0 24 0 38 -21 53c-4 0 -25 1 -30 1c-45 0 -110 -16 -110 -74z" />
    <glyph glyph-name="Cacute" unicode="&#x106;" horiz-adv-x="654" 
d="M40 350c0 188 89 364 297 364c122 0 271 -74 271 -215c0 -5 -1 -18 -1 -19l-14 -7h-100l-13 7c-27 74 -65 114 -143 114c-135 0 -151 -136 -151 -244c0 -111 16 -237 151 -237c115 0 103 121 209 121c21 0 43 4 61 -14v-23c0 -94 -109 -204 -207 -204h-133
c-172 0 -227 229 -227 357zM286 777c0 69 83 124 141 124c6 0 34 -1 40 -1c15 4 14 -13 14 -20c0 -23 -7 -24 -28 -47c-10 -11 -62 -62 -73 -73c-14 -9 -31 -7 -47 -7c-17 0 -47 -3 -47 24z" />
    <glyph glyph-name="cacute" unicode="&#x107;" horiz-adv-x="521" 
d="M33 260c0 147 77 274 237 274c93 0 217 -61 217 -171c0 -7 -12 -30 -20 -30h-87c-24 0 -45 81 -112 81c-87 0 -95 -84 -95 -154c0 -74 11 -154 99 -154c66 0 75 67 108 67h87c13 0 20 -15 20 -26c0 -69 -93 -154 -160 -154h-114c-132 0 -180 166 -180 267zM213 620
c0 23 57 120 80 120h107c8 0 7 -13 7 -17v-10c-39 -52 -78 -114 -147 -114c-5 0 -28 1 -33 1c-12 6 -14 10 -14 20z" />
    <glyph glyph-name="Ccircumflex" unicode="&#x108;" horiz-adv-x="654" 
d="M40 350c0 188 89 364 297 364c122 0 271 -74 271 -215c0 -5 -1 -18 -1 -19l-14 -7h-100l-13 7c-27 74 -65 114 -143 114c-135 0 -151 -136 -151 -244c0 -111 16 -237 151 -237c115 0 103 121 209 121c21 0 43 4 61 -14v-23c0 -94 -109 -204 -207 -204h-133
c-172 0 -227 229 -227 357zM173 780v7c41 43 93 114 160 114c55 0 155 -69 155 -121c0 -24 -18 -21 -38 -21c-50 0 -74 55 -117 55s-70 -55 -120 -55c-14 0 -40 1 -40 21z" />
    <glyph glyph-name="ccircumflex" unicode="&#x109;" horiz-adv-x="521" 
d="M33 260c0 147 77 274 237 274c93 0 217 -61 217 -171c0 -7 -12 -30 -20 -30h-87c-24 0 -45 81 -112 81c-87 0 -95 -84 -95 -154c0 -74 11 -154 99 -154c66 0 75 67 108 67h87c13 0 20 -15 20 -26c0 -69 -93 -154 -160 -154h-114c-132 0 -180 166 -180 267zM99 623
c0 2 1 9 1 10c32 34 69 72 107 100c2 2 12 7 13 7h73c1 0 10 -5 14 -7c43 -26 67 -57 106 -100c1 -1 1 -8 1 -10c0 -22 -27 -17 -42 -17c-49 0 -72 54 -115 54c-42 0 -67 -54 -117 -54c-15 0 -41 -4 -41 17z" />
    <glyph glyph-name="uni010A" unicode="&#x10a;" horiz-adv-x="654" 
d="M40 350c0 188 89 364 297 364c122 0 271 -74 271 -215c0 -5 -1 -18 -1 -19l-14 -7h-100l-13 7c-27 74 -65 114 -143 114c-135 0 -151 -136 -151 -244c0 -111 16 -237 151 -237c115 0 103 121 209 121c21 0 43 4 61 -14v-23c0 -94 -109 -204 -207 -204h-133
c-172 0 -227 229 -227 357zM266 835c0 37 30 59 66 59c34 0 68 -24 68 -60c0 -37 -29 -67 -67 -67c-39 0 -67 31 -67 68z" />
    <glyph glyph-name="uni010B" unicode="&#x10b;" horiz-adv-x="521" 
d="M33 260c0 147 77 274 237 274c93 0 217 -61 217 -171c0 -7 -12 -30 -20 -30h-87c-24 0 -45 81 -112 81c-87 0 -95 -84 -95 -154c0 -74 11 -154 99 -154c66 0 75 67 108 67h87c13 0 20 -15 20 -26c0 -69 -93 -154 -160 -154h-114c-132 0 -180 166 -180 267zM193 677
c0 38 24 63 64 63s64 -25 64 -63c0 -41 -24 -64 -65 -64s-63 26 -63 64z" />
    <glyph glyph-name="Ccaron" unicode="&#x10c;" horiz-adv-x="654" 
d="M40 350c0 188 89 364 297 364c122 0 271 -74 271 -215c0 -5 -1 -18 -1 -19l-14 -7h-100l-13 7c-27 74 -65 114 -143 114c-135 0 -151 -136 -151 -244c0 -111 16 -237 151 -237c115 0 103 121 209 121c21 0 43 4 61 -14v-23c0 -94 -109 -204 -207 -204h-133
c-172 0 -227 229 -227 357zM173 873c0 2 -1 9 -1 10c0 22 31 18 45 18c48 0 70 -48 111 -48c48 0 71 48 122 48c14 0 44 0 44 -21c0 -1 -1 -6 -1 -7c-40 -43 -92 -113 -160 -113c-69 0 -118 69 -160 113z" />
    <glyph glyph-name="ccaron" unicode="&#x10d;" horiz-adv-x="521" 
d="M33 260c0 147 77 274 237 274c93 0 217 -61 217 -171c0 -7 -12 -30 -20 -30h-87c-24 0 -45 81 -112 81c-87 0 -95 -84 -95 -154c0 -74 11 -154 99 -154c66 0 75 67 108 67h87c13 0 20 -15 20 -26c0 -69 -93 -154 -160 -154h-114c-132 0 -180 166 -180 267zM100 740h80
c27 0 47 -38 73 -47h4c32 0 47 47 76 47h80c8 0 8 -9 8 -13c0 -1 -1 -6 -1 -7c-39 -41 -93 -114 -158 -114c-47 0 -162 70 -162 107v27z" />
    <glyph glyph-name="Dcaron" unicode="&#x10e;" horiz-adv-x="649" 
d="M93 707h100c247 0 408 -88 408 -353c0 -161 -92 -354 -281 -354h-233c-15 0 -27 22 -27 33v634c0 18 17 35 33 40zM269 587c-26 0 -62 -4 -62 -40v-394c0 -12 9 -27 20 -33c7 0 39 -1 46 -1c138 0 181 111 181 234c0 127 -46 234 -185 234zM100 860c-6 8 -7 12 -7 20
c0 6 0 11 7 13c5 1 31 1 37 1c50 0 74 -48 116 -48c31 0 47 47 74 47h80c8 0 7 -14 7 -17c0 -47 -106 -117 -161 -117c-69 0 -103 53 -153 101z" />
    <glyph glyph-name="dcaron" unicode="&#x10f;" horiz-adv-x="636" 
d="M487 740c3 -3 13 -15 13 -20v-700l-20 -20h-80c-18 17 -27 21 -47 21c-40 0 -71 -28 -116 -28c-153 0 -204 138 -204 270c0 127 54 271 204 271c37 0 69 -28 103 -28c8 0 23 3 23 14v200c0 7 17 20 24 20h100zM173 256c0 -68 14 -150 100 -150c28 0 87 17 87 54v200
c0 43 -58 54 -88 54c-88 0 -99 -89 -99 -158zM573 544c0 51 31 132 34 183l13 13h73l14 -13c0 -1 1 -28 1 -38c0 -53 -15 -183 -89 -183c-25 0 -46 10 -46 38z" />
    <glyph glyph-name="Dcroat" unicode="&#x110;" horiz-adv-x="664" 
d="M77 20v253c0 45 -71 28 -71 78c0 54 71 42 71 82v254c0 9 31 19 36 20h97c253 0 404 -89 404 -357c0 -161 -92 -350 -281 -350h-233zM227 287v-147c0 -10 11 -19 20 -20c6 0 36 -1 43 -1c140 0 177 114 177 234c0 127 -43 234 -184 234c-8 0 -56 2 -56 -20v-147
c0 -2 9 -11 13 -13c18 -11 75 -13 80 -14c21 -8 21 -19 21 -35c0 -53 -48 -50 -94 -51z" />
    <glyph glyph-name="dcroat" unicode="&#x111;" horiz-adv-x="578" 
d="M33 263c0 127 54 271 204 271c37 0 69 -28 103 -28c10 0 14 2 20 14c0 3 2 20 2 23c0 18 1 37 -22 44c-13 0 -60 -2 -80 13c-4 3 -13 12 -13 13v47c0 6 21 19 26 20c10 2 57 6 67 7c16 11 26 53 47 53h100c16 0 22 -44 40 -53c33 -17 53 -8 53 -50c0 -55 -77 -35 -77 -77
v-540l-23 -20h-80c-18 17 -27 21 -47 21c-41 0 -73 -28 -120 -28c-150 0 -200 141 -200 270zM173 256c0 -68 14 -150 100 -150c28 0 87 17 87 54v200c0 43 -58 54 -88 54c-88 0 -99 -89 -99 -158z" />
    <glyph glyph-name="Emacron" unicode="&#x112;" horiz-adv-x="562" 
d="M534 650c0 -6 0 -60 -21 -60h-273c-37 0 -34 -71 -34 -87c0 -24 -3 -86 41 -86h220c18 0 20 -47 20 -55c0 -21 -4 -59 -34 -59h-220c-13 0 -26 -28 -26 -36v-114c0 -5 11 -36 20 -36h273c33 0 34 -40 34 -60c0 -16 1 -57 -27 -57h-420c-15 0 -27 22 -27 33v634
c0 14 17 40 33 40h407c36 0 34 -34 34 -57zM133 820c0 12 2 33 20 33h314c16 0 14 -26 14 -33c0 -16 -6 -40 -28 -40h-293c-19 0 -27 26 -27 40z" />
    <glyph glyph-name="emacron" unicode="&#x113;" horiz-adv-x="540" 
d="M33 253c0 144 85 281 244 281c146 0 230 -109 230 -247v-47c-2 -7 -12 -23 -20 -23h-274c-9 0 -27 -22 -27 -30c0 -56 73 -81 117 -81c49 0 84 35 128 35c2 0 9 -1 9 -1l40 -40v-33c0 -65 -151 -74 -187 -74c-153 0 -260 103 -260 260zM186 340c0 -10 16 -27 21 -27h140
c17 0 20 18 20 30c0 50 -46 71 -87 71s-94 -24 -94 -74zM86 667c0 19 9 40 34 40h287c16 0 33 -26 33 -40c0 -9 -9 -34 -20 -34h-313c-11 0 -21 25 -21 34z" />
    <glyph glyph-name="Ebreve" unicode="&#x114;" horiz-adv-x="562" 
d="M534 650c0 -6 0 -60 -21 -60h-273c-37 0 -34 -71 -34 -87c0 -24 -3 -86 41 -86h220c18 0 20 -47 20 -55c0 -21 -4 -59 -34 -59h-220c-13 0 -26 -28 -26 -36v-114c0 -5 11 -36 20 -36h273c33 0 34 -40 34 -60c0 -16 1 -57 -27 -57h-420c-15 0 -27 22 -27 33v634
c0 14 17 40 33 40h407c36 0 34 -34 34 -57zM146 864c0 24 26 30 45 30c52 0 64 -61 116 -61c51 0 63 61 116 61c22 0 45 -8 45 -34c0 -77 -100 -107 -161 -107c-64 0 -161 33 -161 111z" />
    <glyph glyph-name="ebreve" unicode="&#x115;" horiz-adv-x="540" 
d="M33 253c0 144 85 281 244 281c146 0 230 -109 230 -247v-47c-2 -7 -12 -23 -20 -23h-274c-9 0 -27 -22 -27 -30c0 -56 73 -81 117 -81c49 0 84 35 128 35c2 0 9 -1 9 -1l40 -40v-33c0 -65 -151 -74 -187 -74c-153 0 -260 103 -260 260zM186 340c0 -10 16 -27 21 -27h140
c17 0 20 18 20 30c0 50 -46 71 -87 71s-94 -24 -94 -74zM100 710c0 23 25 31 43 31c53 0 67 -61 120 -61c51 0 66 61 117 61c25 0 41 -4 41 -30c0 -80 -95 -112 -161 -112c-60 0 -160 34 -160 111z" />
    <glyph glyph-name="Edotaccent" unicode="&#x116;" horiz-adv-x="562" 
d="M534 650c0 -6 0 -60 -21 -60h-273c-37 0 -34 -71 -34 -87c0 -24 -3 -86 41 -86h220c18 0 20 -47 20 -55c0 -21 -4 -59 -34 -59h-220c-13 0 -26 -28 -26 -36v-114c0 -5 11 -36 20 -36h273c33 0 34 -40 34 -60c0 -16 1 -57 -27 -57h-420c-15 0 -27 22 -27 33v634
c0 14 17 40 33 40h407c36 0 34 -34 34 -57zM239 830c0 35 33 64 68 64s67 -30 67 -65c0 -40 -30 -63 -67 -63s-68 26 -68 64z" />
    <glyph glyph-name="edotaccent" unicode="&#x117;" horiz-adv-x="540" 
d="M33 253c0 144 85 281 244 281c146 0 230 -109 230 -247v-47c-2 -7 -12 -23 -20 -23h-274c-9 0 -27 -22 -27 -30c0 -56 73 -81 117 -81c49 0 84 35 128 35c2 0 9 -1 9 -1l40 -40v-33c0 -65 -151 -74 -187 -74c-153 0 -260 103 -260 260zM186 340c0 -10 16 -27 21 -27h140
c17 0 20 18 20 30c0 50 -46 71 -87 71s-94 -24 -94 -74zM193 677c0 34 32 63 67 63c40 0 67 -29 67 -67c0 -36 -25 -60 -63 -60c-37 0 -71 23 -71 64z" />
    <glyph glyph-name="Eogonek" unicode="&#x118;" horiz-adv-x="562" 
d="M286 -105c0 28 15 51 15 78c0 2 1 24 -8 24h-206c-14 0 -27 28 -27 36v634c0 14 17 40 33 40h407c36 0 34 -34 34 -57c0 -6 0 -60 -21 -60h-273c-37 0 -34 -71 -34 -87c0 -24 -3 -86 41 -86h220c18 0 20 -47 20 -55c0 -21 -4 -59 -34 -59h-220c-13 0 -26 -28 -26 -36
v-114c0 -5 11 -36 20 -36h273c33 0 34 -40 34 -60c0 -96 -141 -41 -141 -141c0 -45 74 -29 74 -79c0 -37 -47 -44 -74 -44c-63 0 -107 37 -107 102z" />
    <glyph glyph-name="eogonek" unicode="&#x119;" horiz-adv-x="540" 
d="M33 253c0 144 85 281 244 281c146 0 230 -109 230 -247v-47c-2 -7 -12 -23 -20 -23h-274c-9 0 -27 -22 -27 -30c0 -56 73 -81 117 -81c49 0 83 35 127 35c2 0 9 -1 10 -1c3 -2 50 -38 47 -60c-10 -70 -141 -69 -141 -147c0 -50 68 -27 68 -80c0 -20 -6 -33 -27 -40h-40
c-32 0 -107 10 -107 60v107c0 17 -99 47 -113 60c-64 57 -94 128 -94 213zM186 340c0 -10 16 -27 21 -27h140c17 0 20 18 20 30c0 50 -46 71 -87 71s-94 -24 -94 -74z" />
    <glyph glyph-name="Ecaron" unicode="&#x11a;" horiz-adv-x="562" 
d="M534 650c0 -6 0 -60 -21 -60h-273c-37 0 -34 -71 -34 -87c0 -24 -3 -86 41 -86h220c18 0 20 -47 20 -55c0 -21 -4 -59 -34 -59h-220c-13 0 -26 -28 -26 -36v-114c0 -5 11 -36 20 -36h273c33 0 34 -40 34 -60c0 -16 1 -57 -27 -57h-420c-15 0 -27 22 -27 33v634
c0 14 17 40 33 40h407c36 0 34 -34 34 -57zM146 880c0 6 0 11 7 13c6 1 31 1 37 1c51 0 75 -48 117 -48c30 0 46 47 73 47h80c7 0 7 -9 7 -13c0 -53 -105 -121 -160 -121c-57 0 -161 65 -161 121z" />
    <glyph glyph-name="ecaron" unicode="&#x11b;" horiz-adv-x="540" 
d="M33 253c0 144 85 281 244 281c146 0 230 -109 230 -247v-47c-2 -7 -12 -23 -20 -23h-274c-9 0 -27 -22 -27 -30c0 -56 73 -81 117 -81c49 0 84 35 128 35c2 0 9 -1 9 -1l40 -40v-33c0 -65 -151 -74 -187 -74c-153 0 -260 103 -260 260zM186 340c0 -10 16 -27 21 -27h140
c17 0 20 18 20 30c0 50 -46 71 -87 71s-94 -24 -94 -74zM107 713c-2 2 -7 11 -7 14c0 4 5 13 7 13h80c29 0 44 -47 76 -47c23 0 45 29 64 40c3 2 12 7 13 7h80c2 0 7 -9 7 -13c0 -46 -117 -121 -169 -121c-64 0 -113 66 -151 107z" />
    <glyph glyph-name="Gcircumflex" unicode="&#x11c;" horiz-adv-x="681" 
d="M46 350c0 193 81 364 297 364c111 0 271 -59 271 -197c0 -12 -5 -30 -21 -30h-93c-39 0 -53 107 -153 107c-135 0 -154 -131 -154 -241c0 -116 27 -247 170 -247c70 0 111 18 111 91c0 5 0 31 -1 36c-14 42 -73 33 -106 34l-20 20v60l20 20h233c5 0 20 -21 20 -27v-240
c0 -86 -213 -107 -265 -107c-217 0 -309 155 -309 357zM179 775c0 10 1 17 8 25c45 44 84 101 150 101c71 0 110 -65 156 -114c0 -1 1 -6 1 -7c0 -20 -26 -21 -40 -21c-50 0 -75 55 -117 55c-45 0 -66 -54 -117 -54c-14 0 -41 -4 -41 15z" />
    <glyph glyph-name="gcircumflex" unicode="&#x11d;" horiz-adv-x="570" 
d="M79 -124c0 23 23 64 51 64c37 0 77 -40 120 -40c50 0 117 31 117 90c0 8 -8 24 -17 24c-36 0 -67 -22 -105 -22c-150 0 -212 135 -212 268c0 127 62 274 210 274c44 0 79 -28 121 -28c17 0 27 0 43 14h80c15 0 26 -22 26 -33v-467c0 -148 -112 -227 -250 -227
c-50 0 -184 10 -184 83zM173 260c0 -72 25 -154 110 -154c25 0 84 11 84 47v214c0 36 -59 47 -84 47c-85 0 -110 -82 -110 -154zM106 623c0 55 108 118 164 118c6 0 31 -1 37 -1c19 -4 120 -79 120 -117v-3c-2 -2 -11 -12 -14 -13c-4 0 -22 -1 -26 -1c-52 0 -77 54 -120 54
c-44 0 -66 -54 -117 -54c-5 0 -26 0 -30 1c-3 2 -14 12 -14 16z" />
    <glyph glyph-name="Gbreve" unicode="&#x11e;" horiz-adv-x="681" 
d="M46 350c0 193 81 364 297 364c111 0 271 -59 271 -197c0 -12 -5 -30 -21 -30h-93c-39 0 -53 107 -153 107c-135 0 -154 -131 -154 -241c0 -116 27 -247 170 -247c70 0 111 18 111 91c0 5 0 31 -1 36c-14 42 -73 33 -106 34l-20 20v60l20 20h233c5 0 20 -21 20 -27v-240
c0 -86 -213 -107 -265 -107c-217 0 -309 155 -309 357zM173 863c0 12 12 24 20 30c4 1 20 1 24 1c44 0 52 -18 90 -54c4 0 22 -1 26 -1c55 0 66 55 120 55c4 0 23 0 27 -1c5 -3 20 -18 20 -26c0 -77 -102 -114 -163 -114s-164 35 -164 110z" />
    <glyph glyph-name="gbreve" unicode="&#x11f;" horiz-adv-x="570" 
d="M79 -124c0 23 23 64 51 64c37 0 77 -40 120 -40c50 0 117 31 117 90c0 8 -8 24 -17 24c-36 0 -67 -22 -105 -22c-150 0 -212 135 -212 268c0 127 62 274 210 274c44 0 79 -28 121 -28c17 0 27 0 43 14h80c15 0 26 -22 26 -33v-467c0 -148 -112 -227 -250 -227
c-50 0 -184 10 -184 83zM173 260c0 -72 25 -154 110 -154c25 0 84 11 84 47v214c0 36 -59 47 -84 47c-85 0 -110 -82 -110 -154zM106 711c0 23 25 30 44 30c52 0 65 -61 117 -61s63 61 115 61c28 0 45 -5 45 -35c0 -76 -100 -107 -160 -107c-63 0 -161 34 -161 112z" />
    <glyph glyph-name="uni0120" unicode="&#x120;" horiz-adv-x="681" 
d="M46 350c0 193 81 364 297 364c111 0 271 -59 271 -197c0 -12 -5 -30 -21 -30h-93c-39 0 -53 107 -153 107c-135 0 -154 -131 -154 -241c0 -116 27 -247 170 -247c70 0 111 18 111 91c0 5 0 31 -1 36c-14 42 -73 33 -106 34l-20 20v60l20 20h233c5 0 20 -21 20 -27v-240
c0 -86 -213 -107 -265 -107c-217 0 -309 155 -309 357zM266 833c0 38 35 61 68 61c44 0 67 -26 67 -67c0 -35 -29 -60 -64 -60c-37 0 -71 28 -71 66z" />
    <glyph glyph-name="uni0121" unicode="&#x121;" horiz-adv-x="570" 
d="M79 -124c0 23 23 64 51 64c37 0 77 -40 120 -40c50 0 117 31 117 90c0 8 -8 24 -17 24c-36 0 -67 -22 -105 -22c-150 0 -212 135 -212 268c0 127 62 274 210 274c44 0 79 -28 121 -28c17 0 27 0 43 14h80c15 0 26 -22 26 -33v-467c0 -148 -112 -227 -250 -227
c-50 0 -184 10 -184 83zM173 260c0 -72 25 -154 110 -154c25 0 84 11 84 47v214c0 36 -59 47 -84 47c-85 0 -110 -82 -110 -154zM199 677c0 37 31 63 68 63c35 0 67 -29 67 -63c0 -38 -31 -64 -67 -64c-37 0 -68 26 -68 64z" />
    <glyph glyph-name="Gcommaaccent" unicode="&#x122;" horiz-adv-x="681" 
d="M273 -204c0 54 1 151 70 151c29 0 51 -7 51 -40c0 -43 -22 -148 -81 -148c-23 0 -40 12 -40 37zM46 350c0 193 81 364 297 364c111 0 271 -59 271 -197c0 -12 -5 -30 -21 -30h-93c-39 0 -53 107 -153 107c-135 0 -154 -131 -154 -241c0 -116 27 -247 170 -247
c70 0 111 18 111 91c0 5 0 31 -1 36c-14 42 -73 33 -106 34l-20 20v60l20 20h233c5 0 20 -21 20 -27v-240c0 -86 -213 -107 -265 -107c-217 0 -309 155 -309 357z" />
    <glyph glyph-name="gcommaaccent" unicode="&#x123;" horiz-adv-x="570" 
d="M79 -124c0 23 23 64 51 64c37 0 77 -40 120 -40c50 0 117 31 117 90c0 8 -8 24 -17 24c-36 0 -67 -22 -105 -22c-150 0 -212 135 -212 268c0 127 62 274 210 274c44 0 79 -28 121 -28c17 0 27 0 43 14h80c15 0 26 -22 26 -33v-467c0 -148 -112 -227 -250 -227
c-50 0 -184 10 -184 83zM173 260c0 -72 25 -154 110 -154c25 0 84 11 84 47v214c0 36 -59 47 -84 47c-85 0 -110 -82 -110 -154zM213 640v37c0 42 14 150 74 150c19 0 53 -22 53 -44v-3c-1 -5 -12 -48 -13 -53c-3 -14 -12 -80 -14 -94c-14 -19 -27 -20 -50 -20
c-24 0 -41 2 -50 27z" />
    <glyph glyph-name="Hcircumflex" unicode="&#x124;" horiz-adv-x="706" 
d="M173 707c8 0 27 -17 30 -20v-227c0 -18 27 -40 44 -40h206c5 0 37 11 37 20v233c0 12 27 31 37 34h36c7 0 70 4 70 -20v-667l-20 -20h-93c-13 0 -30 23 -30 33v247c0 2 -25 20 -30 20h-220c-14 0 -37 -27 -37 -40v-240c0 -7 -16 -20 -23 -20h-93c-15 0 -27 22 -27 33v634
c0 14 17 40 33 40h80zM192 777c0 1 1 8 1 10c32 34 68 72 107 100c3 2 12 6 13 6h74c28 0 109 -94 120 -106c0 -2 1 -9 1 -10c0 -22 -26 -18 -41 -18c-51 0 -75 54 -120 54c-39 0 -66 -54 -112 -54c-15 0 -43 -5 -43 18z" />
    <glyph glyph-name="hcircumflex" unicode="&#x125;" horiz-adv-x="559" 
d="M167 740c3 -3 23 -21 23 -27v-200c0 -10 15 -14 23 -14c37 0 74 35 117 35c91 0 170 -65 170 -161v-353c0 -5 -21 -20 -27 -20h-86l-24 20v333c0 45 -54 61 -86 61c-23 0 -87 -13 -87 -47v-340c0 -1 -7 -10 -10 -14c-4 -5 -13 -13 -20 -13h-87l-20 20v707l14 13h100z
M93 810c0 45 110 117 158 117c75 0 102 -50 156 -107v-10c0 -6 1 -15 -7 -17c-4 0 -25 -1 -30 -1c-52 0 -74 49 -122 49c-42 0 -62 -49 -111 -49c-5 0 -26 1 -30 1c-3 2 -12 11 -14 14v3z" />
    <glyph glyph-name="Hbar" unicode="&#x126;" horiz-adv-x="719" 
d="M247 300c-6 0 -30 -17 -30 -20v-247c0 -10 -18 -33 -30 -33h-94l-23 20v453c0 37 -57 39 -57 81c0 43 57 55 60 133c4 5 18 20 27 20h80c56 0 14 -107 60 -107h240l13 13c1 16 2 94 40 94h80c9 0 23 -15 27 -20c5 -76 61 -91 61 -132c0 -47 -58 -41 -58 -82v-453
c0 -7 -16 -20 -23 -20h-93c-13 0 -30 23 -30 33v247c0 2 -25 20 -30 20h-220zM220 440c6 -11 21 -20 33 -20h207c13 0 27 9 33 20c1 3 1 20 1 23c0 13 2 44 -21 44h-233c-23 0 -22 -32 -22 -44c0 -3 2 -20 2 -23z" />
    <glyph glyph-name="hbar" unicode="&#x127;" horiz-adv-x="574" 
d="M203 20c0 -3 -24 -20 -30 -20h-86l-24 20v540c0 39 -77 23 -77 77c0 32 68 68 87 96c2 2 6 7 7 7h100c18 0 16 -62 127 -67l13 -13c1 -2 2 -16 2 -20c0 -11 0 -50 -22 -50h-73c-19 0 -21 -45 -21 -53c0 -4 0 -20 1 -24c5 -11 10 -14 19 -14c41 0 75 35 121 35
c80 0 166 -58 166 -147v-367l-20 -20h-86c-7 0 -16 8 -20 13c-3 4 -10 13 -10 14v333c0 43 -57 54 -86 54c-28 0 -88 -13 -88 -54v-340z" />
    <glyph glyph-name="Itilde" unicode="&#x128;" horiz-adv-x="291" 
d="M146 707c16 0 67 3 67 -27v-653c0 -10 -17 -27 -26 -27h-87c-6 0 -27 15 -27 20v660c0 32 58 27 73 27zM-34 797c0 56 57 91 105 91c43 0 75 -29 117 -29c39 0 56 35 92 35c20 0 40 -11 40 -34c0 -54 -60 -94 -108 -94c-44 0 -79 34 -122 34c-33 0 -51 -40 -83 -40
c-25 0 -41 13 -41 37z" />
    <glyph glyph-name="itilde" unicode="&#x129;" horiz-adv-x="273" 
d="M67 20v480c0 9 11 20 20 20h93l20 -20v-480c0 -5 -21 -20 -27 -20h-86zM-41 636c0 52 51 91 99 91c46 0 81 -28 126 -28c37 0 54 35 89 35c26 0 34 -9 34 -34c0 -51 -50 -94 -100 -94c-46 0 -82 34 -127 34c-35 0 -47 -35 -83 -35c-4 0 -20 1 -24 2c-15 4 -14 18 -14 29z
" />
    <glyph glyph-name="Imacron" unicode="&#x12a;" horiz-adv-x="291" 
d="M146 707c16 0 67 3 67 -27v-653c0 -10 -17 -27 -26 -27h-87c-6 0 -27 15 -27 20v660c0 32 58 27 73 27zM-34 817c0 9 8 36 21 36h313c11 0 20 -25 20 -33c0 -15 -17 -40 -33 -40h-287c-21 0 -34 18 -34 37z" />
    <glyph glyph-name="imacron" unicode="&#x12b;" horiz-adv-x="273" 
d="M67 20v480c0 9 11 20 20 20h93l20 -20v-480c0 -5 -21 -20 -27 -20h-86zM-41 660c0 12 3 33 21 33h313c11 0 20 -27 20 -33c0 -14 -16 -40 -33 -40h-287c-23 0 -34 20 -34 40z" />
    <glyph glyph-name="Ibreve" unicode="&#x12c;" horiz-adv-x="291" 
d="M146 707c16 0 67 3 67 -27v-653c0 -10 -17 -27 -26 -27h-87c-6 0 -27 15 -27 20v660c0 32 58 27 73 27zM-14 860c0 27 10 34 37 34c53 0 67 -61 120 -61c54 0 67 61 121 61c17 0 43 -7 43 -31c0 -76 -105 -110 -164 -110c-63 0 -157 29 -157 107z" />
    <glyph glyph-name="ibreve" unicode="&#x12d;" horiz-adv-x="273" 
d="M67 20v480c0 9 11 20 20 20h93l20 -20v-480c0 -5 -21 -20 -27 -20h-86zM-27 704c0 24 26 30 44 30c53 0 65 -61 116 -61s67 61 117 61c27 0 44 -5 44 -35c0 -76 -100 -106 -161 -106c-63 0 -160 33 -160 111z" />
    <glyph glyph-name="Iogonek" unicode="&#x12e;" horiz-adv-x="291" 
d="M13 -109c0 55 57 85 57 129v660c0 31 64 27 76 27c16 0 67 3 67 -27v-653c0 -48 -94 -52 -94 -112c0 -49 68 -24 68 -80c0 -34 -38 -42 -67 -42c-62 0 -107 34 -107 98z" />
    <glyph glyph-name="iogonek" unicode="&#x12f;" horiz-adv-x="265" 
d="M173 520c5 0 17 -10 20 -13v-494c0 -34 -80 -48 -80 -98c0 -44 67 -29 67 -78c0 -39 -44 -44 -74 -44c-57 0 -106 41 -106 100c0 46 28 81 57 114v486c0 6 20 24 23 27h93zM53 659c0 47 35 68 77 68c43 0 71 -18 71 -64c0 -45 -31 -70 -76 -70c-37 0 -72 26 -72 66z" />
    <glyph glyph-name="Idotaccent" unicode="&#x130;" horiz-adv-x="291" 
d="M146 707c16 0 67 3 67 -27v-653c0 -10 -17 -27 -26 -27h-87c-6 0 -27 15 -27 20v660c0 32 58 27 73 27zM73 831c0 33 34 63 67 63c40 0 67 -29 67 -67c0 -39 -27 -61 -66 -61c-37 0 -68 26 -68 65z" />
    <glyph glyph-name="dotlessi" unicode="&#x131;" horiz-adv-x="273" 
d="M67 20v480c0 9 11 20 20 20h93l20 -20v-480c0 -5 -21 -20 -27 -20h-86z" />
    <glyph glyph-name="IJ" unicode="&#x132;" horiz-adv-x="850" 
d="M313 170c0 7 4 30 14 30h106c28 0 36 -94 110 -94c37 0 94 31 94 74v493c0 10 27 34 36 34h80c6 0 27 -15 27 -20v-520c0 -89 -98 -155 -173 -174h-60c-106 0 -234 52 -234 177zM146 707c16 0 67 3 67 -27v-653c0 -10 -17 -27 -26 -27h-87c-6 0 -27 15 -27 20v660
c0 32 58 27 73 27z" />
    <glyph glyph-name="ij" unicode="&#x133;" horiz-adv-x="524" 
d="M323 493c0 4 21 27 24 27h93c9 0 20 -11 20 -20v-580c0 -93 -103 -134 -179 -134c-47 0 -62 12 -62 57c0 81 104 39 104 110v540zM173 520c5 0 17 -10 20 -13v-487c0 -9 -11 -20 -20 -20h-86c-1 0 -11 5 -14 7c-8 5 -13 17 -13 26v460c0 6 15 27 20 27h93zM53 659
c0 47 35 68 77 68c43 0 71 -18 71 -64c0 -45 -31 -70 -76 -70c-37 0 -72 26 -72 66zM319 663c0 46 28 64 71 64c42 0 77 -21 77 -68c0 -40 -35 -66 -72 -66c-45 0 -76 25 -76 70z" />
    <glyph glyph-name="Jcircumflex" unicode="&#x134;" horiz-adv-x="558" 
d="M350 687c3 2 23 20 30 20h80c17 0 33 -26 33 -40v-440c0 -146 -99 -234 -240 -234c-104 0 -233 52 -233 177c0 7 12 30 20 30h107c18 0 35 -94 103 -94s100 66 100 127v454zM253 773v7c49 52 88 114 160 114c73 0 102 -52 154 -107c2 -1 7 -11 6 -14
c0 -3 -10 -12 -13 -13c-5 0 -28 -1 -33 -1c-51 0 -68 48 -114 48c-45 0 -62 -48 -113 -48c-5 0 -28 1 -33 1c-3 2 -12 11 -14 13z" />
    <glyph glyph-name="jcircumflex" unicode="&#x135;" horiz-adv-x="281" 
d="M-41 -166c0 87 111 45 111 126v540l23 20h94l20 -20v-560c0 -97 -95 -154 -181 -154c-35 0 -67 5 -67 48zM-27 613v7c39 41 92 114 157 114c19 0 50 -7 63 -21l94 -93s1 -7 1 -9c0 -23 -27 -18 -43 -18c-49 0 -72 54 -115 54c-42 0 -67 -54 -117 -54h-26
c-11 6 -14 11 -14 20z" />
    <glyph glyph-name="Kcommaaccent" unicode="&#x136;" horiz-adv-x="634" 
d="M240 -173c0 49 12 154 73 154c21 0 54 -10 54 -37c0 -37 -23 -157 -80 -157c-17 0 -47 21 -47 40zM173 707c8 0 27 -17 30 -20v-220l10 -34c1 0 7 -2 9 -2c18 0 26 14 38 29l167 213c10 14 33 34 53 34h100c8 0 29 -7 27 -20c-1 -5 -10 -24 -14 -27l-180 -227
c-10 -12 -20 -27 -20 -43c0 -118 221 -250 221 -370c0 -11 2 -20 -14 -20h-120c-8 0 -23 15 -27 20l-140 213c-3 5 -21 24 -26 27c-1 0 -5 1 -6 1c-40 0 -72 -59 -74 -94c-2 -22 -7 -125 -7 -147c-1 -9 -10 -20 -20 -20h-93c-15 0 -27 22 -27 33v634c0 14 17 40 33 40h80z
" />
    <glyph glyph-name="kcommaaccent" unicode="&#x137;" horiz-adv-x="534" 
d="M199 -181c0 52 11 148 74 148h27c23 -7 21 -24 21 -41c0 -45 -22 -148 -78 -148c-23 0 -44 16 -44 41zM173 740c4 0 16 -19 17 -20v-333c0 -14 12 -15 20 -15c2 0 9 1 10 1c28 26 119 147 147 147h113c14 0 14 -7 14 -17c0 -20 -10 -22 -27 -43l-114 -133
c-7 -8 -7 -15 -7 -24c0 -16 3 -19 14 -36l147 -220c8 -12 7 -14 7 -28c0 -10 2 -19 -14 -19h-107c-10 0 -31 24 -33 27l-87 133c-12 18 -18 28 -36 28s-47 -29 -47 -48v-120l-23 -20h-87c-10 0 -27 17 -27 27v693l20 20h100z" />
    <glyph glyph-name="kgreenlandic" unicode="&#x138;" horiz-adv-x="589" 
d="M203 347c0 -4 21 -12 24 -14h3c63 0 110 187 163 187h127c12 0 14 -12 14 -19c0 -9 -1 -13 -7 -21l-127 -173c-11 -15 -14 -22 -14 -37s3 -22 14 -37l127 -180c13 -18 14 -15 14 -33c0 -11 1 -20 -14 -20h-120c-2 0 -20 9 -27 13l-7 7l-100 147c-8 13 -21 20 -36 20
c-11 0 -34 -6 -34 -20v-140c0 -1 -7 -10 -10 -14c-4 -5 -13 -13 -20 -13h-86c-15 0 -27 22 -27 33v454c0 11 12 33 27 33h93c3 0 23 -23 23 -27v-146z" />
    <glyph glyph-name="Lacute" unicode="&#x139;" horiz-adv-x="541" 
d="M173 707c8 0 27 -17 30 -20v-534c0 -2 18 -36 24 -36h260c29 0 27 -60 27 -70c0 -7 0 -26 -1 -27l-20 -20h-406c-15 0 -27 22 -27 33v634c0 14 17 40 33 40h80zM93 770c0 33 50 123 87 123h93c14 0 15 -7 15 -16c0 -20 -11 -25 -28 -44c-19 -20 -71 -72 -73 -73l-14 -7
h-73c-8 0 -7 14 -7 17z" />
    <glyph glyph-name="lacute" unicode="&#x13a;" horiz-adv-x="265" 
d="M180 740l13 -13v-707c0 -9 -11 -20 -20 -20h-86c-15 0 -27 22 -27 33v680c0 6 15 27 20 27h100zM86 813c0 2 0 12 1 14c14 23 43 76 73 100c3 2 12 6 13 6h94c10 0 14 -12 14 -20c0 -1 -1 -5 -1 -6c-23 -32 -77 -114 -113 -114h-74c-9 0 -7 18 -7 20z" />
    <glyph glyph-name="Lcommaaccent" unicode="&#x13b;" horiz-adv-x="541" 
d="M219 -198c0 55 1 152 71 152c29 0 50 -8 50 -40c0 -40 -23 -148 -75 -148c-25 0 -46 9 -46 36zM173 707c8 0 27 -17 30 -20v-534c0 -2 18 -36 24 -36h260c29 0 27 -60 27 -70c0 -7 0 -26 -1 -27l-20 -20h-406c-15 0 -27 22 -27 33v634c0 14 17 40 33 40h80z" />
    <glyph glyph-name="lcommaaccent" unicode="&#x13c;" horiz-adv-x="265" 
d="M59 -195c0 54 3 149 71 149c26 0 50 -6 50 -37c0 -43 -20 -151 -80 -151c-26 0 -41 13 -41 39zM180 740l13 -13v-707c0 -9 -11 -20 -20 -20h-86c-15 0 -27 22 -27 33v680c0 6 15 27 20 27h100z" />
    <glyph glyph-name="Lcaron" unicode="&#x13d;" horiz-adv-x="541" 
d="M173 707c8 0 27 -17 30 -20v-534c0 -2 18 -36 24 -36h260c29 0 27 -60 27 -70c0 -7 0 -26 -1 -27l-20 -20h-406c-15 0 -27 22 -27 33v634c0 14 17 40 33 40h80zM333 502c0 58 25 119 27 178c9 25 29 27 53 27s45 -2 54 -27v-37c0 -53 -24 -177 -94 -177
c-23 0 -40 12 -40 36z" />
    <glyph glyph-name="lcaron" unicode="&#x13e;" horiz-adv-x="338" 
d="M180 740l13 -13v-707c0 -9 -11 -20 -20 -20h-86c-15 0 -27 22 -27 33v680c0 6 15 27 20 27h100zM266 543c0 27 24 66 27 97c9 73 -11 101 60 101c5 0 29 -1 34 -1c21 -16 20 -30 20 -56c0 -58 -25 -178 -99 -178c-19 0 -42 16 -42 37z" />
    <glyph glyph-name="Ldot" unicode="&#x13f;" horiz-adv-x="541" 
d="M173 707c8 0 27 -17 30 -20v-534c0 -2 18 -36 24 -36h260c29 0 27 -60 27 -70c0 -7 0 -26 -1 -27l-20 -20h-406c-15 0 -27 22 -27 33v634c0 14 17 40 33 40h80zM293 405c0 36 26 62 64 62c37 0 70 -29 70 -67s-34 -61 -68 -61c-43 0 -66 25 -66 66z" />
    <glyph glyph-name="ldot" unicode="&#x140;" horiz-adv-x="372" 
d="M180 740l13 -13v-707c0 -9 -11 -20 -20 -20h-86c-15 0 -27 22 -27 33v680c0 6 15 27 20 27h100zM253 376c0 41 30 58 67 58c39 0 67 -19 67 -61c0 -40 -31 -61 -67 -61c-39 0 -67 23 -67 64z" />
    <glyph glyph-name="Lslash" unicode="&#x141;" horiz-adv-x="557" 
d="M13 330c0 43 64 51 64 83v267c0 30 61 27 73 27s73 3 73 -27v-213c0 -8 17 -20 24 -20c10 -1 56 -1 66 0c13 -9 14 -23 14 -37c0 -64 -100 -45 -100 -97v-173c0 -7 13 -23 20 -23h253c27 0 34 -46 34 -64c0 -16 -2 -53 -27 -53h-400c-7 0 -16 8 -20 13
c-3 4 -10 13 -10 14v233c0 33 -64 23 -64 70z" />
    <glyph glyph-name="lslash" unicode="&#x142;" horiz-adv-x="305" 
d="M77 720c2 3 12 17 16 20h100c7 0 24 -13 24 -20v-247c0 -30 63 -12 63 -33v-60c0 -9 -47 -40 -53 -47c-3 -3 -10 -12 -10 -13v-293c0 -1 -7 -10 -10 -14c-5 -5 -14 -13 -20 -13h-87l-23 20v240c0 34 -64 23 -64 70c0 42 64 57 64 90v300z" />
    <glyph glyph-name="Nacute" unicode="&#x143;" horiz-adv-x="706" 
d="M476 286c5 0 13 6 14 7v380c0 12 27 31 37 34h36c7 0 70 4 70 -20v-667l-20 -20h-106c-66 0 -187 382 -280 413c-1 0 -3 1 -4 1c-15 0 -20 -40 -20 -41v-353c0 -7 -16 -20 -23 -20h-93c-15 0 -27 22 -27 33v634c0 18 17 35 33 40h44c42 0 63 3 90 -34l200 -326
c1 -3 34 -61 49 -61zM306 770c0 37 47 123 87 123h100c9 0 8 -13 8 -17c0 -32 -71 -123 -108 -123h-80c-8 0 -7 13 -7 17z" />
    <glyph glyph-name="nacute" unicode="&#x144;" horiz-adv-x="560" 
d="M53 20v480c0 9 11 20 20 20h87c5 -4 30 -27 43 -27c43 0 86 41 134 41c85 0 163 -64 163 -154v-360c0 -5 -21 -20 -27 -20h-86l-24 20v333c0 48 -51 61 -85 61c-23 0 -88 -12 -88 -47v-340c0 -1 -7 -10 -10 -14c-4 -5 -13 -13 -20 -13h-87zM233 620c0 23 57 120 80 120
h107c8 0 7 -13 7 -17v-10c-39 -52 -78 -114 -147 -114c-5 0 -28 1 -33 1c-12 6 -14 10 -14 20z" />
    <glyph glyph-name="Ncommaaccent" unicode="&#x145;" horiz-adv-x="706" 
d="M279 -199c0 26 14 146 41 146h60c15 0 20 -30 20 -40c0 -37 -26 -148 -76 -148c-23 0 -45 18 -45 42zM476 286c5 0 13 6 14 7v380c0 12 27 31 37 34h36c7 0 70 4 70 -20v-667l-20 -20h-106c-66 0 -187 382 -280 413c-1 0 -3 1 -4 1c-15 0 -20 -40 -20 -41v-353
c0 -7 -16 -20 -23 -20h-93c-15 0 -27 22 -27 33v634c0 18 17 35 33 40h44c42 0 63 3 90 -34l200 -326c1 -3 34 -61 49 -61z" />
    <glyph glyph-name="ncommaaccent" unicode="&#x146;" horiz-adv-x="560" 
d="M206 -198c0 54 1 152 71 152c29 0 50 -8 50 -40c0 -40 -23 -148 -76 -148c-24 0 -45 9 -45 36zM53 20v480c0 9 11 20 20 20h87c5 -4 30 -27 43 -27c43 0 86 41 134 41c85 0 163 -64 163 -154v-360c0 -5 -21 -20 -27 -20h-86l-24 20v333c0 48 -51 61 -85 61
c-23 0 -88 -12 -88 -47v-340c0 -1 -7 -10 -10 -14c-4 -5 -13 -13 -20 -13h-87z" />
    <glyph glyph-name="Ncaron" unicode="&#x147;" horiz-adv-x="706" 
d="M476 286c5 0 13 6 14 7v380c0 12 27 31 37 34h36c7 0 70 4 70 -20v-667l-20 -20h-106c-66 0 -187 382 -280 413c-1 0 -3 1 -4 1c-15 0 -20 -40 -20 -41v-353c0 -7 -16 -20 -23 -20h-93c-15 0 -27 22 -27 33v634c0 18 17 35 33 40h44c42 0 63 3 90 -34l200 -326
c1 -3 34 -61 49 -61zM193 867v10c0 5 -1 14 7 16c5 1 28 1 33 1c52 0 73 -48 117 -48c43 0 65 48 115 48c6 0 49 7 49 -13c0 -63 -106 -122 -164 -122c-6 0 -31 1 -37 1c-39 13 -103 89 -120 107z" />
    <glyph glyph-name="ncaron" unicode="&#x148;" horiz-adv-x="560" 
d="M53 20v480c0 9 11 20 20 20h87c5 -4 30 -27 43 -27c43 0 86 41 134 41c85 0 163 -64 163 -154v-360c0 -5 -21 -20 -27 -20h-86l-24 20v333c0 48 -51 61 -85 61c-23 0 -88 -12 -88 -47v-340c0 -1 -7 -10 -10 -14c-4 -5 -13 -13 -20 -13h-87zM120 740h80
c27 0 47 -38 73 -47h4c32 0 47 47 76 47h80c8 0 8 -9 8 -13c0 -1 -1 -6 -1 -7c-39 -41 -93 -114 -158 -114c-47 0 -162 70 -162 107v27z" />
    <glyph glyph-name="napostrophe" unicode="&#x149;" horiz-adv-x="560" 
d="M50 20v440c0 47 -77 35 -77 84c0 51 31 132 34 183l13 13h73l14 -13c0 -1 1 -28 1 -38c0 -51 -29 -93 -29 -139c0 -20 117 -57 124 -57c43 0 86 41 134 41c85 0 163 -64 163 -154v-360c0 -5 -21 -20 -27 -20h-86l-24 20v333c0 48 -51 61 -85 61c-23 0 -88 -12 -88 -47
v-340c0 -1 -7 -10 -10 -14c-4 -5 -13 -13 -20 -13h-87z" />
    <glyph glyph-name="Eng" unicode="&#x14a;" horiz-adv-x="703" 
d="M220 427c-5 0 -17 -25 -17 -27v-380l-23 -20h-93c-15 0 -27 22 -27 33v640c0 15 21 30 33 34h44c50 0 70 -3 96 -47l220 -367c5 -7 15 -13 24 -13h3c3 2 10 12 10 13v387c0 30 61 27 73 27c16 0 70 5 70 -27v-740c0 -102 -101 -154 -187 -154c-30 0 -66 5 -66 43
c0 98 107 56 107 149c0 30 -4 29 -27 69l-213 360c-4 5 -18 20 -27 20z" />
    <glyph glyph-name="eng" unicode="&#x14b;" horiz-adv-x="564" 
d="M260 -193c0 5 -1 28 -1 33c0 108 108 19 108 160v300c0 62 -16 114 -83 114c-30 0 -94 -10 -94 -54v-340l-23 -20h-87c-6 0 -27 15 -27 20v480l20 20h87c11 -13 27 -34 47 -34c41 0 81 48 130 48c109 0 170 -92 170 -194v-373c0 -112 -82 -181 -188 -181
c-27 0 -42 -2 -59 21z" />
    <glyph glyph-name="Omacron" unicode="&#x14c;" horiz-adv-x="690" 
d="M40 350c0 185 96 364 300 364c209 0 301 -176 301 -364c0 -190 -92 -357 -301 -357c-203 0 -300 170 -300 357zM187 350c0 -108 27 -237 156 -237c131 0 151 136 151 241c0 101 -23 240 -151 240c-130 0 -156 -141 -156 -244zM166 817c0 9 8 36 21 36h306
c17 0 27 -24 27 -36c0 -13 -10 -37 -27 -37h-300c-17 0 -27 23 -27 37z" />
    <glyph glyph-name="omacron" unicode="&#x14d;" horiz-adv-x="565" 
d="M33 256c0 148 82 278 244 278c157 0 250 -121 250 -270c0 -126 -55 -237 -187 -271h-60c-158 0 -247 108 -247 263zM173 260c0 -75 19 -154 107 -154c86 0 107 82 107 154c0 75 -22 154 -109 154s-105 -81 -105 -154zM106 667c0 15 6 40 27 40h287c24 0 34 -20 34 -40
c0 -7 -2 -34 -14 -34h-320c-17 0 -14 27 -14 34z" />
    <glyph glyph-name="Obreve" unicode="&#x14e;" horiz-adv-x="690" 
d="M40 350c0 181 99 370 304 370c207 0 297 -191 297 -370c0 -190 -92 -357 -301 -357c-203 0 -300 170 -300 357zM187 350c0 -108 27 -237 156 -237c131 0 151 136 151 241c0 101 -23 240 -151 240c-130 0 -156 -141 -156 -244zM180 860c0 28 25 27 47 27
c53 0 63 -54 114 -54c53 0 63 56 116 56c4 0 25 -2 30 -2c15 -5 14 -18 14 -29c0 -72 -98 -112 -158 -112c-58 0 -163 41 -163 114z" />
    <glyph glyph-name="obreve" unicode="&#x14f;" horiz-adv-x="565" 
d="M33 256c0 148 82 278 244 278c157 0 250 -121 250 -270c0 -126 -55 -237 -187 -271h-60c-158 0 -247 108 -247 263zM173 260c0 -75 19 -154 107 -154c86 0 107 82 107 154c0 75 -22 154 -109 154s-105 -81 -105 -154zM119 709c0 28 15 32 41 32c51 0 66 -61 117 -61
c53 0 67 61 120 61c19 0 44 -7 44 -31c0 -78 -100 -111 -161 -111c-64 0 -161 32 -161 110z" />
    <glyph glyph-name="Ohungarumlaut" unicode="&#x150;" horiz-adv-x="690" 
d="M40 350c0 185 96 364 300 364c209 0 301 -176 301 -364c0 -190 -92 -357 -301 -357c-203 0 -300 170 -300 357zM187 350c0 -108 27 -237 156 -237c131 0 151 136 151 241c0 101 -23 240 -151 240c-130 0 -156 -141 -156 -244zM213 773c0 59 66 121 120 121
c5 0 29 0 34 -1c11 -6 14 -10 14 -19c0 -48 -79 -121 -124 -121c-13 0 -44 -2 -44 20zM392 773c0 32 60 120 95 120h73c9 0 7 -17 7 -20v-13c-35 -42 -75 -107 -136 -107c-19 0 -39 -4 -39 20z" />
    <glyph glyph-name="ohungarumlaut" unicode="&#x151;" horiz-adv-x="565" 
d="M33 256c0 148 82 278 244 278c157 0 250 -121 250 -270c0 -126 -55 -237 -187 -271h-60c-158 0 -247 108 -247 263zM173 260c0 -75 19 -154 107 -154c86 0 107 82 107 154c0 75 -22 154 -109 154s-105 -81 -105 -154zM153 623c0 27 46 117 74 117h80c8 0 7 -13 7 -16
c0 -50 -74 -124 -124 -124c-18 0 -37 3 -37 23zM326 620c0 33 61 120 94 120h80c7 0 7 -9 7 -13c0 -50 -91 -127 -144 -127c-14 0 -37 2 -37 20z" />
    <glyph glyph-name="OE" unicode="&#x152;" horiz-adv-x="968" 
d="M880 117c4 0 27 -22 27 -24v-73l-20 -20c-1 -1 -309 -5 -440 -7h-167c-116 18 -233 123 -233 247v227c0 158 160 247 298 247c16 0 69 -1 75 -1c68 0 385 -5 453 -6c6 -1 34 -9 34 -20v-74c0 -6 -13 -23 -20 -23h-274c-5 -3 -23 -19 -26 -23v-120c0 -13 23 -30 33 -30
h220c24 0 21 -44 21 -54c0 -12 -1 -60 -28 -60h-226l-20 -23v-140c0 -7 13 -23 20 -23h273zM353 601c-88 0 -166 -50 -166 -148v-206c0 -55 49 -140 113 -140h107c9 0 26 17 26 26v434c0 14 -21 30 -33 33c-7 0 -40 1 -47 1z" />
    <glyph glyph-name="oe" unicode="&#x153;" horiz-adv-x="901" 
d="M40 260c0 146 86 274 243 274c66 0 112 -21 170 -54h14c56 0 104 54 170 54c147 0 223 -112 223 -251v-36c-3 -8 -16 -30 -27 -30h-260c-12 0 -20 -21 -20 -31c0 -66 79 -80 126 -80c39 0 74 15 112 15c30 0 43 -31 43 -59c0 -68 -130 -69 -174 -69
c-86 0 -138 48 -190 48c-46 0 -78 -48 -123 -48h-120c-130 0 -187 165 -187 267zM180 260c0 -75 19 -154 107 -154c83 0 106 83 106 154c0 74 -24 154 -110 154c-85 0 -103 -82 -103 -154zM553 343c0 -11 15 -30 27 -30h107c18 0 27 21 27 36c0 44 -36 65 -75 65
c-38 0 -86 -26 -86 -71z" />
    <glyph glyph-name="Racute" unicode="&#x154;" horiz-adv-x="638" 
d="M93 707h124c158 0 364 -4 364 -210c0 -125 -108 -180 -108 -220v-4c36 -73 122 -171 122 -253c0 -3 -1 -13 -2 -13l-13 -7h-107c-7 0 -24 15 -26 20l-114 213c-2 5 -19 20 -26 20h-74c-13 0 -30 -26 -30 -33v-200c0 -7 -16 -20 -23 -20h-93c-15 0 -27 22 -27 33v634
c0 18 17 35 33 40zM240 587c-17 -5 -33 -22 -33 -40v-134c0 -17 11 -28 26 -33c9 0 51 -1 60 -1c78 0 141 14 141 104c0 6 0 32 -1 37c-25 63 -82 67 -143 67h-50zM246 773c0 2 0 12 1 14c14 23 43 76 73 100c3 2 12 6 13 6h94c10 0 14 -12 14 -20c0 -1 -1 -5 -1 -6
c-23 -32 -77 -114 -113 -114h-74c-9 0 -7 18 -7 20z" />
    <glyph glyph-name="racute" unicode="&#x155;" horiz-adv-x="364" 
d="M203 499c35 0 57 29 94 29c4 0 25 -1 30 -1c5 -4 20 -18 20 -27v-73c0 -9 -15 -23 -20 -27c-38 -2 -137 -11 -137 -73v-307l-23 -20h-87c-10 0 -27 17 -27 27v466c0 6 15 27 20 27h87c16 0 26 -21 43 -21zM152 623c0 2 1 9 1 10c8 13 45 69 54 80c6 8 24 27 26 27h107
c8 0 7 -13 7 -17v-10c-40 -51 -78 -114 -147 -114c-5 0 -28 1 -33 1c-13 5 -15 13 -15 23z" />
    <glyph glyph-name="Rcommaaccent" unicode="&#x156;" horiz-adv-x="638" 
d="M226 -198c0 54 1 152 71 152c29 0 50 -8 50 -40c0 -40 -23 -148 -76 -148c-24 0 -45 9 -45 36zM93 707h124c158 0 364 -4 364 -210c0 -125 -108 -180 -108 -220v-4c36 -73 122 -171 122 -253c0 -3 -1 -13 -2 -13l-13 -7h-107c-7 0 -24 15 -26 20l-114 213
c-2 5 -19 20 -26 20h-74c-13 0 -30 -26 -30 -33v-200c0 -7 -16 -20 -23 -20h-93c-15 0 -27 22 -27 33v634c0 18 17 35 33 40zM240 587c-17 -5 -33 -22 -33 -40v-134c0 -17 11 -28 26 -33c9 0 51 -1 60 -1c78 0 141 14 141 104c0 6 0 32 -1 37c-25 63 -82 67 -143 67h-50z
" />
    <glyph glyph-name="rcommaaccent" unicode="&#x157;" horiz-adv-x="364" 
d="M53 -198c0 53 3 152 70 152c32 0 51 -9 51 -43c0 -44 -22 -145 -76 -145c-24 0 -45 9 -45 36zM203 499c35 0 57 29 94 29c4 0 25 -1 30 -1c5 -4 20 -18 20 -27v-73c0 -9 -15 -23 -20 -27c-38 -2 -137 -11 -137 -73v-307l-23 -20h-87c-10 0 -27 17 -27 27v466
c0 6 15 27 20 27h87c16 0 26 -21 43 -21z" />
    <glyph glyph-name="Rcaron" unicode="&#x158;" horiz-adv-x="638" 
d="M93 707h124c158 0 364 -4 364 -210c0 -125 -108 -180 -108 -220v-4c36 -73 122 -171 122 -253c0 -3 -1 -13 -2 -13l-13 -7h-107c-7 0 -24 15 -26 20l-114 213c-2 5 -19 20 -26 20h-74c-13 0 -30 -26 -30 -33v-200c0 -7 -16 -20 -23 -20h-93c-15 0 -27 22 -27 33v634
c0 18 17 35 33 40zM240 587c-17 -5 -33 -22 -33 -40v-134c0 -17 11 -28 26 -33c9 0 51 -1 60 -1c78 0 141 14 141 104c0 6 0 32 -1 37c-25 63 -82 67 -143 67h-50zM227 773l-87 80c-7 7 -14 14 -14 24c0 4 11 14 14 16c5 1 28 1 33 1c51 0 74 -48 118 -48c31 0 46 47 76 47
h73c8 0 7 -13 7 -16v-10c-50 -53 -88 -108 -163 -108c-21 0 -40 -3 -57 14z" />
    <glyph glyph-name="rcaron" unicode="&#x159;" horiz-adv-x="364" 
d="M203 499c35 0 57 29 94 29c4 0 25 -1 30 -1c5 -4 20 -18 20 -27v-73c0 -9 -15 -23 -20 -27c-38 -2 -137 -11 -137 -73v-307l-23 -20h-87c-10 0 -27 17 -27 27v466c0 6 15 27 20 27h87c16 0 26 -21 43 -21zM40 740h80c27 0 47 -38 73 -47h4c32 0 47 47 76 47h80
c8 0 8 -9 8 -13c0 -1 -1 -6 -1 -7c-39 -41 -93 -114 -158 -114c-47 0 -162 70 -162 107v27z" />
    <glyph glyph-name="Sacute" unicode="&#x15a;" horiz-adv-x="614" 
d="M39 182c0 20 7 32 28 38c5 0 31 1 36 1c100 0 102 -115 214 -115c47 0 110 16 110 77c0 149 -368 95 -368 337c0 130 131 201 252 201c100 0 256 -63 256 -185c0 -12 -1 -36 -20 -36h-87c-41 0 -53 94 -150 94c-48 0 -104 -10 -104 -69c0 -147 368 -102 368 -338
c0 -149 -136 -194 -262 -194c-109 0 -273 54 -273 189zM266 770c0 29 57 123 94 123h93c10 0 8 -17 8 -20c0 -2 -1 -11 -1 -13c-38 -45 -81 -114 -147 -114c-4 0 -22 0 -26 1c-4 2 -21 17 -21 23z" />
    <glyph glyph-name="sacute" unicode="&#x15b;" horiz-adv-x="514" 
d="M32 133c0 8 0 27 15 27h86c42 0 62 -67 118 -67c36 0 77 1 77 47c0 104 -282 47 -282 236c0 108 114 158 207 158c75 0 214 -39 214 -137c0 -11 -15 -30 -27 -30h-80c-29 0 -46 47 -73 60h-34c-34 0 -68 -5 -68 -47c0 -101 288 -46 288 -230c0 -118 -124 -157 -220 -157
c-79 0 -221 33 -221 140zM213 620c0 39 39 120 80 120h107c7 0 7 -9 7 -13c0 -27 -83 -127 -114 -127h-73c-9 0 -7 17 -7 20z" />
    <glyph glyph-name="Scircumflex" unicode="&#x15c;" horiz-adv-x="614" 
d="M39 182c0 20 7 32 28 38c5 0 31 1 36 1c100 0 102 -115 214 -115c47 0 110 16 110 77c0 149 -368 95 -368 337c0 137 131 194 254 194c102 0 254 -50 254 -178c0 -12 -1 -36 -20 -36h-87c-41 0 -53 94 -150 94c-48 0 -104 -10 -104 -69c0 -147 368 -102 368 -338
c0 -149 -136 -194 -262 -194c-109 0 -273 54 -273 189zM153 773v7c49 52 88 114 160 114c73 0 102 -52 154 -107c2 -1 7 -11 6 -14c0 -3 -10 -12 -13 -13c-5 0 -28 -1 -33 -1c-51 0 -68 48 -114 48c-45 0 -62 -48 -113 -48c-5 0 -28 1 -33 1c-3 2 -12 11 -14 13z" />
    <glyph glyph-name="scircumflex" unicode="&#x15d;" horiz-adv-x="514" 
d="M32 133c0 8 0 27 15 27h86c42 0 62 -67 118 -67c36 0 77 1 77 47c0 104 -282 47 -282 236c0 108 114 158 207 158c75 0 214 -39 214 -137c0 -11 -15 -30 -27 -30h-80c-29 0 -46 47 -73 60h-34c-34 0 -68 -5 -68 -47c0 -101 288 -46 288 -230c0 -118 -124 -157 -220 -157
c-79 0 -221 33 -221 140zM99 623c0 2 1 9 1 10c40 43 63 74 107 100c3 2 12 7 13 7h73c29 0 109 -95 120 -107c1 -1 1 -5 1 -6c0 -10 -3 -15 -14 -20c-4 0 -23 -1 -27 -1c-49 0 -74 54 -116 54c-45 0 -69 -54 -120 -54c-5 0 -26 0 -30 1c-9 2 -8 11 -8 16z" />
    <glyph glyph-name="Scedilla" unicode="&#x15e;" horiz-adv-x="614" 
d="M266 -187c0 29 21 46 41 67v10c0 25 -15 28 -34 43c-17 15 -15 43 -33 54c-79 47 -201 81 -201 195c0 20 7 32 28 38c5 0 31 1 36 1c100 0 102 -115 214 -115c47 0 110 16 110 77c0 149 -368 95 -368 337c0 137 131 194 254 194c102 0 254 -50 254 -178
c0 -12 -1 -36 -20 -36h-87c-41 0 -53 94 -150 94c-48 0 -104 -10 -104 -69c0 -147 368 -102 368 -338c0 -149 -182 -192 -182 -210c0 -33 42 -51 42 -90c0 -68 -72 -114 -134 -114c-24 0 -34 20 -34 40z" />
    <glyph glyph-name="scedilla" unicode="&#x15f;" horiz-adv-x="514" 
d="M206 -187c0 31 47 45 47 74c0 5 -74 103 -80 106c-52 32 -141 61 -141 140c0 8 0 27 15 27h86c42 0 62 -67 118 -67c36 0 77 1 77 47c0 104 -282 47 -282 236c0 109 114 158 207 158c75 0 214 -39 214 -137c0 -11 -15 -30 -27 -30h-80c-29 0 -46 47 -73 60h-34
c-34 0 -68 -5 -68 -47c0 -101 288 -46 288 -230c0 -110 -147 -139 -147 -173c0 -2 0 -9 1 -10c31 -27 47 -48 47 -89c0 -67 -70 -105 -129 -105c-25 0 -39 14 -39 40z" />
    <glyph glyph-name="Scaron" unicode="&#x160;" horiz-adv-x="614" 
d="M39 182c0 20 7 32 28 38c5 0 31 1 36 1c100 0 102 -115 214 -115c47 0 110 16 110 77c0 149 -368 95 -368 337c0 137 131 194 254 194c102 0 254 -50 254 -178c0 -12 -1 -36 -20 -36h-87c-41 0 -53 94 -150 94c-48 0 -104 -10 -104 -69c0 -147 368 -102 368 -338
c0 -149 -136 -194 -262 -194c-109 0 -273 54 -273 189zM153 867v10c0 3 -1 16 7 16h73c1 0 11 -4 14 -6l53 -40h27c7 6 45 34 53 40c3 2 12 6 13 6h74c8 0 7 -13 7 -16c0 -2 0 -9 -1 -10c-44 -48 -90 -108 -160 -108s-115 59 -160 108z" />
    <glyph glyph-name="scaron" unicode="&#x161;" horiz-adv-x="514" 
d="M32 133c0 8 0 27 15 27h86c42 0 62 -67 118 -67c36 0 77 1 77 47c0 104 -282 47 -282 236c0 108 114 158 207 158c75 0 214 -39 214 -137c0 -11 -15 -30 -27 -30h-80c-29 0 -46 47 -73 60h-34c-34 0 -68 -5 -68 -47c0 -101 288 -46 288 -230c0 -118 -124 -157 -220 -157
c-79 0 -221 33 -221 140zM93 720v7c0 4 0 13 7 13h80c29 0 43 -47 73 -47c31 0 47 47 74 47h80c8 0 7 -14 7 -18c0 -46 -105 -116 -161 -116c-74 0 -109 60 -160 114z" />
    <glyph glyph-name="uni0162" unicode="&#x162;" horiz-adv-x="618" 
d="M230 567c-3 2 -26 20 -30 23h-160l-20 23c0 1 -1 20 -1 27c0 25 -3 67 34 67h507c36 0 34 -34 34 -57c0 -6 0 -60 -21 -60h-166c-11 0 -24 -22 -27 -30l-7 -547v-20c0 -39 48 -57 48 -101c0 -68 -59 -112 -125 -112c-14 0 -28 1 -36 13c-1 4 -2 20 -2 24c0 31 8 48 42 70
v6c0 30 -50 65 -60 100c-1 4 -8 23 -10 27v547z" />
    <glyph glyph-name="uni0163" unicode="&#x163;" horiz-adv-x="337" 
d="M160 -187c0 37 41 45 41 81c0 18 -124 164 -124 233v273c0 27 -71 5 -71 73c0 60 38 35 67 74c1 9 -4 106 40 106h74c8 0 23 -15 26 -20c5 -150 95 -72 95 -165c0 -61 -88 -30 -88 -81v-220c0 -79 94 -43 94 -117c0 -32 -28 -46 -28 -73c0 -2 0 -9 1 -10
c28 -28 40 -44 40 -80c0 -68 -70 -114 -134 -114c-16 0 -33 25 -33 40z" />
    <glyph glyph-name="Tcaron" unicode="&#x164;" horiz-adv-x="618" 
d="M230 567c-3 2 -26 20 -30 23h-160l-20 23c0 1 -1 20 -1 27c0 25 -3 67 34 67h507c36 0 34 -34 34 -57c0 -6 0 -60 -21 -60h-166c-4 0 -16 -13 -20 -17c-3 -3 -10 -13 -10 -13v-540l-24 -20h-93c-7 0 -16 8 -20 13c-3 4 -10 13 -10 14v540zM467 880v-7
c-1 -2 -6 -11 -7 -13c-34 -33 -66 -69 -107 -93c-3 -2 -12 -7 -13 -7h-73c-1 0 -10 5 -14 7c-43 26 -67 57 -106 100c-1 1 -1 8 -1 10c0 5 -1 14 7 16c5 1 29 1 34 1c50 0 73 -48 116 -48c44 0 66 48 117 48c5 0 28 0 33 -1c3 -1 12 -11 14 -13z" />
    <glyph glyph-name="tcaron" unicode="&#x165;" horiz-adv-x="357" 
d="M6 473c0 60 38 35 67 74c1 9 -4 106 40 106h74c8 0 23 -15 26 -20c5 -150 95 -72 95 -165c0 -61 -88 -30 -88 -81v-220c0 -79 94 -43 94 -117c0 -18 -6 -57 -34 -57h-100c-58 0 -103 85 -103 134v273c0 27 -71 5 -71 73zM299 603c0 54 31 126 34 184c16 20 29 20 54 20
c40 0 53 -12 53 -53c0 -52 -25 -188 -97 -188c-19 0 -44 15 -44 37z" />
    <glyph glyph-name="Tbar" unicode="&#x166;" horiz-adv-x="618" 
d="M227 567c-3 2 -22 23 -27 23h-160l-20 23c0 1 -1 20 -1 27c0 25 -3 67 34 67h507c36 0 34 -34 34 -57c0 -6 0 -60 -21 -60h-166c-1 0 -10 -7 -14 -10c-5 -4 -13 -13 -13 -20v-80c0 -48 87 -12 87 -73c0 -59 -90 -29 -90 -74v-313l-24 -20h-93c-7 0 -16 8 -20 13
c-3 4 -10 13 -10 14v313c0 39 -104 5 -104 70c0 16 8 27 21 37c10 0 80 0 80 33v87z" />
    <glyph glyph-name="tbar" unicode="&#x167;" horiz-adv-x="337" 
d="M73 233c-18 46 -87 3 -87 65c0 69 88 23 88 85c0 52 -68 29 -68 90c0 60 38 35 67 74c1 9 -4 106 40 106h74c8 0 23 -15 26 -20c5 -150 95 -72 95 -165c0 -62 -88 -29 -88 -85c0 -61 101 -15 101 -82c0 -73 -101 -18 -101 -107c0 -120 94 -60 94 -144
c0 -18 -6 -57 -34 -57h-100c-108 0 -105 184 -107 240z" />
    <glyph glyph-name="Utilde" unicode="&#x168;" horiz-adv-x="658" 
d="M167 707c7 0 27 -18 30 -20v-447c0 -78 53 -134 130 -134c49 0 123 35 123 94v473c0 12 27 31 37 34h36c7 0 70 4 70 -20v-500c0 -104 -111 -176 -200 -194h-66c-106 0 -267 52 -267 187v507c0 5 21 20 27 20h80zM146 793c0 50 56 94 102 94c47 0 83 -34 129 -34
c33 0 51 41 86 41c23 0 38 -16 38 -38c0 -55 -61 -90 -108 -90c-45 0 -80 28 -126 28c-35 0 -48 -34 -84 -34c-19 0 -37 13 -37 33z" />
    <glyph glyph-name="utilde" unicode="&#x169;" horiz-adv-x="559" 
d="M167 520c3 -3 23 -21 23 -27v-333c0 -41 52 -54 82 -54c26 0 91 18 91 54v340l24 20h93l20 -20v-480c0 -7 -21 -18 -27 -20c-5 0 -31 -1 -36 -1c-36 0 -57 22 -90 22c-28 0 -47 -28 -74 -28h-100c-57 0 -120 77 -120 134v373c0 9 11 20 20 20h94zM100 643
c0 53 53 91 101 91c47 0 82 -28 128 -28c34 0 51 35 84 35c17 0 41 -10 41 -31c0 -51 -59 -97 -107 -97c-44 0 -79 34 -123 34c-35 0 -47 -35 -82 -35c-24 0 -42 4 -42 31z" />
    <glyph glyph-name="Umacron" unicode="&#x16a;" horiz-adv-x="658" 
d="M167 707c7 0 27 -18 30 -20v-447c0 -78 53 -134 130 -134c49 0 123 35 123 94v473c0 12 27 31 37 34h36c7 0 70 4 70 -20v-500c0 -104 -111 -176 -200 -194h-66c-106 0 -267 52 -267 187v507c0 5 21 20 27 20h80zM153 820c0 13 0 33 20 33h307c20 0 21 -24 21 -36
c0 -15 -8 -37 -28 -37h-300c-21 0 -20 27 -20 40z" />
    <glyph glyph-name="umacron" unicode="&#x16b;" horiz-adv-x="559" 
d="M167 520c3 -3 23 -21 23 -27v-333c0 -41 52 -54 82 -54c26 0 91 18 91 54v340l24 20h93l20 -20v-480c0 -7 -21 -18 -27 -20c-5 0 -31 -1 -36 -1c-36 0 -57 22 -90 22c-28 0 -47 -28 -74 -28h-100c-57 0 -120 77 -120 134v373c0 9 11 20 20 20h94zM100 667
c0 14 17 40 33 40h287c23 0 34 -19 34 -37c0 -9 -8 -37 -21 -37h-313c-11 0 -20 25 -20 34z" />
    <glyph glyph-name="Ubreve" unicode="&#x16c;" horiz-adv-x="658" 
d="M167 707c7 0 27 -18 30 -20v-447c0 -78 53 -134 130 -134c49 0 123 35 123 94v473c0 12 27 31 37 34h36c7 0 70 4 70 -20v-500c0 -104 -111 -176 -200 -194h-66c-106 0 -267 52 -267 187v507c0 5 21 20 27 20h80zM166 858c0 11 -2 24 14 29h27c54 0 65 -54 120 -54
c51 0 62 54 116 54h30c9 -6 14 -17 14 -27c0 -80 -103 -107 -164 -107s-157 27 -157 105z" />
    <glyph glyph-name="ubreve" unicode="&#x16d;" horiz-adv-x="559" 
d="M167 520c3 -3 23 -21 23 -27v-333c0 -41 52 -54 82 -54c26 0 91 18 91 54v340l24 20h93l20 -20v-480c0 -7 -21 -18 -27 -20c-5 0 -31 -1 -36 -1c-36 0 -57 22 -90 22c-28 0 -47 -28 -74 -28h-100c-57 0 -120 77 -120 134v373c0 9 11 20 20 20h94zM113 710
c0 25 29 31 47 31c51 0 64 -61 117 -61c52 0 66 61 116 61c22 0 47 -6 47 -34c0 -75 -109 -107 -163 -107c-60 0 -164 32 -164 110z" />
    <glyph glyph-name="Uring" unicode="&#x16e;" horiz-adv-x="658" 
d="M167 707c7 0 27 -18 30 -20v-447c0 -78 53 -134 130 -134c49 0 123 35 123 94v473c0 12 27 31 37 34h36c7 0 70 4 70 -20v-500c0 -104 -111 -176 -200 -194h-66c-106 0 -267 52 -267 187v507c0 5 21 20 27 20h80zM220 843c0 54 50 97 103 97c57 0 104 -43 104 -98
c0 -59 -46 -96 -104 -96c-54 0 -103 42 -103 97zM279 843c0 -28 17 -50 48 -50c21 0 47 25 47 47c0 30 -22 47 -51 47s-44 -14 -44 -44z" />
    <glyph glyph-name="uring" unicode="&#x16f;" horiz-adv-x="559" 
d="M167 520c3 -3 23 -21 23 -27v-333c0 -41 52 -54 82 -54c26 0 91 18 91 54v340l24 20h93l20 -20v-480c0 -7 -21 -18 -27 -20c-5 0 -31 -1 -36 -1c-36 0 -57 22 -90 22c-28 0 -47 -28 -74 -28h-100c-57 0 -120 77 -120 134v373c0 9 11 20 20 20h94zM172 690
c0 56 51 97 105 97c56 0 104 -41 104 -97c0 -55 -50 -97 -104 -97c-55 0 -105 42 -105 97zM233 667c13 -17 24 -21 44 -21c19 0 31 4 43 21c0 3 2 19 2 23c0 32 -14 45 -45 45c-32 0 -45 -13 -45 -45c0 -4 1 -20 1 -23z" />
    <glyph glyph-name="Uhungarumlaut" unicode="&#x170;" horiz-adv-x="658" 
d="M167 707c7 0 27 -18 30 -20v-447c0 -78 53 -134 130 -134c49 0 123 35 123 94v473c0 12 27 31 37 34h36c7 0 70 4 70 -20v-500c0 -104 -111 -176 -200 -194h-66c-106 0 -267 52 -267 187v507c0 5 21 20 27 20h80zM199 776c0 29 49 117 81 117h73c10 0 8 -17 8 -20
c0 -2 -1 -11 -1 -13c-32 -44 -61 -108 -123 -108c-4 0 -20 1 -24 1c-13 6 -14 12 -14 23zM373 773c0 66 74 121 134 121c5 0 28 0 33 -1c3 -2 14 -12 14 -16c0 -33 -87 -104 -101 -117c-14 -9 -27 -7 -43 -7h-23c-12 6 -14 10 -14 20z" />
    <glyph glyph-name="uhungarumlaut" unicode="&#x171;" horiz-adv-x="559" 
d="M167 520c3 -3 23 -21 23 -27v-333c0 -41 52 -54 82 -54c26 0 91 18 91 54v340l24 20h93l20 -20v-480c0 -7 -21 -18 -27 -20c-5 0 -31 -1 -36 -1c-36 0 -57 22 -90 22c-28 0 -47 -28 -74 -28h-100c-57 0 -120 77 -120 134v373c0 9 11 20 20 20h94zM153 627
c0 22 49 113 74 113h80c8 0 7 -13 7 -16c0 -49 -78 -124 -124 -124c-22 0 -37 5 -37 27zM326 624c0 29 61 116 94 116h80c1 0 5 -9 7 -13v-4c0 -47 -93 -123 -144 -123c-18 0 -37 3 -37 24z" />
    <glyph glyph-name="Uogonek" unicode="&#x172;" horiz-adv-x="658" 
d="M167 707c7 0 27 -18 30 -20v-447c0 -78 53 -134 130 -134c49 0 123 35 123 94v473c0 12 27 31 37 34h36c7 0 70 4 70 -20v-500c0 -115 -173 -169 -173 -237c0 -45 74 -31 74 -80c0 -37 -41 -44 -70 -44c-91 0 -114 68 -117 147c-34 52 -247 37 -247 207v507
c0 5 21 20 27 20h80z" />
    <glyph glyph-name="uogonek" unicode="&#x173;" horiz-adv-x="559" 
d="M167 520c3 -3 23 -21 23 -27v-333c0 -41 52 -54 82 -54c26 0 91 18 91 54v340l24 20h93l20 -20v-480c0 -42 -80 -53 -80 -103c0 -48 68 -26 68 -78c0 -40 -35 -46 -68 -46c-63 0 -107 37 -107 100c0 51 35 79 35 125c-26 0 -48 -25 -75 -25h-100c-57 0 -120 77 -120 134
v373c0 9 11 20 20 20h94z" />
    <glyph glyph-name="Wcircumflex" unicode="&#x174;" horiz-adv-x="874" 
d="M26 672c0 18 9 29 27 35h37c44 0 60 1 77 -40c9 -52 56 -295 66 -347c2 -8 7 -47 24 -47h3c4 3 13 12 13 14l94 386c8 34 43 34 70 34c35 0 61 -8 70 -47l86 -367c3 -10 10 -20 21 -20c13 0 17 25 19 34l67 346c5 24 14 47 40 54h37c20 0 70 4 70 -30v-4
c-1 -4 -6 -27 -7 -33l-133 -600c-2 -14 -16 -40 -34 -40h-100c-20 0 -29 33 -33 47l-87 346c-2 6 -8 21 -16 21c-15 0 -21 -24 -24 -34c-13 -52 -74 -295 -86 -347c-4 -12 -19 -33 -34 -33h-100c-30 0 -38 70 -40 80l-120 540c-6 28 -7 28 -7 52zM280 773
c0 58 101 121 157 121c67 0 113 -61 156 -107c1 -2 1 -9 1 -10c0 -6 1 -15 -7 -17c-5 0 -29 -1 -34 -1c-48 0 -71 48 -112 48c-46 0 -69 -48 -121 -48c-5 0 -28 1 -33 1c-8 2 -7 7 -7 13z" />
    <glyph glyph-name="wcircumflex" unicode="&#x175;" horiz-adv-x="734" 
d="M26 487c0 7 -3 33 14 33h87c7 0 24 -24 26 -33l40 -187c2 -8 7 -58 27 -53c67 16 19 274 143 274c99 0 108 -192 124 -248c2 -7 12 -24 20 -26c40 -10 41 273 93 273h87c16 0 14 -26 14 -33c0 -3 -1 -17 -1 -20l-100 -394c-3 -9 -13 -73 -40 -73h-73
c-65 0 -76 281 -124 281c-10 0 -20 -19 -23 -28l-67 -220c-3 -12 -19 -33 -33 -33h-73c-21 0 -30 33 -34 47l-106 420c-1 1 -1 15 -1 20zM206 623c0 2 0 9 1 10c39 43 63 74 106 100c4 2 13 7 14 7h73c28 0 109 -95 120 -107c0 -1 1 -8 1 -10c0 -21 -26 -17 -41 -17
c-50 0 -75 54 -117 54c-43 0 -66 -54 -115 -54c-15 0 -42 -5 -42 17z" />
    <glyph glyph-name="Ycircumflex" unicode="&#x176;" horiz-adv-x="618" 
d="M230 254l-210 413s-1 9 -1 12c0 17 4 22 21 28h43c166 0 149 -287 224 -287c2 0 12 5 13 7c39 75 74 245 160 280h43c23 0 71 9 71 -28c0 -1 -1 -5 -1 -6l-200 -393c-4 -15 -10 -32 -16 -47v-213c0 -7 -17 -20 -24 -20h-93c-7 0 -16 8 -20 13c-3 4 -10 13 -10 14v227z
M146 777l1 3c53 57 85 114 160 114c70 0 106 -57 153 -107c3 -1 7 -11 7 -14c-1 -3 -10 -12 -14 -13c-5 0 -28 -1 -33 -1c-50 0 -69 48 -113 48c-35 0 -50 -47 -80 -47h-74s-5 9 -6 13c0 1 -1 3 -1 4z" />
    <glyph glyph-name="ycircumflex" unicode="&#x177;" horiz-adv-x="501" 
d="M59 -157c0 88 116 52 116 155c0 5 -1 21 -2 22l-160 467v10c0 8 1 23 14 23h106c35 0 88 -232 100 -267c3 -7 8 -7 14 -7c49 0 60 274 120 274h100c14 0 14 -19 14 -27c0 -2 -1 -11 -1 -13l-180 -520c-32 -91 -75 -174 -184 -174c-45 0 -57 13 -57 57zM92 623
c0 2 1 9 1 10c32 34 69 72 107 100c3 2 12 7 13 7h74c1 0 10 -5 13 -7c41 -27 74 -64 107 -100c0 -1 1 -8 1 -10c0 -22 -28 -17 -43 -17c-48 0 -74 54 -115 54c-42 0 -67 -54 -117 -54c-15 0 -41 -4 -41 17z" />
    <glyph glyph-name="Ydieresis" unicode="&#x178;" horiz-adv-x="618" 
d="M230 254l-210 413s-1 9 -1 12c0 17 4 22 21 28h43c166 0 149 -287 224 -287c2 0 12 5 13 7c39 75 74 245 160 280h43c23 0 71 9 71 -28c0 -1 -1 -5 -1 -6l-200 -393c-4 -15 -10 -32 -16 -47v-213c0 -7 -17 -20 -24 -20h-93c-7 0 -16 8 -20 13c-3 4 -10 13 -10 14v227z
M126 811c0 38 25 63 65 63c36 0 56 -30 56 -62c0 -39 -26 -53 -62 -53c-33 0 -59 17 -59 52zM366 813c0 32 21 61 57 61c35 0 64 -23 64 -60c0 -33 -25 -55 -57 -55c-39 0 -64 12 -64 54z" />
    <glyph glyph-name="Zacute" unicode="&#x179;" horiz-adv-x="605" 
d="M33 46c0 46 28 77 54 114l240 347c11 16 26 39 33 53v3c0 8 -10 27 -20 27h-280c-25 0 -27 47 -27 60c0 19 6 57 34 57h466c9 0 23 -15 27 -20c0 -5 1 -26 1 -30c0 -33 0 -39 -21 -70l-300 -440c0 -1 -1 -5 -1 -7c0 -8 4 -23 14 -23h287c27 0 34 -46 34 -64
c0 -16 -2 -53 -27 -53h-487c-22 0 -27 31 -27 46zM260 770c0 24 52 123 87 123h100c8 0 7 -14 7 -17c0 -29 -73 -123 -107 -123h-80c-9 0 -7 13 -7 17z" />
    <glyph glyph-name="zacute" unicode="&#x17a;" horiz-adv-x="508" 
d="M33 46c0 34 13 53 34 81l186 246c1 2 1 12 1 14c0 8 1 23 -14 23h-173c-22 0 -28 40 -28 55c0 17 2 55 28 55h373c23 0 21 -29 21 -41c0 -38 -10 -53 -34 -86l-180 -240c-6 -7 -7 -12 -7 -20s2 -23 13 -23h194l20 -23v-67l-20 -20h-387c-22 0 -27 31 -27 46zM206 620
c0 21 54 120 87 120h100c9 0 8 -14 8 -17c0 -21 -8 -22 -28 -43c-10 -11 -62 -63 -73 -73c-10 -12 -38 -8 -47 -8c-5 0 -28 1 -33 1c-12 6 -14 10 -14 20z" />
    <glyph glyph-name="Zdotaccent" unicode="&#x17b;" horiz-adv-x="605" 
d="M33 46c0 46 28 77 54 114l240 347c11 16 26 39 33 53v3c0 8 -10 27 -20 27h-280c-25 0 -27 47 -27 60c0 19 6 57 34 57h466c9 0 23 -15 27 -20c0 -5 1 -26 1 -30c0 -33 0 -39 -21 -70l-300 -440c0 -1 -1 -5 -1 -7c0 -8 4 -23 14 -23h287c27 0 34 -46 34 -64
c0 -16 -2 -53 -27 -53h-487c-22 0 -27 31 -27 46zM239 833c0 26 0 39 34 54c5 0 26 1 30 1c44 0 65 -18 65 -63c0 -41 -28 -59 -65 -59c-42 0 -64 25 -64 67z" />
    <glyph glyph-name="zdotaccent" unicode="&#x17c;" horiz-adv-x="508" 
d="M33 46c0 34 13 53 34 81l186 246c1 2 1 12 1 14c0 8 1 23 -14 23h-173c-22 0 -28 40 -28 55c0 17 2 55 28 55h373c23 0 21 -29 21 -41c0 -38 -10 -53 -34 -86l-180 -240c-6 -7 -7 -12 -7 -20s2 -23 13 -23h194l20 -23v-67l-20 -20h-387c-22 0 -27 31 -27 46zM186 678
c0 39 28 62 67 62c33 0 67 -29 67 -63c0 -40 -33 -64 -71 -64c-42 0 -63 27 -63 65z" />
    <glyph glyph-name="Zcaron" unicode="&#x17d;" horiz-adv-x="605" 
d="M33 46c0 46 28 77 54 114l240 347c11 16 26 39 33 53v3c0 8 -10 27 -20 27h-280c-25 0 -27 47 -27 60c0 19 6 57 34 57h466c9 0 23 -15 27 -20c0 -5 1 -26 1 -30c0 -33 0 -39 -21 -70l-300 -440c0 -1 -1 -5 -1 -7c0 -8 4 -23 14 -23h287c27 0 34 -46 34 -64
c0 -16 -2 -53 -27 -53h-487c-22 0 -27 31 -27 46zM467 880v-7c-1 -2 -6 -11 -7 -13c-34 -33 -66 -69 -107 -93c-3 -2 -12 -7 -13 -7h-73c-1 0 -10 5 -14 7c-43 26 -67 57 -106 100c-1 1 -1 8 -1 10c0 5 -1 14 7 16c5 1 29 1 34 1c50 0 73 -48 116 -48c44 0 66 48 117 48
c5 0 28 0 33 -1c3 -1 12 -11 14 -13z" />
    <glyph glyph-name="zcaron" unicode="&#x17e;" horiz-adv-x="508" 
d="M33 46c0 34 13 53 34 81l186 246c1 2 1 12 1 14c0 8 1 23 -14 23h-173c-22 0 -28 40 -28 55c0 17 2 55 28 55h373c23 0 21 -29 21 -41c0 -38 -10 -53 -34 -86l-180 -240c-6 -7 -7 -12 -7 -20s2 -23 13 -23h194l20 -23v-67l-20 -20h-387c-22 0 -27 31 -27 46zM93 713v10
c0 4 -1 17 7 17h73c30 0 49 -47 81 -47c29 0 44 47 73 47h80c7 0 7 -9 7 -13c0 -1 -1 -6 -1 -7c-39 -41 -92 -114 -158 -114c-72 0 -115 57 -162 107z" />
    <glyph glyph-name="longs" unicode="&#x17f;" horiz-adv-x="259" 
d="M247 754c30 0 74 -1 74 -42c0 -112 -124 -45 -124 -119v-560c0 -10 -18 -33 -30 -33h-87c-9 0 -20 11 -20 20v600c0 93 112 134 187 134z" />
    <glyph glyph-name="florin" unicode="&#x192;" horiz-adv-x="360" 
d="M-13 -193c-1 4 -1 25 -1 30c0 89 94 46 94 103v460c0 29 -67 5 -67 73c0 63 42 31 67 74c10 16 12 65 13 73c16 93 102 134 188 134c30 0 73 -3 73 -43c0 -101 -121 -44 -121 -141v-23c34 -46 95 -6 95 -79c0 -63 -98 -30 -98 -68v-440c0 -105 -85 -174 -184 -174
c-27 0 -42 -2 -59 21z" />
    <glyph glyph-name="Ohorn" unicode="&#x1a0;" horiz-adv-x="701" 
d="M39 354c0 187 94 360 301 360c95 0 172 -75 220 -75c74 0 28 122 103 122c27 0 44 -11 44 -39c0 -86 -94 -142 -94 -185c0 -61 27 -124 27 -187c0 -189 -95 -357 -300 -357c-207 0 -301 170 -301 361zM186 350c0 -105 21 -238 154 -238c82 0 147 71 147 155v173
c0 82 -71 154 -152 154c-129 0 -149 -145 -149 -244z" />
    <glyph glyph-name="ohorn" unicode="&#x1a1;" horiz-adv-x="581" 
d="M33 256c0 148 82 278 244 278c67 0 121 -55 179 -55c56 0 26 95 87 95c24 0 37 -17 37 -40c0 -62 -67 -96 -67 -149c0 -42 14 -82 14 -125c0 -156 -95 -267 -250 -267c-156 0 -244 110 -244 263zM173 260c0 -75 18 -154 105 -154c85 0 109 83 109 154
c0 76 -26 154 -112 154s-102 -83 -102 -154z" />
    <glyph glyph-name="Uhorn" unicode="&#x1af;" horiz-adv-x="712" 
d="M167 707c7 0 27 -18 30 -20v-447c0 -78 53 -134 130 -134c49 0 123 35 123 94v473c0 12 27 31 37 34h36c24 0 56 4 70 -20c1 -12 1 -81 33 -81c73 0 55 134 87 134h54l13 -13c0 -1 1 -18 1 -25c0 -165 -184 -179 -184 -215v-300c-40 -102 -91 -171 -204 -194h-66
c-106 0 -267 52 -267 187v507c0 5 21 20 27 20h80z" />
    <glyph glyph-name="uhorn" unicode="&#x1b0;" horiz-adv-x="609" 
d="M167 520c3 -3 23 -21 23 -27v-333c0 -41 52 -54 82 -54c26 0 91 18 91 54v340l24 20h93c24 0 18 -41 43 -41c54 0 22 89 83 89c12 0 30 2 34 -15c0 -4 1 -22 1 -26c0 -98 -138 -138 -138 -160v-347c0 -5 -24 -18 -30 -20c-5 0 -31 -1 -36 -1c-36 0 -57 22 -90 22
c-28 0 -47 -28 -74 -28h-100c-57 0 -120 77 -120 134v373c0 9 11 20 20 20h94z" />
    <glyph glyph-name="uni01F0" unicode="&#x1f0;" horiz-adv-x="281" 
d="M-41 -166c0 87 111 45 111 126v540l23 20h94l20 -20v-560c0 -97 -95 -154 -181 -154c-35 0 -67 5 -67 48zM-27 700c0 2 -2 11 -2 13c0 24 24 21 42 21c49 0 76 -54 117 -54c43 0 67 54 117 54c13 0 47 1 47 -17c0 -46 -111 -124 -164 -124c-68 0 -114 61 -157 107z" />
    <glyph glyph-name="Aringacute" unicode="&#x1fa;" 
d="M13 27v6l234 627c1 2 5 21 6 27v3c0 25 -14 48 -14 74c0 66 83 79 94 143c45 50 45 60 100 60h34c8 -2 7 -12 7 -18c0 -45 -101 -54 -101 -92v-4c27 -26 54 -53 54 -92v-21c-1 -5 -13 -48 -14 -53c0 -1 5 -20 7 -27l13 -40l207 -553c4 -11 13 -39 13 -40
c1 -6 -16 -27 -20 -27h-100c-60 0 -33 140 -93 140h-213c-60 0 -34 -140 -94 -140h-100c-14 0 -20 16 -20 27zM259 293c0 -8 0 -26 14 -26h120c13 0 15 15 15 23c0 2 -1 9 -1 10c-8 24 -45 136 -54 160c-3 10 -8 21 -20 21c-9 0 -16 -3 -20 -14l-53 -160c0 -1 -1 -11 -1 -14
zM299 760c0 -27 14 -34 39 -34c24 0 30 11 30 34c0 18 -8 40 -31 40c-26 0 -38 -17 -38 -40z" />
    <glyph glyph-name="aringacute" unicode="&#x1fb;" horiz-adv-x="536" 
d="M33 145c0 223 301 133 301 211c0 42 -32 71 -73 71c-44 0 -60 -17 -94 -54h-100c-15 0 -15 19 -15 27c0 77 135 112 135 143c0 23 -15 43 -15 67c0 56 37 64 75 97c40 35 27 113 120 113c15 0 40 -1 40 -20c0 -45 -101 -53 -101 -93c0 -1 1 -6 1 -7c22 -24 53 -53 53 -90
c0 -22 -14 -40 -14 -60c0 -42 118 -80 127 -163c1 -118 14 -243 14 -362c0 -15 -5 -20 -20 -25c-7 0 -37 -1 -44 -1c-38 0 -62 22 -96 22c-38 0 -75 -28 -118 -28c-90 0 -176 53 -176 152zM173 160c0 -39 36 -61 70 -61c57 0 91 33 91 90c0 7 0 24 -1 24l-20 20
c0 1 -17 1 -24 1c-46 0 -116 -13 -116 -74zM226 610c0 -28 20 -37 42 -37c20 0 33 13 33 32c0 24 -13 42 -39 42c-16 0 -36 -20 -36 -37z" />
    <glyph glyph-name="AEacute" unicode="&#x1fc;" horiz-adv-x="939" 
d="M19 23c0 25 14 39 28 64l313 580c11 18 28 40 53 40h427c34 0 34 -33 34 -57c0 -20 -1 -60 -34 -60h-233l-14 -17v-126c0 -14 27 -30 34 -30h186c25 0 21 -49 21 -57c0 -5 0 -28 -1 -33c-1 -2 -22 -24 -26 -24h-180c-19 0 -27 -33 -27 -45v-11l7 -107
c4 -13 17 -30 33 -30h247c18 0 20 -47 20 -57c0 -16 -2 -53 -27 -53h-387c-58 0 5 153 -53 153h-180c-8 0 -24 -15 -27 -20l-60 -113c-2 -5 -19 -20 -26 -20h-114c-13 0 -14 15 -14 23zM326 307c0 -32 37 -28 61 -28c27 0 56 -2 66 28c0 5 1 31 1 36c0 54 -2 79 -7 144
c2 13 -9 14 -17 14c-15 0 -14 -4 -23 -21c-13 -24 -69 -136 -80 -160c-1 -2 -1 -11 -1 -13zM406 777c0 29 59 123 94 123h93c10 0 8 -17 8 -20c0 -2 -1 -11 -1 -13c-38 -47 -80 -114 -147 -114c-17 0 -47 -1 -47 24z" />
    <glyph glyph-name="aeacute" unicode="&#x1fd;" horiz-adv-x="844" 
d="M33 154c0 208 314 123 314 196c0 47 -39 64 -79 64c-48 0 -59 -34 -101 -47c-6 0 -31 -1 -37 -1c-25 0 -77 -5 -77 34c0 97 145 134 220 134c57 0 109 -41 160 -41c53 0 100 41 157 41c144 0 224 -110 224 -247c0 -6 -1 -34 -1 -40c-2 -8 -16 -30 -26 -30h-267
c-12 0 -20 -21 -20 -31c0 -68 81 -80 129 -80c41 0 76 15 115 15c31 0 44 -31 44 -59c0 -68 -136 -69 -178 -69c-79 0 -133 48 -193 48s-112 -48 -190 -48c-106 0 -194 45 -194 161zM173 150c0 -39 45 -57 77 -57c49 0 97 23 97 77c0 42 -16 51 -56 51
c-43 0 -118 -11 -118 -71zM499 340c0 -2 1 -6 1 -7c4 -6 18 -20 20 -20h127c12 0 27 19 27 30c0 49 -40 71 -82 71c-41 0 -93 -25 -93 -74zM372 623c0 2 1 9 1 10c8 13 45 69 54 80c6 8 24 27 26 27h107c8 0 7 -13 7 -17v-10c-40 -51 -78 -114 -147 -114c-5 0 -28 1 -33 1
c-13 5 -15 13 -15 23z" />
    <glyph glyph-name="Oslashacute" unicode="&#x1fe;" horiz-adv-x="688" 
d="M92 -23c0 2 1 9 1 10l34 66v6c0 42 -69 146 -80 208c-1 12 -1 70 -1 83c0 192 92 364 303 364c48 0 90 -21 136 -21c36 0 48 41 85 41c18 0 31 0 31 -20c0 -31 -29 -50 -29 -81c0 -2 1 -11 1 -13c48 -91 74 -167 74 -270c0 -191 -99 -357 -304 -357c-44 0 -81 14 -123 14
h-13c-30 -29 -46 -54 -85 -54c-17 0 -30 5 -30 24zM286 143c0 -18 3 -23 21 -30c6 0 34 -1 40 -1c81 0 146 71 146 155v166c0 11 -11 21 -20 21c-13 0 -18 -6 -26 -21l-154 -260c-8 -14 -7 -12 -7 -30zM193 349c0 -17 -12 -116 30 -116h10c5 6 23 34 27 40l153 260
c2 3 7 17 7 20c0 36 -53 41 -77 41c-129 0 -150 -142 -150 -245zM300 806c0 68 78 128 137 128c18 0 58 8 58 -20c0 -23 -8 -26 -28 -47c-11 -12 -62 -63 -74 -74c-9 -10 -33 -7 -43 -7c-13 0 -50 -3 -50 20z" />
    <glyph glyph-name="oslashacute" unicode="&#x1ff;" horiz-adv-x="564" 
d="M99 -44c0 22 15 38 15 60c0 65 -81 128 -81 240c0 204 134 286 327 277c33 12 35 54 74 54c18 0 27 -9 27 -26c0 -24 -15 -42 -15 -66c0 -37 81 -128 81 -231c0 -102 -55 -274 -187 -274h-140l-53 -57c-1 0 -11 -1 -15 -1c-17 0 -33 4 -33 24zM266 132
c0 -23 1 -26 23 -26c82 0 98 91 98 155c0 14 5 60 -21 60c-9 0 -14 -3 -19 -14l-80 -160c-1 -1 -1 -11 -1 -15zM173 213c4 -10 9 -20 21 -20c9 0 14 2 19 14l87 173c0 1 1 7 1 10c0 21 -16 24 -34 24c-80 0 -94 -93 -94 -154v-47zM213 613v7c12 30 59 101 67 107l20 13h100
c3 0 13 -9 13 -13c5 -23 -85 -127 -113 -127h-73c-2 0 -11 9 -14 13z" />
    <glyph glyph-name="uni0218" unicode="&#x218;" horiz-adv-x="614" 
d="M240 -200c0 27 21 136 47 147h26c17 0 36 2 47 -14c0 -5 1 -28 1 -33c0 -39 -20 -141 -73 -141c-22 0 -48 16 -48 41zM39 182c0 20 7 32 28 38c5 0 31 1 36 1c100 0 102 -115 214 -115c47 0 110 16 110 77c0 149 -368 95 -368 337c0 137 131 194 254 194
c102 0 254 -50 254 -178c0 -12 -1 -36 -20 -36h-87c-41 0 -53 94 -150 94c-48 0 -104 -10 -104 -69c0 -147 368 -102 368 -338c0 -138 -131 -200 -254 -200c-111 0 -281 61 -281 195z" />
    <glyph glyph-name="uni0219" unicode="&#x219;" horiz-adv-x="514" 
d="M180 -207c6 58 9 148 77 148c4 0 25 -1 30 -1c10 -6 20 -21 20 -33c0 -41 -24 -154 -81 -154c-18 0 -48 17 -46 40zM32 133c0 8 0 27 15 27h86c42 0 62 -67 118 -67c36 0 77 1 77 47c0 104 -282 47 -282 236c0 109 114 158 207 158c75 0 214 -39 214 -137
c0 -11 -15 -30 -27 -30h-80c-29 0 -46 47 -73 60h-34c-29 0 -73 -6 -73 -47c0 -98 293 -46 293 -230c0 -118 -124 -157 -220 -157c-79 0 -221 33 -221 140z" />
    <glyph glyph-name="uni021A" unicode="&#x21a;" horiz-adv-x="618" 
d="M232 -198c0 46 7 152 71 152c29 0 51 -8 51 -40c0 -41 -22 -154 -77 -154c-25 0 -45 18 -45 42zM230 567c-3 2 -26 20 -30 23h-160l-20 23c0 1 -1 20 -1 27c0 25 -3 67 34 67h507c36 0 34 -34 34 -57c0 -6 0 -60 -21 -60h-166c-4 0 -16 -13 -20 -17
c-3 -3 -10 -13 -10 -13v-540l-24 -20h-93c-7 0 -16 8 -20 13c-3 4 -10 13 -10 14v540z" />
    <glyph glyph-name="uni021B" unicode="&#x21b;" horiz-adv-x="337" 
d="M133 -203c0 19 26 150 47 150h60c11 0 20 -28 20 -34c0 -39 -25 -154 -79 -154c-19 0 -48 14 -48 38zM6 473c0 60 38 35 67 74c1 9 -4 106 40 106h74c8 0 23 -15 26 -20c5 -150 95 -72 95 -165c0 -61 -88 -30 -88 -81v-220c0 -79 94 -43 94 -117c0 -18 -6 -57 -34 -57
h-100c-58 0 -103 85 -103 134v273c0 27 -71 5 -71 73z" />
    <glyph glyph-name="uni0237" unicode="&#x237;" horiz-adv-x="281" 
d="M-41 -166c0 87 111 45 111 126v540l23 20h94l20 -20v-560c0 -97 -95 -154 -181 -154c-35 0 -67 5 -67 48z" />
    <glyph glyph-name="schwa" unicode="&#x259;" horiz-adv-x="529" 
d="M39 223c0 9 1 49 1 57c1 7 11 23 20 23h253c20 0 28 16 28 31c0 59 -68 86 -117 86c-42 0 -81 -20 -121 -20c-31 0 -44 32 -44 61c0 63 144 73 185 73c158 0 250 -119 250 -271c0 -142 -76 -270 -231 -270c-143 0 -224 87 -224 230zM179 174c0 -44 38 -68 78 -68
s84 29 84 74c0 11 -5 27 -21 27h-113c-17 0 -28 -20 -28 -33z" />
    <glyph glyph-name="uni02BC" unicode="&#x2bc;" horiz-adv-x="229" 
d="M40 544c0 17 45 196 47 196h73c18 0 20 -38 20 -49c0 -48 -26 -185 -95 -185c-24 0 -45 10 -45 38z" />
    <glyph glyph-name="circumflex" unicode="&#x2c6;" horiz-adv-x="495" 
d="M86 623c0 2 0 9 1 10c39 43 63 74 106 100c4 2 13 7 14 7h73c28 0 109 -95 120 -107c0 -1 1 -8 1 -10c0 -21 -26 -17 -41 -17c-50 0 -75 54 -117 54c-43 0 -66 -54 -115 -54c-15 0 -42 -5 -42 17z" />
    <glyph glyph-name="caron" unicode="&#x2c7;" horiz-adv-x="470" 
d="M73 740h80c29 0 47 -47 77 -47c32 0 48 47 77 47h80c7 0 7 -9 7 -13c0 -1 -1 -6 -1 -7c-39 -42 -93 -114 -158 -114c-47 0 -162 70 -162 107v27z" />
    <glyph glyph-name="breve" unicode="&#x2d8;" horiz-adv-x="443" 
d="M59 711c0 26 16 30 41 30c51 0 65 -61 117 -61s65 61 116 61c19 0 47 -6 47 -31c0 -76 -105 -110 -163 -110c-66 0 -158 32 -158 111z" />
    <glyph glyph-name="dotaccent" unicode="&#x2d9;" horiz-adv-x="265" 
d="M59 669c0 41 31 58 68 58s67 -17 67 -58c0 -40 -28 -63 -67 -63s-68 23 -68 63z" />
    <glyph glyph-name="ring" unicode="&#x2da;" horiz-adv-x="333" 
d="M59 643c0 61 51 97 108 97c56 0 100 -41 100 -98c0 -60 -49 -90 -104 -90s-104 31 -104 91zM119 649c0 -32 11 -50 44 -50c26 0 51 15 51 44c0 26 -25 51 -51 51s-44 -20 -44 -45z" />
    <glyph glyph-name="ogonek" unicode="&#x2db;" horiz-adv-x="300" 
d="M19 -107c0 56 42 122 104 122c4 0 20 -1 24 -2c13 -5 14 -12 14 -23c0 -29 -35 -42 -35 -74c0 -50 68 -24 68 -81c0 -37 -38 -42 -67 -42c-64 0 -108 35 -108 100z" />
    <glyph glyph-name="tilde" unicode="&#x2dc;" horiz-adv-x="480" 
d="M60 639c0 58 57 96 108 96c43 0 75 -29 117 -29c39 0 56 35 93 35c19 0 36 -9 36 -30c0 -55 -55 -98 -107 -98c-46 0 -81 34 -126 34c-33 0 -46 -35 -81 -35c-17 0 -40 4 -40 27z" />
    <glyph glyph-name="hungarumlaut" unicode="&#x2dd;" horiz-adv-x="410" 
d="M46 627c0 27 49 113 81 113h80s5 -9 6 -13c0 -1 1 -3 1 -4c0 -50 -81 -123 -131 -123c-19 0 -37 5 -37 27zM226 623c0 27 62 117 87 117h80c9 0 8 -14 8 -17c0 -21 -8 -22 -28 -43c-10 -11 -62 -63 -73 -73c-16 -6 -23 -7 -37 -7c-17 0 -37 3 -37 23z" />
    <glyph glyph-name="uni02F3" unicode="&#x2f3;" horiz-adv-x="313" 
d="M73 -113c0 46 35 80 84 80c47 0 84 -34 84 -80c0 -53 -32 -81 -84 -81s-84 29 -84 81zM127 -113c0 -17 19 -28 32 -28c15 0 28 7 28 24c0 16 -16 31 -30 31c-13 0 -30 -13 -30 -27z" />
    <glyph glyph-name="gravecomb" unicode="&#x300;" horiz-adv-x="0" 
d="M-360 720c0 8 0 12 7 20c5 0 28 1 33 1c57 0 94 -52 94 -111c0 -22 -21 -24 -37 -24c-48 0 -97 71 -97 114z" />
    <glyph glyph-name="acutecomb" unicode="&#x301;" horiz-adv-x="0" 
d="M-300 633c3 23 34 107 60 107h67c9 0 7 -19 7 -21c0 -38 -53 -113 -97 -113c-17 0 -40 2 -37 27z" />
    <glyph glyph-name="tildecomb" unicode="&#x303;" horiz-adv-x="0" 
d="M-448 643c0 56 50 91 101 91c47 0 83 -28 129 -28c34 0 47 35 80 35c28 0 39 -7 39 -34c0 -51 -51 -94 -101 -94c-44 0 -79 34 -122 34c-38 0 -54 -34 -93 -34c-23 0 -33 6 -33 30z" />
    <glyph glyph-name="hook" unicode="&#x309;" horiz-adv-x="0" 
d="M-355 651c0 2 1 8 2 9l46 47c1 0 1 4 1 6c0 32 -48 29 -48 64c0 26 15 30 40 30c53 0 135 -23 135 -90c0 -56 -74 -98 -124 -98c-5 0 -26 1 -30 1c-16 8 -22 16 -22 31z" />
    <glyph glyph-name="uni030F" unicode="&#x30f;" horiz-adv-x="0" 
d="M-473 707c-1 1 -1 8 -1 10c0 3 -1 16 7 16h87c32 0 94 -65 94 -103c0 -5 1 -15 -7 -17c-5 0 -29 -1 -34 -1c-64 0 -105 49 -146 95zM-287 716c0 4 -1 17 7 17h80c37 0 87 -73 87 -103c0 -3 1 -17 -7 -17h-73c-32 0 -94 66 -94 103z" />
    <glyph glyph-name="dotbelow" unicode="&#x323;" horiz-adv-x="72" 
d="M-367 -115c0 41 30 62 70 62c39 0 77 -25 77 -67c0 -40 -44 -61 -77 -61c-44 0 -70 22 -70 66z" />
    <glyph glyph-name="tonos" unicode="&#x384;" horiz-adv-x="336" 
d="M113 643c0 11 6 130 47 130h73c13 0 15 -15 15 -23c0 -2 -1 -9 -1 -10c-18 -40 -39 -127 -97 -127c-22 0 -37 6 -37 30z" />
    <glyph glyph-name="dieresistonos" unicode="&#x385;" horiz-adv-x="548" 
d="M53 663c0 36 26 58 60 58c35 0 62 -20 62 -58c0 -34 -25 -57 -58 -57c-36 0 -64 20 -64 57zM353 663c0 38 28 58 64 58c33 0 58 -23 58 -58c0 -37 -27 -57 -62 -57c-34 0 -60 22 -60 57zM233 735c0 24 -5 112 34 112h73c5 0 13 -20 13 -20c0 -1 1 -3 1 -4
c0 -36 -43 -130 -86 -130c-30 0 -35 14 -35 42z" />
    <glyph glyph-name="Alphatonos" unicode="&#x386;" 
d="M13 27v6l227 607c8 22 20 67 53 67h80c22 0 42 -38 47 -54l220 -586c4 -10 13 -38 13 -40c1 -6 -16 -27 -20 -27h-100c-60 0 -33 140 -93 140h-213c-60 0 -34 -140 -94 -140h-100c-14 0 -20 15 -20 27zM259 293c0 -8 0 -26 14 -26h120c13 0 15 15 15 23c0 2 -1 9 -1 10
c-8 24 -45 136 -54 160c-3 10 -8 21 -20 21c-9 0 -16 -3 -20 -14l-53 -160c0 -1 -1 -11 -1 -14zM47 647c2 14 16 79 20 93c2 9 19 33 26 33h80c11 0 8 -22 8 -23c0 -3 -1 -14 -1 -17c-17 -40 -35 -121 -94 -121c-23 0 -37 9 -39 35z" />
    <glyph glyph-name="anoteleia" unicode="&#x387;" horiz-adv-x="301" 
d="M73 342c0 44 30 65 72 65c41 0 76 -26 76 -70c0 -42 -33 -71 -73 -71c-48 0 -75 29 -75 76z" />
    <glyph glyph-name="Epsilontonos" unicode="&#x388;" horiz-adv-x="611" 
d="M553 117c4 0 27 -21 27 -24v-73l-20 -20h-427l-20 20v667c0 10 28 20 34 20h400c37 0 34 -42 34 -67c0 -7 -1 -26 -1 -27l-20 -23h-273c-6 0 -24 -20 -27 -23v-120c0 -13 23 -30 33 -30h220c24 0 21 -44 21 -54c0 -12 -1 -60 -27 -60h-227l-20 -23v-140
c0 -7 13 -23 20 -23h273zM-67 642c0 14 13 131 47 131h73c16 0 15 -9 15 -19c0 -51 -40 -141 -100 -141c-18 0 -35 8 -35 29z" />
    <glyph glyph-name="Etatonos" unicode="&#x389;" horiz-adv-x="755" 
d="M287 300c-6 0 -30 -17 -30 -20v-253c0 -1 -7 -10 -10 -14c-5 -5 -14 -13 -20 -13h-94l-20 20v667c0 25 67 20 73 20c14 0 71 1 71 -27v-233c0 -14 28 -27 36 -27h214c9 0 36 24 36 33v234c0 23 68 20 74 20h36c12 -4 34 -19 34 -34v-640c0 -11 -12 -33 -27 -33h-93
l-24 20v247c0 17 -21 33 -36 33h-220zM-60 627v23c0 19 6 123 40 123h73l14 -6c0 -1 2 -11 2 -14c0 -48 -39 -140 -97 -140c-12 0 -28 -3 -32 14z" />
    <glyph glyph-name="Iotatonos" unicode="&#x38a;" horiz-adv-x="340" 
d="M153 707h37c15 0 70 5 70 -27v-660l-20 -20h-93c-15 0 -27 22 -27 33v640c0 15 21 30 33 34zM60 773c6 0 14 -22 14 -23s-1 -3 -1 -3c-17 -39 -40 -134 -99 -134c-26 0 -35 8 -35 33c0 17 5 127 41 127h80z" />
    <glyph glyph-name="Omicrontonos" unicode="&#x38c;" horiz-adv-x="700" 
d="M53 353c0 190 93 361 303 361c204 0 298 -182 298 -364c0 -189 -97 -357 -301 -357c-211 0 -300 171 -300 360zM199 350c0 -110 23 -238 158 -238c80 0 143 74 143 155v173c0 81 -70 154 -150 154c-130 0 -151 -142 -151 -244zM-27 642c0 14 13 131 47 131h73
c16 0 15 -9 15 -19c0 -51 -40 -141 -100 -141c-18 0 -35 8 -35 29z" />
    <glyph glyph-name="Upsilontonos" unicode="&#x38e;" horiz-adv-x="666" 
d="M277 260l-210 413c0 1 -1 5 -1 6c0 37 48 28 71 28h43c4 -2 28 -11 33 -20c45 -86 82 -175 127 -260c2 -2 11 -6 13 -7h4c64 0 57 287 220 287h43c17 -6 21 -11 21 -28c0 -3 -1 -12 -1 -12l-210 -413v-227c0 -1 -7 -10 -10 -14c-4 -5 -13 -13 -20 -13h-93
c-13 0 -30 23 -30 33v227zM-107 643c0 11 6 130 47 130h73c13 0 15 -15 15 -23c0 -2 -1 -9 -1 -10c-18 -40 -39 -127 -97 -127c-22 0 -37 6 -37 30z" />
    <glyph glyph-name="Omegatonos" unicode="&#x38f;" horiz-adv-x="681" 
d="M66 57c0 81 74 46 74 79c0 30 -35 56 -47 84c-25 59 -34 112 -34 176c0 173 96 318 281 318c182 0 280 -148 280 -317c0 -54 -6 -107 -27 -157c-13 -33 -53 -68 -53 -104c0 -35 67 -10 67 -43v-73l-20 -20h-194c-28 0 -27 44 -27 60c0 60 45 88 67 140
c24 56 21 125 21 183c0 13 0 71 -1 84c-9 62 -42 127 -113 127c-108 0 -120 -121 -120 -203c0 -70 2 -147 33 -211c22 -44 61 -62 61 -115c0 -16 3 -65 -27 -65h-194c-28 0 -27 41 -27 57zM-14 647c0 15 8 126 47 126h74c13 0 14 -15 14 -23c0 -2 -1 -9 -1 -10
c-16 -37 -39 -127 -97 -127c-25 0 -37 8 -37 34z" />
    <glyph glyph-name="iotadieresistonos" unicode="&#x390;" horiz-adv-x="336" 
d="M301 53c0 -48 -37 -60 -81 -60c-69 0 -153 39 -153 120v380c0 6 15 27 20 27h93c7 0 23 -13 23 -20v-347c0 -58 98 -31 98 -100zM233 653c0 31 28 60 60 60c33 0 67 -26 67 -60c0 -31 -32 -60 -63 -60c-34 0 -64 27 -64 60zM-67 653c0 31 28 60 60 60c37 0 61 -25 61 -60
c0 -42 -25 -54 -64 -54c-32 0 -57 21 -57 54zM113 718c0 62 -1 123 70 123c22 0 51 2 51 -28c0 -34 -42 -133 -87 -133c-25 0 -34 17 -34 38z" />
    <glyph glyph-name="Alpha" unicode="&#x391;" 
d="M13 27v6l227 607c8 22 20 67 53 67h80c22 0 42 -38 47 -54l220 -586c4 -10 13 -38 13 -40c1 -6 -16 -27 -20 -27h-100c-60 0 -33 140 -93 140h-213c-60 0 -34 -140 -94 -140h-100c-14 0 -20 15 -20 27zM259 293c0 -8 0 -26 14 -26h120c13 0 15 15 15 23c0 2 -1 9 -1 10
c-8 24 -45 136 -54 160c-3 10 -8 21 -20 21c-9 0 -16 -3 -20 -14l-53 -160c0 -1 -1 -11 -1 -14z" />
    <glyph glyph-name="Beta" unicode="&#x392;" horiz-adv-x="638" 
d="M93 707h120c141 0 354 3 354 -190c0 -74 -61 -107 -61 -154c0 -1 1 -8 1 -10c49 -41 80 -84 80 -149c0 -113 -94 -204 -207 -204h-293c-15 0 -27 22 -27 33v634c0 18 17 35 33 40zM282 307c-27 0 -75 1 -75 -40v-114c0 -5 9 -33 20 -33h140c43 0 73 52 73 90
c0 89 -89 97 -158 97zM240 587c-17 -5 -33 -22 -33 -40v-100c0 -12 11 -34 26 -34h114c47 0 74 47 74 87c0 79 -70 87 -134 87h-47z" />
    <glyph glyph-name="Gamma" unicode="&#x393;" horiz-adv-x="557" 
d="M87 0c-8 0 -20 11 -20 20v667c0 5 21 20 26 20h400c6 0 27 -15 27 -20v-80c0 -4 -19 -16 -20 -17h-260c-4 -3 -27 -21 -30 -23v-534c0 -10 -17 -33 -30 -33h-93z" />
    <glyph glyph-name="Delta" unicode="&#x394;" horiz-adv-x="730" 
d="M25 31c0 3 1 15 2 16l253 633c13 33 61 27 87 27h46c29 -12 35 -18 47 -47l247 -627v-6c0 -11 -6 -27 -20 -27h-647c-16 0 -15 23 -15 31zM219 143c0 -8 1 -23 14 -23h260c15 0 15 19 15 27c0 3 -1 12 -1 13l-120 320c-2 4 -16 18 -20 20c-1 0 -10 -4 -14 -7
c-12 -8 -16 -30 -20 -40l-113 -300c0 -1 -1 -8 -1 -10z" />
    <glyph glyph-name="Delta" unicode="&#x2206;" horiz-adv-x="730" 
d="M25 31c0 3 1 15 2 16l253 633c13 33 61 27 87 27h46c29 -12 35 -18 47 -47l247 -627v-6c0 -11 -6 -27 -20 -27h-647c-16 0 -15 23 -15 31zM219 143c0 -8 1 -23 14 -23h260c15 0 15 19 15 27c0 3 -1 12 -1 13l-120 320c-2 4 -16 18 -20 20c-1 0 -10 -4 -14 -7
c-12 -8 -16 -30 -20 -40l-113 -300c0 -1 -1 -8 -1 -10z" />
    <glyph glyph-name="Epsilon" unicode="&#x395;" horiz-adv-x="562" 
d="M534 650c0 -6 0 -60 -21 -60h-273c-37 0 -34 -71 -34 -87c0 -24 -3 -86 41 -86h220c18 0 20 -47 20 -55c0 -21 -4 -59 -34 -59h-220c-13 0 -26 -28 -26 -36v-114c0 -5 11 -36 20 -36h273c33 0 34 -40 34 -60c0 -16 1 -57 -27 -57h-420c-15 0 -27 22 -27 33v634
c0 14 17 40 33 40h407c36 0 34 -34 34 -57z" />
    <glyph glyph-name="Zeta" unicode="&#x396;" horiz-adv-x="605" 
d="M33 46c0 46 28 77 54 114l240 347c11 16 26 39 33 53v3c0 8 -10 27 -20 27h-280c-25 0 -27 47 -27 60c0 19 6 57 34 57h466c9 0 23 -15 27 -20c0 -5 1 -26 1 -30c0 -33 0 -39 -21 -70l-300 -440c0 -1 -1 -5 -1 -7c0 -8 4 -23 14 -23h287c27 0 34 -46 34 -64
c0 -16 -2 -53 -27 -53h-487c-22 0 -27 31 -27 46z" />
    <glyph glyph-name="Eta" unicode="&#x397;" horiz-adv-x="706" 
d="M173 707c8 0 27 -17 30 -20v-227c0 -18 27 -40 44 -40h206c5 0 37 11 37 20v233c0 12 27 31 37 34h36c7 0 70 4 70 -20v-667l-20 -20h-93c-13 0 -30 23 -30 33v247c0 2 -25 20 -30 20h-220c-14 0 -37 -27 -37 -40v-240c0 -7 -16 -20 -23 -20h-93c-15 0 -27 22 -27 33v634
c0 14 17 40 33 40h80z" />
    <glyph glyph-name="Theta" unicode="&#x398;" horiz-adv-x="687" 
d="M39 350c0 188 92 364 301 364c205 0 301 -175 301 -364c0 -188 -96 -357 -301 -357s-301 169 -301 357zM186 350c0 -104 24 -238 154 -238s154 134 154 238s-24 244 -155 244c-132 0 -153 -141 -153 -244zM253 350c0 12 -5 50 20 50h140c25 0 21 -38 21 -50
c0 -24 0 -57 -34 -57h-113c-34 0 -34 33 -34 57z" />
    <glyph glyph-name="Iota" unicode="&#x399;" horiz-adv-x="291" 
d="M146 707c16 0 67 3 67 -27v-653c0 -10 -17 -27 -26 -27h-87c-6 0 -27 15 -27 20v660c0 32 58 27 73 27z" />
    <glyph glyph-name="Kappa" unicode="&#x39a;" horiz-adv-x="634" 
d="M173 707c8 0 27 -17 30 -20v-220l10 -34c1 0 7 -2 9 -2c18 0 26 14 38 29l167 213c10 14 33 34 53 34h100c8 0 29 -7 27 -20c-1 -5 -10 -24 -14 -27l-180 -227c-10 -12 -20 -27 -20 -43c0 -118 221 -250 221 -370c0 -11 2 -20 -14 -20h-120c-8 0 -23 15 -27 20l-140 213
c-3 5 -21 24 -26 27c-1 0 -5 1 -6 1c-40 0 -72 -59 -74 -94c-2 -22 -7 -125 -7 -147c-1 -9 -10 -20 -20 -20h-93c-15 0 -27 22 -27 33v634c0 14 17 40 33 40h80z" />
    <glyph glyph-name="Lambda" unicode="&#x39b;" horiz-adv-x="647" 
d="M19 27c0 4 1 12 1 13l213 633c6 16 23 34 40 34h94c16 0 35 -19 40 -34l213 -640v-6c0 -11 -6 -27 -20 -27h-100c-79 0 -117 454 -180 454c-58 0 -113 -454 -180 -454h-100c-16 0 -21 16 -21 27z" />
    <glyph glyph-name="Mu" unicode="&#x39c;" horiz-adv-x="875" 
d="M667 427c0 2 -7 6 -10 7c-19 0 -34 -53 -37 -61l-127 -346c-19 -25 -29 -28 -60 -28c-36 0 -54 11 -66 48l-120 326c-3 9 -18 61 -37 61c-1 0 -3 0 -3 -1c-2 -2 -7 -11 -7 -13v-400c0 -9 -11 -20 -20 -20h-93c-15 0 -27 22 -27 33v634c0 14 17 40 33 40h127
c14 0 36 -15 40 -27l153 -427c4 -11 10 -20 24 -20c12 0 22 32 23 34l140 393c7 20 21 47 47 47h126c12 0 34 -22 34 -34v-646c0 -10 -17 -27 -27 -27h-93l-20 20v407z" />
    <glyph glyph-name="Nu" unicode="&#x39d;" horiz-adv-x="706" 
d="M476 286c5 0 13 6 14 7v380c0 12 27 31 37 34h36c7 0 70 4 70 -20v-667l-20 -20h-106c-66 0 -187 382 -280 413c-1 0 -3 1 -4 1c-15 0 -20 -40 -20 -41v-353c0 -7 -16 -20 -23 -20h-93c-15 0 -27 22 -27 33v634c0 18 17 35 33 40h44c42 0 63 3 90 -34l200 -326
c1 -3 34 -61 49 -61z" />
    <glyph glyph-name="Xi" unicode="&#x39e;" horiz-adv-x="566" 
d="M46 47c0 14 -4 66 27 66h414c35 0 34 -35 34 -60c0 -5 -1 -28 -1 -33c-4 -5 -18 -20 -27 -20h-426l-20 20c-1 1 -1 20 -1 27zM100 357c0 11 2 50 20 50h327c19 0 20 -41 20 -50c0 -19 -6 -57 -34 -57h-300c-26 0 -33 38 -33 57zM501 650c0 -7 1 -57 -21 -57h-400
c-9 0 -20 11 -20 20v74c0 10 28 20 33 20h374c33 0 34 -33 34 -57z" />
    <glyph glyph-name="Omicron" unicode="&#x39f;" horiz-adv-x="690" 
d="M40 353c0 185 96 361 300 361c209 0 301 -176 301 -364c0 -193 -91 -357 -301 -357c-206 0 -300 172 -300 360zM187 353c0 -108 26 -240 156 -240c131 0 151 136 151 241c0 101 -23 240 -151 240s-156 -138 -156 -241z" />
    <glyph glyph-name="Pi" unicode="&#x3a0;" horiz-adv-x="707" 
d="M87 0c-8 0 -20 11 -20 20v667c0 5 21 20 26 20h514c5 0 26 -15 26 -20v-667c0 -9 -11 -20 -20 -20h-93c-13 0 -30 23 -30 33v534c-3 2 -23 20 -30 20h-220c-7 0 -27 -18 -30 -20v-534c0 -10 -17 -33 -30 -33h-93z" />
    <glyph glyph-name="Rho" unicode="&#x3a1;" horiz-adv-x="645" 
d="M601 474c0 -134 -85 -180 -194 -224h-160c-16 0 -44 -28 -44 -43v-187c0 -7 -16 -20 -23 -20h-93c-15 0 -27 22 -27 33v634c0 14 17 40 33 40h260c136 0 248 -96 248 -233zM240 587c-17 -5 -33 -22 -33 -40v-140c0 -19 16 -35 33 -40c8 -1 45 -1 53 -1
c78 0 161 12 161 107c0 93 -80 114 -157 114h-57z" />
    <glyph glyph-name="Sigma" unicode="&#x3a3;" horiz-adv-x="566" 
d="M33 40c0 125 201 198 201 317c0 10 0 14 -7 23l-174 227c-10 14 -20 38 -20 57c0 15 15 43 34 43h420c37 0 34 -42 34 -67c0 -7 -1 -26 -1 -27l-20 -23h-227c-12 0 -14 -19 -14 -27c0 -15 2 -13 14 -30l107 -146c9 -9 7 -24 7 -35c0 -82 -128 -132 -128 -211
c0 -2 -1 -24 8 -24h233c33 0 34 -40 34 -60c0 -16 1 -57 -27 -57h-447c-19 0 -27 26 -27 40z" />
    <glyph glyph-name="Tau" unicode="&#x3a4;" horiz-adv-x="618" 
d="M230 567c-3 2 -26 20 -30 23h-160l-20 23c0 1 -1 20 -1 27c0 25 -3 67 34 67h507c36 0 34 -34 34 -57c0 -6 0 -60 -21 -60h-166c-4 0 -16 -13 -20 -17c-3 -3 -10 -13 -10 -13v-540l-24 -20h-93c-7 0 -16 8 -20 13c-3 4 -10 13 -10 14v540z" />
    <glyph glyph-name="Upsilon" unicode="&#x3a5;" horiz-adv-x="618" 
d="M230 254l-210 413s-1 9 -1 12c0 17 4 22 21 28h43c166 0 149 -287 224 -287c2 0 12 5 13 7c39 75 74 245 160 280h43c23 0 71 9 71 -28c0 -1 -1 -5 -1 -6l-200 -393c-4 -15 -10 -32 -16 -47v-213c0 -7 -17 -20 -24 -20h-93c-7 0 -16 8 -20 13c-3 4 -10 13 -10 14v227z
" />
    <glyph glyph-name="Phi" unicode="&#x3a6;" horiz-adv-x="769" 
d="M33 347c0 159 109 246 254 280c34 19 18 67 60 80h36c114 0 38 -57 97 -80c138 -56 254 -101 254 -277c0 -101 -50 -202 -147 -243c-78 -34 -96 -20 -134 -87c-3 -6 -17 -20 -20 -20h-93c-33 0 -23 53 -40 67c-27 21 -69 20 -100 33c-103 44 -167 133 -167 247zM179 350
c0 -58 30 -138 101 -138c8 0 27 0 27 15v246c0 15 -18 14 -26 14c-70 0 -102 -78 -102 -137zM491 487c-13 0 -31 -2 -31 -20v-234c0 -18 18 -20 29 -20c72 0 98 79 98 137s-24 137 -96 137z" />
    <glyph glyph-name="Chi" unicode="&#x3a7;" horiz-adv-x="635" 
d="M32 20c0 121 175 213 175 335c0 123 -174 213 -174 328c0 34 58 24 74 24c43 0 66 4 93 -34l80 -146c6 -11 18 -34 33 -34c8 0 13 1 20 7c14 25 79 142 94 167c8 15 25 40 46 40h100c14 0 21 -13 21 -24c0 -117 -174 -209 -174 -326c0 -12 0 -18 7 -30l153 -260l20 -40
c0 -1 1 -6 1 -7c0 -8 -3 -20 -14 -20h-114c-84 0 -77 214 -157 214c-15 0 -19 -3 -29 -21l-94 -166c-1 -3 -23 -27 -33 -27h-113c-16 0 -15 9 -15 20z" />
    <glyph glyph-name="Psi" unicode="&#x3a8;" horiz-adv-x="726" 
d="M290 20v140c0 26 -263 84 -263 260v267c0 24 63 20 70 20h36c10 -3 37 -22 37 -34v-240c0 -38 52 -113 94 -113h3c7 5 23 19 23 20v347c0 23 68 20 73 20h37c10 -3 37 -22 37 -34v-340c0 -11 15 -13 23 -13c55 0 90 91 90 133v234c0 23 71 20 76 20c16 0 67 3 67 -27
v-233c0 -196 -256 -265 -256 -280v-134c0 -10 -18 -33 -30 -33h-94z" />
    <glyph glyph-name="Omega" unicode="&#x3a9;" horiz-adv-x="671" 
d="M60 20v73c0 33 67 8 67 43c0 60 -74 109 -74 177v167c0 139 151 234 274 234c184 0 280 -146 280 -317c0 -60 -3 -109 -27 -164c-14 -31 -54 -64 -54 -97c0 -30 75 1 75 -83c0 -15 -1 -53 -28 -53h-193l-20 20v80c0 31 49 65 60 93c25 63 27 134 27 201
c0 79 -14 200 -117 200c-73 0 -107 -62 -117 -127v-84c0 -63 -3 -137 27 -196c10 -20 60 -64 60 -87v-80l-20 -20h-200z" />
    <glyph glyph-name="Omega" unicode="&#x2126;" horiz-adv-x="671" 
d="M60 20v73c0 33 67 8 67 43c0 60 -74 109 -74 177v167c0 139 151 234 274 234c184 0 280 -146 280 -317c0 -60 -3 -109 -27 -164c-14 -31 -54 -64 -54 -97c0 -30 75 1 75 -83c0 -15 -1 -53 -28 -53h-193l-20 20v80c0 31 49 65 60 93c25 63 27 134 27 201
c0 79 -14 200 -117 200c-73 0 -107 -62 -117 -127v-84c0 -63 -3 -137 27 -196c10 -20 60 -64 60 -87v-80l-20 -20h-200z" />
    <glyph glyph-name="Iotadieresis" unicode="&#x3aa;" horiz-adv-x="291" 
d="M146 707c16 0 67 3 67 -27v-653c0 -10 -17 -27 -26 -27h-87c-6 0 -27 15 -27 20v660c0 32 58 27 73 27zM-41 817c0 35 32 57 64 57c33 0 64 -22 64 -57c0 -36 -31 -58 -64 -58c-32 0 -64 22 -64 58zM199 817c0 37 29 57 65 57c33 0 58 -23 58 -57c0 -38 -28 -58 -62 -58
s-61 22 -61 58z" />
    <glyph glyph-name="Upsilondieresis" unicode="&#x3ab;" horiz-adv-x="618" 
d="M230 254l-210 413s-1 9 -1 12c0 17 4 22 21 28h43c166 0 149 -287 224 -287c2 0 12 5 13 7c39 75 74 245 160 280h43c23 0 71 9 71 -28c0 -1 -1 -5 -1 -6l-200 -393c-4 -15 -10 -32 -16 -47v-213c0 -7 -17 -20 -24 -20h-93c-7 0 -16 8 -20 13c-3 4 -10 13 -10 14v227z
M126 811c0 38 25 63 65 63c36 0 56 -30 56 -62c0 -39 -26 -53 -62 -53c-33 0 -59 17 -59 52zM366 813c0 32 21 61 57 61c35 0 64 -23 64 -60c0 -33 -25 -55 -57 -55c-39 0 -64 12 -64 54z" />
    <glyph glyph-name="alphatonos" unicode="&#x3ac;" horiz-adv-x="563" 
d="M473 520c4 0 21 -11 24 -13v-340c0 -55 56 -79 56 -137c0 -37 -31 -37 -59 -37c-53 0 -80 47 -124 47h-10c-48 -37 -64 -47 -123 -47c-146 0 -204 129 -204 260c0 126 55 281 204 281c45 0 78 -41 117 -41c19 0 28 27 46 27h73zM277 414c-51 0 -97 -39 -97 -94v-133
c0 -50 52 -81 95 -81c21 0 78 4 78 41v220c0 38 -50 47 -76 47zM380 773c6 0 14 -22 14 -23c0 -50 -45 -137 -102 -137c-25 0 -33 7 -33 32c0 17 5 128 41 128h80z" />
    <glyph glyph-name="epsilontonos" unicode="&#x3ad;" horiz-adv-x="556" 
d="M46 143c0 53 25 78 61 117c0 2 1 11 1 13c0 42 -49 64 -49 115c0 113 132 146 225 146c75 0 217 -32 217 -130c0 -36 -32 -31 -61 -31c-64 0 -94 54 -157 54c-33 0 -83 -15 -83 -57c0 -86 167 -33 167 -77v-53c0 -45 -181 13 -181 -83c0 -29 30 -49 54 -57
c6 0 34 -1 40 -1c56 0 66 6 113 48h100c14 0 20 -16 20 -27c0 -74 -101 -114 -160 -127h-66c-95 0 -241 28 -241 150zM240 643c0 11 6 130 47 130h73c13 0 14 -15 14 -23c0 -43 -44 -137 -97 -137c-22 0 -37 6 -37 30z" />
    <glyph glyph-name="etatonos" unicode="&#x3ae;" horiz-adv-x="564" 
d="M370 -187v500c0 66 -27 101 -90 101c-27 0 -90 -13 -90 -54v-340l-23 -20h-87c-6 0 -27 15 -27 20v480l20 20h87c16 -22 25 -28 46 -28c43 0 81 42 131 42c110 0 170 -80 170 -187v-520c0 -6 -15 -27 -20 -27h-100zM360 773c6 0 14 -22 14 -23c0 -50 -45 -137 -102 -137
c-25 0 -33 7 -33 32c0 17 5 128 41 128h80z" />
    <glyph glyph-name="iotatonos" unicode="&#x3af;" horiz-adv-x="336" 
d="M301 53c0 -48 -37 -60 -81 -60c-69 0 -153 39 -153 120v380c0 6 15 27 20 27h93c7 0 23 -13 23 -20v-347c0 -58 98 -31 98 -100zM99 632c0 63 14 135 84 135c26 0 51 2 51 -28c0 -3 0 -12 -1 -12l-53 -107c-6 -11 -33 -20 -43 -20c-21 0 -38 12 -38 32z" />
    <glyph glyph-name="upsilondieresistonos" unicode="&#x3b0;" horiz-adv-x="545" 
d="M256 106c85 0 105 108 105 173c0 73 -35 144 -35 214c0 12 7 27 21 27h86c55 0 68 -212 68 -244c0 -102 -44 -283 -181 -283h-120c-85 0 -147 105 -147 180v320c0 6 15 27 20 27h94c12 0 30 -23 30 -33v-334c0 -27 37 -47 59 -47zM66 666c0 33 25 54 57 54
c35 0 64 -23 64 -59c0 -37 -31 -55 -64 -55c-40 0 -57 20 -57 60zM366 660c0 35 24 61 61 61c34 0 60 -25 60 -58c0 -34 -23 -58 -59 -58c-38 0 -62 16 -62 55zM240 723c0 67 1 124 73 124h34c14 -5 14 -15 14 -27c0 -36 -39 -128 -84 -128c-17 0 -37 10 -37 31z" />
    <glyph glyph-name="alpha" unicode="&#x3b1;" horiz-adv-x="563" 
d="M473 520c4 0 21 -11 24 -13v-340c0 -55 56 -79 56 -137c0 -37 -31 -37 -59 -37c-53 0 -80 47 -124 47h-10c-48 -37 -64 -47 -123 -47c-146 0 -204 129 -204 260c0 126 55 281 204 281c45 0 78 -41 117 -41c19 0 28 27 46 27h73zM277 414c-51 0 -97 -39 -97 -94v-133
c0 -50 52 -81 95 -81c21 0 78 4 78 41v220c0 38 -50 47 -76 47z" />
    <glyph glyph-name="beta" unicode="&#x3b2;" horiz-adv-x="601" 
d="M203 -180c0 -3 -24 -20 -30 -20h-73c-12 0 -33 22 -33 33v674c0 131 121 207 239 207c113 0 221 -57 221 -182c0 -68 -61 -118 -61 -155c0 -2 0 -9 1 -10c57 -53 93 -91 93 -170c0 -134 -95 -204 -220 -204c-40 0 -68 -3 -107 14c-12 -5 -30 -18 -30 -34v-153zM300 600
c-65 0 -93 -63 -93 -120v-313c0 -58 58 -61 100 -61c50 0 86 11 106 61c1 5 1 31 1 36c0 148 -141 63 -141 164v26c40 53 114 29 114 117c0 53 -32 90 -87 90z" />
    <glyph glyph-name="gamma" unicode="&#x3b3;" horiz-adv-x="510" 
d="M183 0l-163 480c0 1 -1 10 -1 13c0 8 0 27 14 27h100c62 0 66 -300 120 -300c11 0 18 10 20 20l67 240c3 10 16 40 33 40h94c11 0 20 -13 20 -23v-4l-154 -460l-10 -26v-187c0 -27 -53 -27 -67 -27c-6 0 -73 -3 -73 20v187z" />
    <glyph glyph-name="delta" unicode="&#x3b4;" horiz-adv-x="564" 
d="M33 244c0 134 121 207 121 236c0 1 -1 6 -1 7c-31 35 -60 69 -60 119c0 111 99 155 197 155c13 0 123 4 123 -34v-67c0 -8 -20 -14 -26 -14c-26 0 -51 8 -78 8c-35 0 -76 -6 -76 -49c0 -70 294 -94 294 -348c0 -101 -57 -264 -187 -264h-120c-121 0 -187 155 -187 251z
M173 264c0 -69 21 -158 105 -158c87 0 109 78 109 151c0 64 -31 163 -114 163c-76 0 -100 -98 -100 -156z" />
    <glyph glyph-name="epsilon" unicode="&#x3b5;" horiz-adv-x="556" 
d="M46 143c0 53 25 78 61 117c0 2 1 11 1 13c0 42 -49 64 -49 115c0 113 132 146 225 146c75 0 217 -32 217 -130c0 -36 -32 -31 -61 -31c-64 0 -94 54 -157 54c-33 0 -83 -15 -83 -57c0 -86 167 -33 167 -77v-53c0 -45 -181 13 -181 -83c0 -29 30 -49 54 -57
c6 0 34 -1 40 -1c56 0 66 6 113 48h100c14 0 20 -16 20 -27c0 -74 -101 -114 -160 -127h-66c-95 0 -241 28 -241 150z" />
    <glyph glyph-name="zeta" unicode="&#x3b6;" horiz-adv-x="500" 
d="M286 -133c0 25 21 43 21 69c0 89 -213 57 -247 204c0 7 -1 42 -1 50c0 183 195 316 195 384c0 8 1 23 -14 23h-187l-13 16v74c0 5 21 20 27 20h366c28 0 34 -25 34 -47c0 -23 -4 -42 -20 -60c-83 -97 -248 -235 -248 -387c0 -6 1 -34 1 -40c46 -112 248 -53 248 -201
c0 -48 -50 -152 -108 -152c-22 0 -54 23 -54 47z" />
    <glyph glyph-name="eta" unicode="&#x3b7;" horiz-adv-x="564" 
d="M370 -187v500c0 66 -27 101 -90 101c-27 0 -90 -13 -90 -54v-340l-23 -20h-87c-6 0 -27 15 -27 20v480l20 20h87c15 -18 24 -28 43 -28c45 0 86 42 137 42c104 0 167 -79 167 -181v-526c0 -6 -15 -27 -20 -27h-100z" />
    <glyph glyph-name="theta" unicode="&#x3b8;" horiz-adv-x="589" 
d="M53 353c0 166 30 361 237 361c129 0 237 -100 237 -234v-260c0 -131 -110 -227 -234 -227c-205 0 -240 187 -240 360zM193 257c0 -62 21 -151 97 -151c75 0 97 77 97 141c0 13 3 46 -20 46h-154c-12 0 -20 -29 -20 -36zM193 450c0 -7 8 -37 20 -37h154l20 20
c0 1 1 16 1 22c0 63 -20 145 -98 145c-75 0 -97 -92 -97 -150z" />
    <glyph glyph-name="iota" unicode="&#x3b9;" horiz-adv-x="336" 
d="M301 53c0 -48 -37 -60 -81 -60c-69 0 -153 39 -153 120v380c0 6 15 27 20 27h93c7 0 23 -13 23 -20v-347c0 -58 98 -31 98 -100z" />
    <glyph glyph-name="kappa" unicode="&#x3ba;" horiz-adv-x="589" 
d="M203 347c0 -4 21 -12 24 -14h3c63 0 110 187 163 187h127c12 0 14 -12 14 -19c0 -9 -1 -13 -7 -21l-127 -173c-11 -15 -14 -22 -14 -37s3 -22 14 -37l127 -180c13 -18 14 -15 14 -33c0 -11 1 -20 -14 -20h-120c-2 0 -20 9 -27 13l-7 7l-100 147c-8 13 -21 20 -36 20
c-11 0 -34 -6 -34 -20v-140c0 -1 -7 -10 -10 -14c-4 -5 -13 -13 -20 -13h-86c-15 0 -27 22 -27 33v454c0 11 12 33 27 33h93c3 0 23 -23 23 -27v-146z" />
    <glyph glyph-name="lambda" unicode="&#x3bb;" horiz-adv-x="548" 
d="M265 274c-15 0 -20 -7 -25 -21l-73 -213c-5 -13 -24 -40 -34 -40h-100c-14 0 -20 15 -20 27v6l147 407c11 32 20 44 20 70c0 107 -121 109 -121 182c0 25 8 47 34 55h40c65 0 120 -26 140 -94l187 -466c24 -59 80 -84 80 -151c0 -41 -25 -43 -60 -43
c-167 0 -165 281 -215 281z" />
    <glyph glyph-name="uni03BC" unicode="&#x3bc;" horiz-adv-x="615" 
d="M397 507c3 3 19 11 23 13h93c5 0 20 -21 20 -27v-460c0 -17 -11 -28 -26 -33c-6 0 -34 -1 -40 -1c-29 0 -53 8 -81 8c-64 0 -68 -22 -153 -14c-7 -2 -30 -16 -30 -26v-154l-16 -13h-100c-5 0 -20 21 -20 27v666c0 6 15 27 20 27h93c7 0 23 -13 23 -20v-293
c0 -58 35 -101 92 -101c42 0 102 20 102 74v327z" />
    <glyph glyph-name="nu" unicode="&#x3bd;" horiz-adv-x="505" 
d="M173 27l-33 93l-120 360c0 2 -1 11 -1 13c0 8 0 27 14 27h100c8 0 25 -24 27 -33l60 -214c1 -3 10 -49 27 -53c45 -11 57 300 120 300h100c13 0 14 -15 14 -23c0 -2 -1 -10 -1 -10l-153 -454c-4 -12 -19 -33 -34 -33h-86c-11 0 -31 24 -34 27z" />
    <glyph glyph-name="xi" unicode="&#x3be;" horiz-adv-x="529" 
d="M326 -133c0 25 22 41 22 67c0 81 -260 74 -295 226c0 7 -1 42 -1 50c0 116 108 162 108 190c0 37 -67 66 -67 135c0 131 120 179 233 179c35 0 134 8 134 -50c0 -29 -6 -71 -42 -71h-11c-7 1 -60 6 -67 7h-3c-45 0 -104 -17 -104 -71c0 -75 114 -70 160 -76
c21 -15 21 -29 21 -53c0 -121 -221 2 -221 -179c0 -172 301 -76 301 -247c0 -54 -55 -155 -115 -155c-22 0 -53 23 -53 48z" />
    <glyph glyph-name="omicron" unicode="&#x3bf;" horiz-adv-x="565" 
d="M33 256c0 148 82 278 244 278c157 0 250 -121 250 -270c0 -126 -55 -237 -187 -271h-60c-158 0 -247 108 -247 263zM173 260c0 -75 19 -154 107 -154c86 0 107 82 107 154c0 75 -22 154 -109 154s-105 -81 -105 -154z" />
    <glyph glyph-name="pi" unicode="&#x3c0;" horiz-adv-x="644" 
d="M383 393l-23 20h-87l-23 -20v-366c0 -1 -7 -10 -10 -14c-4 -5 -13 -13 -20 -13h-87l-23 20v367c0 40 -83 20 -83 53v60l20 20h540c19 0 20 -41 20 -50c0 -64 -80 -37 -80 -83v-234c0 -64 93 -32 93 -103c0 -25 -7 -49 -33 -57h-47c-71 0 -157 31 -157 120v280z" />
    <glyph glyph-name="rho" unicode="&#x3c1;" horiz-adv-x="564" 
d="M293 534c166 0 228 -140 228 -284c0 -12 -1 -65 -1 -77c-21 -105 -86 -180 -197 -180c-40 0 -70 21 -106 21c-14 0 -27 -12 -27 -27v-174l-17 -13h-100c-5 0 -20 21 -20 27v480c0 129 117 227 240 227zM193 167c13 -49 44 -61 92 -61c56 0 83 35 95 87c0 9 1 51 1 60
c0 66 -7 161 -94 161c-96 0 -94 -122 -94 -191v-56z" />
    <glyph glyph-name="sigma1" unicode="&#x3c2;" horiz-adv-x="514" 
d="M273 -123c0 25 22 44 22 70c0 79 -262 57 -262 316c0 146 79 271 237 271c94 0 210 -59 210 -168c0 -12 -2 -33 -20 -33h-80c-37 0 -37 81 -110 81c-81 0 -97 -77 -97 -144c0 -217 261 -123 261 -288c0 -52 -42 -156 -107 -156c-22 0 -54 28 -54 51z" />
    <glyph glyph-name="sigma" unicode="&#x3c3;" horiz-adv-x="572" 
d="M33 253c0 115 59 267 200 267h300c26 0 21 -41 21 -53c0 -5 0 -29 -1 -34c-20 -26 -87 -13 -87 -43c0 -1 1 -3 1 -3l40 -80c1 -3 6 -17 6 -20c1 -8 1 -46 1 -54c0 -145 -93 -240 -237 -240c-154 0 -244 108 -244 260zM173 260c0 -71 16 -154 102 -154s99 81 99 151
c0 66 -13 150 -97 150c-83 0 -104 -78 -104 -147z" />
    <glyph glyph-name="tau" unicode="&#x3c4;" horiz-adv-x="520" 
d="M19 467c0 8 0 53 21 53h433c21 0 21 -45 21 -53c0 -79 -79 -59 -147 -60c-9 -2 -20 -10 -20 -20v-247c0 -50 94 -15 94 -100c0 -27 -4 -39 -34 -47c-7 0 -40 -1 -47 -1c-63 0 -157 34 -157 115v266c0 3 -18 37 -23 37h-113c-25 0 -28 44 -28 57z" />
    <glyph glyph-name="upsilon" unicode="&#x3c5;" horiz-adv-x="545" 
d="M256 106c85 0 105 108 105 173c0 73 -35 144 -35 214c0 12 7 27 21 27h86c55 0 68 -212 68 -244c0 -102 -44 -283 -181 -283h-120c-85 0 -147 105 -147 180v320c0 6 15 27 20 27h94c12 0 30 -23 30 -33v-334c0 -27 37 -47 59 -47z" />
    <glyph glyph-name="phi" unicode="&#x3c6;" horiz-adv-x="745" 
d="M437 -207c-5 -6 -19 -26 -30 -26h-87l-23 20v173c0 38 -271 64 -271 323c0 88 23 173 94 230c2 1 14 1 17 1c28 0 77 -33 77 -64c0 -55 -48 -106 -48 -167c0 -50 27 -163 97 -163c10 0 18 7 24 13c3 4 10 13 10 14v273c0 78 98 107 156 107c146 0 254 -114 254 -260
c0 -163 -112 -236 -254 -280c-4 -4 -14 -17 -16 -20v-174zM473 414c-12 0 -33 -1 -33 -21v-260c0 -14 19 -14 27 -14c70 0 100 97 100 151c0 55 -25 144 -94 144z" />
    <glyph glyph-name="chi" unicode="&#x3c7;" horiz-adv-x="508" 
d="M33 500c0 3 10 20 14 20h100c57 0 49 -121 107 -121c49 0 49 121 99 121h100c16 0 15 -9 15 -19c0 -85 -116 -150 -116 -234c0 -88 122 -157 122 -244c0 -8 -1 -23 -14 -23h-93c-61 0 -58 134 -114 134c-54 0 -55 -134 -113 -134h-93c-12 0 -21 13 -21 23
c0 86 128 154 128 244c0 14 -7 28 -14 40l-100 173c-2 3 -7 17 -7 20z" />
    <glyph glyph-name="psi" unicode="&#x3c8;" horiz-adv-x="744" 
d="M413 520c3 0 24 -23 24 -27v-360c0 -10 15 -14 23 -14c87 0 101 123 101 181c0 66 -28 127 -28 191c0 8 -2 29 14 29h80c60 0 80 -198 80 -230c0 -116 -52 -222 -160 -270c-15 -7 -110 -23 -110 -47v-173c0 -10 -18 -33 -30 -33h-87c-13 0 -30 23 -30 33v173
c0 6 -257 85 -257 260v267l20 20h94c6 0 23 -13 23 -20v-240c0 -49 43 -134 97 -134c2 0 23 -1 23 7v354c0 10 17 33 30 33h93z" />
    <glyph glyph-name="omega" unicode="&#x3c9;" horiz-adv-x="820" 
d="M453 407c12 0 25 -20 30 -27v-193c0 -37 37 -81 74 -81c77 0 77 105 77 157c0 82 -42 158 -42 237c0 3 1 13 1 13l14 7h86c63 0 81 -216 81 -250c0 -87 -24 -277 -154 -277h-100c-34 0 -82 51 -100 67h-27c-49 -51 -78 -67 -146 -67c-158 0 -207 139 -207 277
c0 45 22 250 87 250h86c14 0 14 -15 14 -23c0 -75 -47 -151 -47 -230c0 -49 4 -161 76 -161c66 0 74 78 77 127c2 23 6 131 7 154c4 5 18 20 27 20h86z" />
    <glyph glyph-name="iotadieresis" unicode="&#x3ca;" horiz-adv-x="336" 
d="M301 53c0 -48 -37 -60 -81 -60c-69 0 -153 39 -153 120v380c0 6 15 27 20 27h93c7 0 23 -13 23 -20v-347c0 -58 98 -31 98 -100zM199 653c0 35 24 60 61 60s61 -25 61 -60c0 -34 -25 -60 -61 -60s-61 26 -61 60zM-41 653c0 34 31 61 64 61c29 0 64 -30 64 -61
c0 -40 -38 -54 -70 -54s-58 21 -58 54z" />
    <glyph glyph-name="upsilondieresis" unicode="&#x3cb;" horiz-adv-x="545" 
d="M256 106c85 0 105 108 105 173c0 73 -35 144 -35 214c0 12 7 27 21 27h86c55 0 68 -212 68 -244c0 -102 -44 -283 -181 -283h-120c-85 0 -147 105 -147 180v320c0 6 15 27 20 27h94c12 0 30 -23 30 -33v-334c0 -27 37 -47 59 -47zM93 660c0 37 24 61 61 61
c34 0 60 -25 60 -58c0 -39 -30 -57 -66 -57s-55 19 -55 54zM326 664c0 31 34 56 64 56s64 -25 64 -56c0 -39 -29 -58 -64 -58s-64 19 -64 58z" />
    <glyph glyph-name="omicrontonos" unicode="&#x3cc;" horiz-adv-x="565" 
d="M33 256c0 148 82 278 244 278c157 0 250 -121 250 -270c0 -126 -55 -237 -187 -271h-60c-158 0 -247 108 -247 263zM173 260c0 -75 19 -154 107 -154c86 0 107 82 107 154c0 75 -22 154 -109 154s-105 -81 -105 -154zM240 627v23c0 19 6 123 40 123h80c10 0 7 -24 7 -24
c0 -43 -39 -137 -94 -137c-11 0 -29 -2 -33 15z" />
    <glyph glyph-name="upsilontonos" unicode="&#x3cd;" horiz-adv-x="545" 
d="M256 106c85 0 105 108 105 173c0 73 -35 144 -35 214c0 12 7 27 21 27h86c55 0 68 -212 68 -244c0 -102 -44 -283 -181 -283h-120c-85 0 -147 105 -147 180v320c0 6 15 27 20 27h94c12 0 30 -23 30 -33v-334c0 -27 37 -47 59 -47zM233 645c0 69 8 129 80 129
c18 0 54 5 54 -24c0 -53 -42 -137 -102 -137c-25 0 -32 7 -32 32z" />
    <glyph glyph-name="omegatonos" unicode="&#x3ce;" horiz-adv-x="820" 
d="M453 407c12 0 25 -20 30 -27v-193c0 -37 37 -81 74 -81c77 0 77 105 77 157c0 82 -42 158 -42 237c0 3 1 13 1 13l14 7h86c63 0 81 -216 81 -250c0 -87 -24 -277 -154 -277h-100c-34 0 -82 51 -100 67h-27c-49 -51 -78 -67 -146 -67c-158 0 -207 139 -207 277
c0 45 22 250 87 250h86c14 0 14 -15 14 -23c0 -75 -47 -151 -47 -230c0 -49 4 -161 76 -161c66 0 74 78 77 127c2 23 6 131 7 154c4 5 18 20 27 20h86zM366 645c0 67 10 129 81 129c22 0 54 4 54 -28c0 -1 -1 -6 -1 -6l-53 -107c-12 -23 -23 -21 -44 -21c-3 0 -20 1 -23 1
c-17 5 -14 21 -14 32z" />
    <glyph glyph-name="uni03D1" unicode="&#x3d1;" horiz-adv-x="595" 
d="M60 320l13 13c1 1 38 6 54 7h10c15 0 53 -13 53 -33v-120c0 -43 68 -81 103 -81c60 0 88 55 88 108c0 92 -215 97 -215 303c0 111 66 197 184 197c173 0 181 -160 183 -294c4 -19 45 -52 47 -53v-74c-126 -98 1 -300 -290 -300c-92 0 -230 58 -230 174v153zM299 522
c0 -46 17 -80 54 -109h7c8 0 20 3 20 14v120c0 17 -19 40 -37 40c-37 0 -44 -38 -44 -65z" />
    <glyph glyph-name="uni03D2" unicode="&#x3d2;" horiz-adv-x="590" 
d="M363 20c0 -3 -24 -20 -30 -20h-86c-7 0 -16 8 -20 13c-3 4 -10 13 -10 14v206c0 2 -87 208 -124 294c-30 70 -100 66 -100 149c0 16 -2 30 20 37c7 1 37 1 44 1c146 0 175 -177 216 -287c6 -11 11 -14 20 -14c10 0 15 3 20 14c39 102 71 287 214 287c6 0 34 0 40 -1
c16 -6 27 -18 27 -36c0 -70 -49 -71 -87 -117c-71 -84 -93 -209 -134 -313l-10 -27v-200z" />
    <glyph glyph-name="uni03D6" unicode="&#x3d6;" horiz-adv-x="827" 
d="M40 270c0 40 7 80 7 120c0 36 -41 49 -41 87c0 14 7 43 27 43h760c6 0 17 -8 20 -13c1 -5 3 -26 3 -30c0 -32 -4 -55 -43 -70v-20c0 -41 7 -80 7 -121c0 -132 -48 -273 -200 -273c-93 0 -134 74 -170 74c-41 0 -67 -74 -117 -74h-100c-125 0 -153 188 -153 277zM180 267
c0 -48 5 -161 77 -161c90 0 81 150 83 201c11 32 44 27 73 27c6 0 34 0 40 -1c11 -3 20 -11 27 -20c1 -48 -8 -207 83 -207c75 0 77 104 77 157c0 26 3 157 -47 157h-366c-47 0 -47 -139 -47 -153z" />
    <glyph glyph-name="uni0400" unicode="&#x400;" horiz-adv-x="562" 
d="M534 650c0 -6 0 -60 -21 -60h-273c-37 0 -34 -71 -34 -87c0 -24 -3 -86 41 -86h220c18 0 20 -47 20 -55c0 -21 -4 -59 -34 -59h-220c-13 0 -26 -28 -26 -36v-114c0 -5 11 -36 20 -36h273c33 0 34 -40 34 -60c0 -16 1 -57 -27 -57h-420c-15 0 -27 22 -27 33v634
c0 14 17 40 33 40h407c36 0 34 -34 34 -57zM159 876c0 4 -1 17 8 17h100c33 0 87 -98 87 -120c0 -10 -2 -14 -14 -20c-5 0 -28 -1 -33 -1c-58 0 -148 63 -148 124z" />
    <glyph glyph-name="uni0401" unicode="&#x401;" horiz-adv-x="562" 
d="M534 650c0 -6 0 -60 -21 -60h-273c-37 0 -34 -71 -34 -87c0 -24 -3 -86 41 -86h220c18 0 20 -47 20 -55c0 -21 -4 -59 -34 -59h-220c-13 0 -26 -28 -26 -36v-114c0 -5 11 -36 20 -36h273c33 0 34 -40 34 -60c0 -16 1 -57 -27 -57h-420c-15 0 -27 22 -27 33v634
c0 14 17 40 33 40h407c36 0 34 -34 34 -57zM126 817c0 35 26 57 61 57c38 0 61 -25 61 -63c0 -35 -30 -52 -61 -52c-35 0 -61 22 -61 58zM365 818c0 34 26 56 58 56c36 0 64 -20 64 -57s-27 -58 -61 -58c-40 0 -61 20 -61 59z" />
    <glyph glyph-name="uni0402" unicode="&#x402;" horiz-adv-x="747" 
d="M367 590c-6 0 -24 -20 -27 -23v-120c0 -5 21 -20 27 -20h160c113 0 187 -112 187 -214c0 -124 -98 -220 -225 -220c-35 0 -43 21 -43 54c0 78 121 61 121 156c0 76 -64 111 -133 111c-14 0 -97 0 -97 -27v-254c0 -10 -18 -33 -30 -33h-94l-23 20v533c0 1 -19 37 -30 37
h-127c-20 0 -20 54 -20 60c0 24 0 57 34 57h486c6 0 27 -15 27 -20v-74c0 -6 -13 -23 -20 -23h-173z" />
    <glyph glyph-name="uni0403" unicode="&#x403;" horiz-adv-x="557" 
d="M87 0c-8 0 -20 11 -20 20v667c0 5 21 20 26 20h400c6 0 27 -15 27 -20v-80c0 -4 -19 -16 -20 -17h-260c-4 -3 -27 -21 -30 -23v-534c0 -10 -17 -33 -30 -33h-93zM253 773c0 28 55 120 87 120h100c8 0 7 -14 7 -17c0 -20 -7 -21 -27 -43l-73 -73c-10 -11 -38 -7 -47 -7
h-33c-12 6 -14 10 -14 20z" />
    <glyph glyph-name="uni0404" unicode="&#x404;" horiz-adv-x="659" 
d="M40 354c0 187 91 360 297 360c118 0 276 -74 276 -214c0 -39 -47 -34 -72 -34c-22 0 -44 -4 -61 14c-28 74 -66 114 -143 114c-84 0 -144 -63 -144 -149c0 -11 13 -35 27 -35h160c25 0 21 -48 21 -57c0 -30 4 -27 -8 -46c-1 -3 -6 -10 -6 -10h-160c-23 0 -34 -26 -34 -43
c0 -80 58 -148 139 -148c83 0 115 42 148 114l13 7h100c16 0 21 -18 21 -30c0 -141 -164 -204 -277 -204c-212 0 -297 166 -297 361z" />
    <glyph glyph-name="uni0405" unicode="&#x405;" horiz-adv-x="614" 
d="M39 182c0 20 7 32 28 38c5 0 31 1 36 1c100 0 102 -115 214 -115c47 0 110 16 110 77c0 149 -368 95 -368 337c0 138 132 194 254 194c102 0 254 -50 254 -178c0 -12 -1 -36 -20 -36h-87c-41 0 -52 94 -150 94c-48 0 -104 -10 -104 -69c0 -147 368 -102 368 -338
c0 -149 -136 -194 -262 -194c-109 0 -273 54 -273 189z" />
    <glyph glyph-name="uni0406" unicode="&#x406;" horiz-adv-x="291" 
d="M146 707c16 0 67 3 67 -27v-653c0 -10 -17 -27 -26 -27h-87c-6 0 -27 15 -27 20v660c0 32 58 27 73 27z" />
    <glyph glyph-name="uni0407" unicode="&#x407;" horiz-adv-x="291" 
d="M146 707c16 0 67 3 67 -27v-653c0 -10 -17 -27 -26 -27h-87c-6 0 -27 15 -27 20v660c0 32 58 27 73 27zM-41 817c0 35 32 57 64 57c33 0 64 -22 64 -57c0 -36 -31 -58 -64 -58c-32 0 -64 22 -64 58zM199 817c0 37 29 57 65 57c33 0 58 -23 58 -57c0 -38 -28 -58 -62 -58
s-61 22 -61 58z" />
    <glyph glyph-name="uni0408" unicode="&#x408;" horiz-adv-x="558" 
d="M350 687c3 2 23 20 30 20h80c17 0 33 -26 33 -40v-440c0 -146 -99 -234 -240 -234c-104 0 -233 52 -233 177c0 7 12 30 20 30h107c18 0 35 -94 103 -94s100 66 100 127v454z" />
    <glyph glyph-name="uni0409" unicode="&#x409;" horiz-adv-x="1057" 
d="M490 567c-3 2 -23 20 -30 20h-120c-9 0 -23 -15 -27 -20c-2 -174 30 -567 -250 -567c-38 0 -44 22 -44 57c0 80 85 50 114 116c20 45 26 99 27 147c2 55 6 312 7 367c6 10 20 20 33 20h400c5 0 37 -12 37 -20v-187c0 -12 26 -30 36 -33c160 -3 348 -35 348 -233
c0 -119 -94 -234 -221 -234h-280c-7 0 -16 8 -20 13c-3 4 -10 13 -10 14v540zM673 347c-12 -4 -33 -19 -33 -34v-166c0 -6 15 -27 20 -27h127c57 0 87 66 87 113c0 92 -80 114 -157 114h-44z" />
    <glyph glyph-name="uni040A" unicode="&#x40a;" horiz-adv-x="1058" 
d="M210 427l17 -14h246l17 14v246c0 12 27 31 37 34h36c6 0 74 3 74 -20v-194c0 -4 21 -25 23 -26c166 -6 361 -31 361 -241c0 -117 -97 -226 -221 -226h-280c-13 0 -30 23 -30 33v234l-23 20h-234l-23 -20v-234c0 -10 -17 -33 -30 -33h-93c-9 0 -20 11 -20 20v667
c0 5 21 20 26 20h80c10 0 37 -24 37 -34v-246zM667 340c-10 -3 -27 -14 -27 -27v-166c0 -6 15 -27 20 -27h127c59 0 87 65 87 113c0 92 -76 108 -151 108c-8 0 -48 -1 -56 -1z" />
    <glyph glyph-name="uni040B" unicode="&#x40b;" horiz-adv-x="771" 
d="M360 327c-7 0 -27 -18 -30 -20v-274c0 -10 -17 -33 -30 -33h-93l-24 20v540c-2 3 -12 16 -16 20c-4 3 -13 10 -14 10h-113c-25 0 -27 47 -27 60c0 19 6 57 34 57h473c36 0 34 -34 34 -57c0 -6 0 -60 -21 -60h-173c-5 0 -24 -21 -27 -23v-100l14 -14
c122 -2 360 -8 360 -193v-240l-20 -20h-94c-6 0 -15 8 -20 13c-3 4 -10 13 -10 14v226c0 29 -46 74 -76 74h-127z" />
    <glyph glyph-name="uni040C" unicode="&#x40c;" horiz-adv-x="634" 
d="M173 707c8 0 27 -17 30 -20v-220l10 -34c1 0 7 -2 9 -2c18 0 26 14 38 29l167 213c10 14 33 34 53 34h100c8 0 29 -7 27 -20c-1 -5 -10 -24 -14 -27l-180 -227c-10 -12 -20 -27 -20 -43c0 -118 221 -250 221 -370c0 -11 2 -20 -14 -20h-120c-8 0 -23 15 -27 20l-140 213
c-3 5 -21 24 -26 27c-1 0 -5 1 -6 1c-40 0 -72 -59 -74 -94c-2 -22 -7 -125 -7 -147c-1 -9 -10 -20 -20 -20h-93c-15 0 -27 22 -27 33v634c0 14 17 40 33 40h80zM246 774c0 19 54 119 87 119h94c1 0 10 -9 13 -13v-3c0 -32 -93 -124 -113 -124h-74c-9 0 -7 19 -7 21z" />
    <glyph glyph-name="uni040D" unicode="&#x40d;" horiz-adv-x="700" 
d="M60 20v660c0 32 55 27 70 27h37c10 -3 36 -22 36 -34v-380c0 -6 13 -7 17 -7c10 0 13 2 20 14l227 373c22 38 51 34 90 34h43c17 -5 33 -22 33 -40v-634c0 -11 -11 -33 -26 -33h-94c-6 0 -23 13 -23 20v360c0 1 -5 40 -20 40c-56 0 -180 -346 -270 -413
c-3 -2 -12 -7 -13 -7h-107zM193 880c0 4 4 13 7 13h107c39 0 87 -86 87 -120c0 -10 -2 -14 -14 -20c-5 0 -28 -1 -33 -1c-61 0 -143 67 -154 128z" />
    <glyph glyph-name="uni040E" unicode="&#x40e;" horiz-adv-x="631" 
d="M126 47c0 84 128 49 128 150c0 12 -1 17 -7 30l-214 440s-1 9 -1 12c0 17 5 22 21 28h44c165 0 155 -301 226 -301c14 0 19 9 24 21l93 240c17 42 51 40 90 40h43c19 -7 21 -12 21 -31c0 -24 -1 -19 -14 -49l-213 -500c-35 -78 -92 -134 -180 -134h-40
c-21 16 -21 29 -21 54zM166 860c0 27 10 34 37 34c53 0 67 -61 120 -61c54 0 67 61 121 61c17 0 43 -7 43 -31c0 -76 -105 -110 -164 -110c-63 0 -157 29 -157 107z" />
    <glyph glyph-name="uni040F" unicode="&#x40f;" horiz-adv-x="700" 
d="M277 -33c-5 8 -22 25 -30 30h-167c-7 0 -20 16 -20 23v667c0 5 21 20 27 20h80c9 0 36 -24 36 -34v-540l17 -13h240c7 0 23 13 23 20v533c0 36 50 34 71 34c6 0 73 5 73 -20v-667l-20 -23h-160l-24 -24v-126l-23 -20h-100c-7 0 -23 13 -23 20v120z" />
    <glyph glyph-name="uni0410" unicode="&#x410;" 
d="M13 27v6l227 607c8 22 20 67 53 67h80c22 0 42 -38 47 -54l220 -586c4 -10 13 -38 13 -40c1 -6 -16 -27 -20 -27h-100c-60 0 -33 140 -93 140h-213c-60 0 -34 -140 -94 -140h-100c-14 0 -20 15 -20 27zM259 293c0 -8 0 -26 14 -26h120c13 0 15 15 15 23c0 2 -1 9 -1 10
c-8 24 -45 136 -54 160c-3 10 -8 21 -20 21c-9 0 -16 -3 -20 -14l-53 -160c0 -1 -1 -11 -1 -14z" />
    <glyph glyph-name="uni0411" unicode="&#x411;" horiz-adv-x="626" 
d="M521 640c0 -7 -1 -26 -1 -27l-20 -23h-260c-30 0 -34 -53 -34 -70c0 -28 2 -57 34 -67c132 -2 310 -12 347 -173c0 -8 1 -45 1 -53c0 -120 -93 -227 -221 -227h-280c-15 0 -27 22 -27 33v640c0 12 22 34 33 34h394c37 0 34 -42 34 -67zM441 227c0 44 -27 100 -81 100
h-133c-11 0 -20 -28 -20 -34v-140c0 -5 9 -33 20 -33h133c52 0 81 64 81 107z" />
    <glyph glyph-name="uni0412" unicode="&#x412;" horiz-adv-x="638" 
d="M93 707h120c141 0 354 3 354 -190c0 -74 -61 -107 -61 -154c0 -1 1 -8 1 -10c49 -41 80 -84 80 -149c0 -113 -94 -204 -207 -204h-293c-15 0 -27 22 -27 33v634c0 18 17 35 33 40zM282 307c-27 0 -75 1 -75 -40v-114c0 -5 9 -33 20 -33h140c43 0 73 52 73 90
c0 89 -89 97 -158 97zM240 587c-17 -5 -33 -22 -33 -40v-100c0 -12 11 -34 26 -34h114c47 0 74 47 74 87c0 79 -70 87 -134 87h-47z" />
    <glyph glyph-name="uni0413" unicode="&#x413;" horiz-adv-x="557" 
d="M87 0c-8 0 -20 11 -20 20v667c0 5 21 20 26 20h400c6 0 27 -15 27 -20v-80c0 -4 -19 -16 -20 -17h-260c-4 -3 -27 -21 -30 -23v-534c0 -10 -17 -33 -30 -33h-93z" />
    <glyph glyph-name="uni0414" unicode="&#x414;" horiz-adv-x="747" 
d="M157 -147c-3 -4 -19 -26 -24 -26h-93l-20 20c-1 1 -6 71 -7 100v140c13 37 63 39 87 73c41 60 55 143 60 213l20 294c2 19 18 40 40 40h393c10 0 37 -24 37 -34v-540c0 -20 67 -18 77 -46v-37c0 -68 -2 -107 -7 -190c-1 -6 -9 -33 -20 -33h-93l-24 20v126l-23 20h-380
l-23 -20v-120zM253 140c0 -8 3 -20 14 -20h213c5 0 20 21 20 27v413c0 10 -17 27 -27 27h-120c-20 0 -29 -15 -33 -34c-28 -141 -16 -269 -67 -406v-7z" />
    <glyph glyph-name="uni0415" unicode="&#x415;" horiz-adv-x="562" 
d="M534 650c0 -6 0 -60 -21 -60h-273c-37 0 -34 -71 -34 -87c0 -24 -3 -86 41 -86h220c18 0 20 -47 20 -55c0 -21 -4 -59 -34 -59h-220c-13 0 -26 -28 -26 -36v-114c0 -5 11 -36 20 -36h273c33 0 34 -40 34 -60c0 -16 1 -57 -27 -57h-420c-15 0 -27 22 -27 33v634
c0 14 17 40 33 40h407c36 0 34 -34 34 -57z" />
    <glyph glyph-name="uni0416" unicode="&#x416;" horiz-adv-x="997" 
d="M26 23c0 2 0 9 1 10l173 300c14 24 14 21 14 43c0 115 -174 192 -174 308c0 10 7 23 20 23h107c105 0 119 -282 219 -282c13 0 44 8 44 28v234c0 23 71 20 76 20c14 0 71 1 71 -27v-233c0 -19 29 -21 40 -21c108 0 117 281 210 281h106c18 0 27 -11 27 -27v-7l-153 -246
c-13 -22 -21 -30 -21 -50c0 -125 188 -231 188 -354c0 -10 -9 -23 -21 -23h-126c-78 0 -90 287 -210 287c-12 0 -23 -5 -30 -14c-3 -3 -10 -13 -10 -13v-233c0 -1 -7 -10 -10 -14c-5 -5 -14 -13 -20 -13h-94l-23 20v233c0 17 -32 31 -43 34h-4c-46 0 -64 -46 -83 -80
l-93 -174c-4 -4 -23 -23 -27 -26c-2 -2 -12 -7 -13 -7h-127c-13 0 -14 15 -14 23z" />
    <glyph glyph-name="uni0417" unicode="&#x417;" horiz-adv-x="616" 
d="M39 153c0 21 6 34 28 40c5 1 31 1 36 1c16 0 41 3 57 -7c42 -49 73 -81 137 -81c58 0 123 30 123 97c0 149 -201 36 -201 163c0 8 1 27 1 27l20 20c63 2 167 2 167 92c0 66 -54 89 -110 89c-65 0 -84 -23 -130 -74h-100c-16 0 -21 18 -21 30c0 119 161 164 254 164
c121 0 254 -52 254 -194c0 -68 -27 -97 -74 -147v-20c51 -46 87 -86 87 -156c0 -147 -142 -204 -270 -204c-94 0 -258 36 -258 160z" />
    <glyph glyph-name="uni0418" unicode="&#x418;" horiz-adv-x="700" 
d="M60 20v660c0 32 55 27 70 27h37c10 -3 36 -22 36 -34v-380c0 -6 13 -7 17 -7c10 0 13 2 20 14l227 373c22 38 51 34 90 34h43c17 -5 33 -22 33 -40v-634c0 -11 -11 -33 -26 -33h-94c-6 0 -23 13 -23 20v360c0 1 -5 40 -20 40c-56 0 -180 -346 -270 -413
c-3 -2 -12 -7 -13 -7h-107z" />
    <glyph glyph-name="uni0419" unicode="&#x419;" horiz-adv-x="700" 
d="M60 20v660c0 32 55 27 70 27h37c10 -3 36 -22 36 -34v-380c0 -6 13 -7 17 -7c10 0 13 2 20 14l227 373c22 38 51 34 90 34h43c17 -5 33 -22 33 -40v-634c0 -11 -11 -33 -26 -33h-94c-6 0 -23 13 -23 20v360c0 1 -5 40 -20 40c-56 0 -180 -346 -270 -413
c-3 -2 -12 -7 -13 -7h-107zM186 860c0 26 22 34 44 34c49 0 64 -61 113 -61c54 0 67 61 121 61c18 0 43 -7 43 -30c0 -79 -99 -111 -160 -111c-62 0 -161 29 -161 107z" />
    <glyph glyph-name="uni041A" unicode="&#x41a;" horiz-adv-x="645" 
d="M247 426c98 0 129 281 233 281h100c14 0 21 -13 21 -24c0 -15 -3 -19 -14 -36l-160 -247c-8 -12 -8 -13 -8 -27c0 -17 2 -24 14 -40l167 -260c6 -10 27 -37 27 -53c0 -8 -2 -20 -14 -20h-120c-81 0 -133 287 -240 287c-9 0 -43 -7 -43 -20v-234c0 -10 -17 -33 -30 -33
h-93c-9 0 -20 11 -20 20v667c0 5 21 20 26 20h80c10 0 37 -24 37 -34v-226c0 -17 26 -21 37 -21z" />
    <glyph glyph-name="uni041B" unicode="&#x41b;" horiz-adv-x="706" 
d="M490 567c-3 2 -23 20 -30 20h-127c-84 0 46 -588 -264 -588c-42 0 -50 17 -50 58c0 74 80 67 108 136c20 51 17 131 20 180l13 294c1 14 16 40 33 40h407c6 0 33 -10 33 -20v-667l-20 -20h-93c-7 0 -16 8 -20 13c-3 4 -10 13 -10 14v540z" />
    <glyph glyph-name="uni041C" unicode="&#x41c;" horiz-adv-x="875" 
d="M667 427c0 2 -7 6 -10 7c-19 0 -34 -53 -37 -61l-127 -346c-19 -25 -29 -28 -60 -28c-36 0 -54 11 -66 48l-120 326c-3 9 -18 61 -37 61c-1 0 -3 0 -3 -1c-2 -2 -7 -11 -7 -13v-400c0 -9 -11 -20 -20 -20h-93c-15 0 -27 22 -27 33v634c0 14 17 40 33 40h127
c14 0 36 -15 40 -27l153 -427c4 -11 10 -20 24 -20c12 0 22 32 23 34l140 393c7 20 21 47 47 47h126c12 0 34 -22 34 -34v-646c0 -10 -17 -27 -27 -27h-93l-20 20v407z" />
    <glyph glyph-name="uni041D" unicode="&#x41d;" horiz-adv-x="706" 
d="M173 707c8 0 27 -17 30 -20v-227c0 -18 27 -40 44 -40h206c5 0 37 11 37 20v233c0 12 27 31 37 34h36c7 0 70 4 70 -20v-667l-20 -20h-93c-13 0 -30 23 -30 33v247c0 2 -25 20 -30 20h-220c-14 0 -37 -27 -37 -40v-240c0 -7 -16 -20 -23 -20h-93c-15 0 -27 22 -27 33v634
c0 14 17 40 33 40h80z" />
    <glyph glyph-name="uni041E" unicode="&#x41e;" horiz-adv-x="690" 
d="M40 353c0 185 96 361 300 361c209 0 301 -176 301 -364c0 -193 -91 -357 -301 -357c-206 0 -300 172 -300 360zM187 353c0 -108 26 -240 156 -240c131 0 151 136 151 241c0 101 -23 240 -151 240s-156 -138 -156 -241z" />
    <glyph glyph-name="uni041F" unicode="&#x41f;" horiz-adv-x="707" 
d="M87 0c-8 0 -20 11 -20 20v667c0 5 21 20 26 20h514c5 0 26 -15 26 -20v-667c0 -9 -11 -20 -20 -20h-93c-13 0 -30 23 -30 33v534c-3 2 -23 20 -30 20h-220c-7 0 -27 -18 -30 -20v-534c0 -10 -17 -33 -30 -33h-93z" />
    <glyph glyph-name="uni0420" unicode="&#x420;" horiz-adv-x="645" 
d="M601 474c0 -134 -85 -180 -194 -224h-160c-16 0 -44 -28 -44 -43v-187c0 -7 -16 -20 -23 -20h-93c-15 0 -27 22 -27 33v634c0 14 17 40 33 40h260c136 0 248 -96 248 -233zM240 587c-17 -5 -33 -22 -33 -40v-140c0 -19 16 -35 33 -40c8 -1 45 -1 53 -1
c78 0 161 12 161 107c0 93 -80 114 -157 114h-57z" />
    <glyph glyph-name="uni0421" unicode="&#x421;" horiz-adv-x="654" 
d="M40 354c0 187 91 360 297 360c122 0 271 -74 271 -215c0 -5 -1 -18 -1 -19l-14 -7h-100l-13 7c-28 76 -67 114 -147 114c-131 0 -147 -140 -147 -244c0 -111 16 -237 151 -237c115 0 103 121 209 121c21 0 43 4 61 -14v-23c0 -94 -109 -204 -207 -204h-133
c-174 0 -227 232 -227 361z" />
    <glyph glyph-name="uni0422" unicode="&#x422;" horiz-adv-x="618" 
d="M230 567c-3 2 -26 20 -30 23h-160l-20 23c0 1 -1 20 -1 27c0 25 -3 67 34 67h507c36 0 34 -34 34 -57c0 -6 0 -60 -21 -60h-166c-4 0 -16 -13 -20 -17c-3 -3 -10 -13 -10 -13v-540l-24 -20h-93c-7 0 -16 8 -20 13c-3 4 -10 13 -10 14v540z" />
    <glyph glyph-name="uni0423" unicode="&#x423;" horiz-adv-x="631" 
d="M126 47c0 84 128 49 128 150c0 12 -1 17 -7 30l-214 440s-1 9 -1 12c0 17 5 22 21 28h44c165 0 155 -301 226 -301c14 0 19 9 24 21l93 240c17 42 51 40 90 40h43c19 -7 21 -12 21 -31c0 -24 -1 -19 -14 -49l-213 -500c-35 -78 -92 -134 -180 -134h-40
c-21 16 -21 29 -21 54z" />
    <glyph glyph-name="uni0424" unicode="&#x424;" horiz-adv-x="816" 
d="M33 350c0 220 123 231 280 297c35 14 12 86 54 86h86c30 0 23 -68 47 -86c155 -33 280 -122 280 -297c0 -126 -67 -219 -180 -270c-37 -17 -106 -4 -120 -53c-3 -11 -3 -54 -27 -54h-93c-34 0 -16 60 -33 74c-26 20 -63 18 -94 26c-126 37 -200 149 -200 277zM173 350
c0 -75 40 -164 129 -164c11 0 31 1 31 21v286c0 20 -19 21 -32 21c-86 0 -128 -88 -128 -164zM493 513c-5 -3 -13 -14 -13 -20v-280c0 -16 19 -27 32 -27c84 0 128 91 128 164s-40 164 -123 164c-4 0 -20 0 -24 -1z" />
    <glyph glyph-name="uni0425" unicode="&#x425;" horiz-adv-x="635" 
d="M32 20c0 121 175 213 175 335c0 123 -174 213 -174 328c0 34 58 24 74 24c43 0 66 4 93 -34l80 -146c6 -11 18 -34 33 -34c8 0 13 1 20 7c14 25 79 142 94 167c8 15 25 40 46 40h100c14 0 21 -13 21 -24c0 -117 -174 -209 -174 -326c0 -12 0 -18 7 -30l153 -260l20 -40
c0 -1 1 -6 1 -7c0 -8 -3 -20 -14 -20h-114c-84 0 -77 214 -157 214c-15 0 -19 -3 -29 -21l-94 -166c-1 -3 -23 -27 -33 -27h-113c-16 0 -15 9 -15 20z" />
    <glyph glyph-name="uni0426" unicode="&#x426;" horiz-adv-x="758" 
d="M203 133l17 -13h240c7 0 23 13 23 20v533c0 36 50 34 71 34c5 0 76 3 76 -20v-540c0 -48 97 -16 97 -75v-12l-7 -200c-10 -33 -38 -34 -66 -34c-13 0 -71 -2 -71 27v114c-2 2 -12 16 -16 20c-4 3 -13 10 -14 10h-473c-7 0 -20 16 -20 23v667c0 5 21 20 27 20h80
c9 0 36 -24 36 -34v-540z" />
    <glyph glyph-name="uni0427" unicode="&#x427;" horiz-adv-x="695" 
d="M483 687c3 2 23 20 30 20h80c12 0 34 -22 34 -34v-640c0 -11 -12 -33 -27 -33h-93c-7 0 -24 13 -24 20v207c0 17 -21 33 -36 33c-8 0 -66 -6 -74 -7h-34c-119 0 -272 55 -272 200v227c0 32 54 27 70 27c12 0 73 3 73 -27v-220c0 -76 93 -87 146 -87c28 0 127 -8 127 47
v267z" />
    <glyph glyph-name="uni0428" unicode="&#x428;" horiz-adv-x="958" 
d="M203 147c0 -4 21 -27 24 -27h153c7 0 23 13 23 20v540c0 30 62 27 74 27s73 3 73 -27v-540l23 -20h147c4 0 20 11 23 13v540c0 10 27 34 37 34h80c6 0 27 -15 27 -20v-667l-20 -20h-780c-15 0 -27 22 -27 33v640c0 12 22 34 33 34h80c8 0 27 -17 30 -20v-540z" />
    <glyph glyph-name="uni0429" unicode="&#x429;" horiz-adv-x="1021" 
d="M860 707c7 0 27 -18 30 -20v-540c0 -49 74 -24 90 -60c0 -12 1 -68 1 -80c0 -78 28 -181 -71 -181c-17 0 -67 5 -67 34v113l-23 24h-733c-14 0 -27 28 -27 36v640c0 12 22 34 33 34h80c8 0 27 -17 30 -20v-540c0 -4 21 -27 24 -27h153c7 0 23 13 23 20v540
c0 30 62 27 74 27s73 3 73 -27v-540l23 -20h147c4 0 20 11 23 13v540c0 10 27 34 37 34h80z" />
    <glyph glyph-name="uni042A" unicode="&#x42a;" horiz-adv-x="770" 
d="M203 567c-7 9 -22 30 -36 30h-134c-23 0 -20 44 -20 53c0 24 0 57 34 57h266c9 0 37 -14 37 -27v-200c0 -10 22 -24 30 -27c159 -2 354 -29 354 -226c0 -118 -97 -227 -221 -227h-280c-6 0 -15 8 -20 13c-3 4 -10 13 -10 14v540zM353 140l20 -20h127c54 0 87 61 87 107
c0 41 -32 100 -80 100h-134l-20 -20v-167z" />
    <glyph glyph-name="uni042B" unicode="&#x42b;" horiz-adv-x="871" 
d="M67 20v667c0 24 63 20 70 20h36c10 -3 37 -22 37 -34v-200c0 -5 25 -18 30 -20c154 -2 354 -25 354 -226c0 -117 -99 -227 -221 -227h-286zM730 707c15 0 70 5 70 -27v-660l-20 -20h-93c-10 0 -27 17 -27 27v653c0 32 55 27 70 27zM447 227c0 41 -32 100 -80 100h-134
c-9 0 -20 -11 -20 -20v-167c0 -9 11 -20 20 -20h127c51 0 87 63 87 107z" />
    <glyph glyph-name="uni042C" unicode="&#x42c;" horiz-adv-x="625" 
d="M173 707c8 0 27 -17 30 -20v-194c0 -16 23 -35 37 -40c132 -2 310 -12 347 -173c0 -8 1 -45 1 -53c0 -120 -93 -227 -221 -227h-280c-15 0 -27 22 -27 33v640c0 12 22 34 33 34h80zM441 227c0 44 -27 100 -81 100h-133c-11 0 -20 -28 -20 -34v-140c0 -5 9 -33 20 -33h133
c52 0 81 64 81 107z" />
    <glyph glyph-name="uni042D" unicode="&#x42d;" horiz-adv-x="650" 
d="M33 200c0 6 15 27 20 27h100l14 -7c33 -72 65 -114 148 -114c80 0 139 68 139 148c0 6 -5 36 -14 36h-167c-34 0 -34 43 -34 63c0 9 -4 57 21 57h167c15 0 27 28 27 40c0 83 -64 144 -144 144c-117 0 -101 -128 -207 -128c-20 0 -70 -4 -70 30c0 143 157 218 277 218
c141 0 290 -104 290 -261v-206c0 -161 -153 -254 -294 -254c-113 0 -273 68 -273 207z" />
    <glyph glyph-name="uni042E" unicode="&#x42e;" horiz-adv-x="943" 
d="M180 707c7 0 27 -18 30 -20v-260c0 -15 30 -34 43 -34c55 0 67 321 340 321c209 0 301 -175 301 -364c0 -191 -96 -357 -301 -357c-259 0 -270 281 -341 281c-13 0 -42 -8 -42 -27v-227l-23 -20h-94c-15 0 -26 22 -26 33v640c0 12 21 34 33 34h80zM440 353
c0 -100 21 -241 149 -241c133 0 158 132 158 242c0 98 -21 240 -149 240c-131 0 -158 -134 -158 -241z" />
    <glyph glyph-name="uni042F" unicode="&#x42f;" horiz-adv-x="596" 
d="M390 220c0 5 -21 25 -23 27h-87c-8 0 -30 -34 -33 -40c-15 -27 -80 -153 -94 -180c-2 -3 -22 -27 -33 -27h-100c-12 0 -20 13 -20 23v4l120 246c0 1 1 7 1 9c0 51 -95 104 -95 208c0 203 201 217 357 217h117c9 -3 33 -11 33 -27v-653c0 -10 -17 -27 -26 -27h-94l-23 20
v200zM173 477c0 -87 61 -111 137 -111c8 0 43 0 50 1c10 3 27 13 27 26v167c0 13 -17 23 -27 27h-47c-74 0 -140 -24 -140 -110z" />
    <glyph glyph-name="uni0430" unicode="&#x430;" horiz-adv-x="536" 
d="M33 145c0 223 301 133 301 211c0 42 -32 71 -73 71c-44 0 -60 -17 -94 -54h-100c-15 0 -15 19 -15 27c0 96 141 134 215 134c89 0 195 -46 206 -147c1 -118 14 -243 14 -362c0 -15 -5 -20 -20 -25c-7 0 -37 -1 -44 -1c-38 0 -62 22 -96 22c-38 0 -75 -28 -118 -28
c-90 0 -176 53 -176 152zM173 160c0 -39 36 -61 70 -61c57 0 91 33 91 90c0 7 0 24 -1 24l-20 20c0 1 -17 1 -24 1c-46 0 -116 -13 -116 -74z" />
    <glyph glyph-name="uni0431" unicode="&#x431;" horiz-adv-x="569" 
d="M39 286c0 266 53 327 288 421c21 8 44 46 66 46h74c16 0 14 -26 14 -33c0 -173 -298 -88 -298 -252c44 0 84 26 130 26c144 0 221 -117 221 -251c0 -149 -96 -250 -244 -250c-172 0 -251 131 -251 293zM180 244c0 -73 27 -138 107 -138c77 0 107 62 107 134
c0 68 -28 140 -107 140c-77 0 -107 -70 -107 -136z" />
    <glyph glyph-name="uni0432" unicode="&#x432;" horiz-adv-x="565" 
d="M500 380c0 -46 -48 -68 -48 -105c0 -41 75 -60 75 -133c0 -85 -79 -142 -160 -142h-280c-15 0 -27 22 -27 33v454c0 11 12 33 27 33h253c80 0 160 -58 160 -140zM207 133l20 -20h113c22 0 47 25 47 47c0 26 -28 53 -54 53h-100c-5 0 -26 -15 -26 -20v-60zM207 333
c3 -5 18 -20 26 -20h80c28 0 42 26 42 48c0 49 -49 46 -85 46h-43c-24 -4 -21 -30 -21 -47c0 -4 0 -23 1 -27z" />
    <glyph glyph-name="uni0433" unicode="&#x433;" horiz-adv-x="418" 
d="M220 410c-9 -5 -25 -21 -30 -30v-360l-23 -20h-87c-10 0 -27 17 -27 27v466c0 6 15 27 20 27h314l20 -20v-67c-2 -2 -22 -23 -27 -23h-160z" />
    <glyph glyph-name="uni0434" unicode="&#x434;" horiz-adv-x="631" 
d="M470 -33c-5 7 -17 26 -30 26h-260l-23 -20v-106c0 -1 -7 -10 -10 -14c-5 -5 -14 -13 -20 -13h-87c-14 0 -27 24 -27 33v200c0 25 88 88 107 134c35 84 26 208 27 286c1 6 13 27 20 27h346c3 0 24 -23 24 -27v-360c0 -34 70 -11 70 -46v-227c0 -5 -21 -20 -27 -20h-80
c-7 0 -16 8 -20 13c-3 4 -10 13 -10 14v100zM246 139c0 -8 -1 -26 14 -26h107c14 0 26 25 26 34v226c0 28 -38 34 -56 34c-24 0 -42 -2 -50 -27c-4 -78 -41 -165 -41 -241z" />
    <glyph glyph-name="uni0435" unicode="&#x435;" horiz-adv-x="540" 
d="M33 253c0 144 85 281 244 281c146 0 230 -109 230 -247v-47c-2 -7 -12 -23 -20 -23h-274c-9 0 -27 -22 -27 -30c0 -56 73 -81 117 -81c49 0 84 35 128 35c2 0 9 -1 9 -1l40 -40v-33c0 -65 -151 -74 -187 -74c-153 0 -260 103 -260 260zM186 340c0 -10 16 -27 21 -27h140
c17 0 20 18 20 30c0 50 -46 71 -87 71s-94 -24 -94 -74z" />
    <glyph glyph-name="uni0436" unicode="&#x436;" horiz-adv-x="854" 
d="M473 520c3 0 24 -23 24 -27v-140c0 -12 20 -20 30 -20c66 0 92 187 146 187h120c16 0 15 -9 15 -20c0 -2 -1 -11 -1 -13l-87 -134c-12 -18 -40 -52 -40 -80c0 -90 134 -158 134 -250c0 -8 -1 -23 -14 -23h-120c-55 0 -80 187 -145 187c-11 0 -38 -3 -38 -20v-140
c0 -1 -7 -10 -10 -14c-5 -5 -14 -13 -20 -13h-87c-7 0 -23 13 -23 20v133c0 22 -23 35 -41 35c-25 0 -38 -21 -49 -41c-11 -18 -57 -102 -67 -120c-2 -3 -23 -27 -33 -27h-114c-13 0 -14 15 -14 23c0 92 128 156 128 249c0 90 -127 147 -127 231v4c3 4 12 13 13 13h127
c47 0 86 -188 143 -188c15 0 34 19 34 35v140c3 3 19 11 23 13h93z" />
    <glyph glyph-name="uni0437" unicode="&#x437;" horiz-adv-x="513" 
d="M39 121c0 8 0 26 14 26h100c27 0 41 -47 67 -47h73c24 0 41 43 41 59c0 65 -91 64 -134 68l-13 13v53l13 14c44 3 122 2 122 63c0 43 -30 51 -67 51c-58 0 -84 -48 -145 -48h-37c-13 4 -27 14 -27 29c0 95 132 132 207 132c93 0 214 -38 214 -151c0 -45 -47 -72 -47 -113
v-10c33 -32 54 -65 54 -110c0 -79 -69 -157 -154 -157h-133c-61 0 -148 66 -148 128z" />
    <glyph glyph-name="uni0438" unicode="&#x438;" horiz-adv-x="567" 
d="M190 280c0 -2 11 -27 17 -27c14 0 28 25 33 34c17 31 97 175 113 206c3 3 23 27 34 27h100l20 -20v-480l-20 -20h-87c-5 0 -30 18 -30 20v233c0 12 -9 14 -17 14c-54 0 -114 -267 -180 -267h-93c-10 0 -27 17 -27 27v466c0 6 15 27 20 27h94c6 0 23 -13 23 -20v-220z" />
    <glyph glyph-name="uni0439" unicode="&#x439;" horiz-adv-x="567" 
d="M190 280c0 -2 11 -27 17 -27c14 0 28 25 33 34c17 31 97 175 113 206c3 3 23 27 34 27h100l20 -20v-480l-20 -20h-87c-5 0 -30 18 -30 20v233c0 12 -9 14 -17 14c-54 0 -114 -267 -180 -267h-93c-10 0 -27 17 -27 27v466c0 6 15 27 20 27h94c6 0 23 -13 23 -20v-220z
M126 707c0 3 0 17 1 20c9 10 29 7 40 7c53 0 64 -55 117 -55c51 0 64 55 116 55c21 0 47 3 47 -27c0 -77 -104 -108 -161 -108c-66 0 -160 25 -160 108z" />
    <glyph glyph-name="uni043A" unicode="&#x43a;" horiz-adv-x="563" 
d="M180 520c3 0 23 -23 23 -27v-146c0 -13 18 -14 26 -14c71 0 97 187 151 187h127c11 0 14 -12 14 -19c0 -9 -2 -12 -8 -21l-126 -187c-1 0 -2 -11 -2 -14c0 -21 2 -26 15 -46l133 -200c1 -2 2 -11 2 -13c0 -11 0 -20 -15 -20h-127c-50 0 -98 153 -146 187h-10
c-11 0 -34 -6 -34 -20v-140c0 -1 -7 -10 -10 -14c-4 -5 -13 -13 -20 -13h-86c-15 0 -27 22 -27 33v454c0 11 12 33 27 33h93z" />
    <glyph glyph-name="uni043B" unicode="&#x43b;" horiz-adv-x="568" 
d="M370 380c0 5 -21 24 -23 27h-74c-13 0 -23 -17 -26 -27c-7 -135 -3 -381 -199 -381c-37 0 -42 37 -42 68c0 47 76 64 87 140c2 37 11 209 14 246c0 4 0 67 26 67h354l20 -20v-480l-20 -20h-87c-5 0 -30 18 -30 20v360z" />
    <glyph glyph-name="uni043C" unicode="&#x43c;" horiz-adv-x="759" 
d="M533 247h-6c-9 -5 -24 -37 -27 -47l-67 -167c-16 -28 -26 -34 -60 -34c-114 0 -95 241 -156 241h-4c-3 -1 -10 -6 -10 -7v-206c0 -1 -7 -10 -10 -14c-4 -5 -13 -13 -20 -13h-86c-15 0 -27 22 -27 33v454c0 11 12 33 27 33h133l27 -27c14 -39 84 -221 100 -260
c4 -11 12 -27 26 -27c9 0 16 3 20 14l107 273l27 27h133c15 0 27 -22 27 -33v-454c0 -11 -12 -33 -27 -33h-87c-10 0 -18 11 -20 20c0 27 -5 153 -6 180c-1 5 1 39 -14 47z" />
    <glyph glyph-name="uni043D" unicode="&#x43d;" horiz-adv-x="567" 
d="M213 193c-4 -3 -20 -21 -23 -26v-147l-23 -20h-87c-10 0 -27 17 -27 27v466c0 6 15 27 20 27h94c6 0 23 -13 23 -20v-153c0 -10 27 -34 37 -34h106c10 0 37 24 37 34v153c0 7 17 20 23 20h94c5 0 20 -21 20 -27v-466c0 -10 -17 -27 -27 -27h-87l-23 20v147
c-3 5 -19 23 -23 26h-134z" />
    <glyph glyph-name="uni043E" unicode="&#x43e;" horiz-adv-x="565" 
d="M33 256c0 148 82 278 244 278c157 0 250 -121 250 -270c0 -126 -55 -237 -187 -271h-60c-158 0 -247 108 -247 263zM173 260c0 -75 19 -154 107 -154c86 0 107 82 107 154c0 75 -22 154 -109 154s-105 -81 -105 -154z" />
    <glyph glyph-name="uni043F" unicode="&#x43f;" horiz-adv-x="567" 
d="M220 407c-12 0 -25 -20 -30 -27v-360l-23 -20h-87c-10 0 -27 17 -27 27v466c0 6 15 27 20 27h414l20 -20v-480l-20 -20h-94l-23 20v360c0 5 -21 24 -23 27h-127z" />
    <glyph glyph-name="uni0440" unicode="&#x440;" horiz-adv-x="562" 
d="M190 -180c-1 -1 -13 -20 -17 -20h-100l-20 20v673c0 6 15 27 20 27h87l40 -20h3c39 0 78 34 120 34c114 0 177 -92 197 -194c0 -11 1 -65 1 -77c0 -130 -45 -270 -200 -270c-38 0 -70 21 -105 21c-9 0 -26 -9 -26 -21v-173zM284 414c-36 0 -91 -13 -91 -61v-186
c0 -46 52 -61 87 -61c89 0 101 83 101 154c0 69 -11 154 -97 154z" />
    <glyph glyph-name="uni0441" unicode="&#x441;" horiz-adv-x="521" 
d="M33 260c0 147 77 274 237 274c93 0 217 -61 217 -171c0 -7 -12 -30 -20 -30h-87c-24 0 -45 81 -112 81c-87 0 -95 -84 -95 -154c0 -74 11 -154 99 -154c66 0 75 67 108 67h87c5 0 20 -21 20 -26c0 -69 -93 -154 -160 -154h-114c-132 0 -180 166 -180 267z" />
    <glyph glyph-name="uni0442" unicode="&#x442;" horiz-adv-x="509" 
d="M153 407c-73 1 -140 -17 -140 63c0 9 1 50 20 50h434c21 0 20 -45 20 -53c0 -13 -2 -57 -27 -57h-120c-5 0 -23 -34 -23 -37v-353c0 -7 -17 -20 -24 -20h-86c-13 0 -30 23 -30 33v354c0 8 -17 18 -24 20z" />
    <glyph glyph-name="uni0443" unicode="&#x443;" horiz-adv-x="501" 
d="M59 -157c0 88 116 52 116 155c0 5 -1 21 -2 22l-160 467v10c0 8 1 23 14 23h106c35 0 88 -232 100 -267c3 -7 8 -7 14 -7c49 0 60 274 120 274h100c14 0 14 -19 14 -27c0 -2 -1 -11 -1 -13l-180 -520c-32 -91 -75 -174 -184 -174c-45 0 -57 13 -57 57z" />
    <glyph glyph-name="uni0444" unicode="&#x444;" horiz-adv-x="730" 
d="M430 -180c-1 -1 -13 -20 -17 -20h-100c-6 0 -23 13 -23 20v147c0 8 -17 18 -23 20c-167 5 -234 106 -234 266c0 103 25 247 147 274c19 4 110 -5 110 26v167c0 7 17 20 23 20h100c4 0 16 -19 17 -20v-160c0 -4 22 -25 23 -27c171 13 240 -127 240 -280
c0 -164 -76 -262 -240 -266c-1 -2 -23 -23 -23 -27v-140zM173 253c0 -54 5 -147 81 -147c12 0 33 1 33 21v266c0 20 -21 21 -33 21c-78 0 -81 -108 -81 -161zM470 414c-15 0 -37 -8 -37 -27v-254c0 -18 21 -27 36 -27c37 0 78 42 78 81v133c0 40 -34 94 -77 94z" />
    </font>
</defs>
</svg>
